<svg width="624" height="487" viewBox="0 0 624 487" fill="none" xmlns="http://www.w3.org/2000/svg">
<g clip-path="url(#clip0_65_565)">
<path d="M461.999 133.356H133.836C125 133.356 117.836 140.52 117.836 149.356V338.57C117.836 347.407 124.999 354.57 133.836 354.57H461.999C470.835 354.57 477.999 347.407 477.999 338.57V149.356C477.999 140.52 470.835 133.356 461.999 133.356Z" fill="#495057"/>
<path d="M454.161 146.025H141.674C136.151 146.025 131.674 150.502 131.674 156.025V331.381C131.674 336.904 136.151 341.381 141.674 341.381H454.161C459.684 341.381 464.161 336.904 464.161 331.381V156.025C464.161 150.502 459.684 146.025 454.161 146.025Z" fill="#FAFAFA"/>
<path d="M341.01 433.768H254.825L264.025 354.358H331.809L341.01 433.768Z" fill="url(#paint0_linear_65_565)"/>
<path d="M445.623 447L149.683 447L149.683 439.414C149.683 435.838 152.433 432.935 155.82 432.935L439.486 432.935C442.873 432.935 445.623 435.838 445.623 439.414L445.623 447Z" fill="#9CA4AB"/>
<g clip-path="url(#clip1_65_565)">
<path d="M396.125 405.799L375.386 384.328L377.799 378.125L407.222 377.257L404.379 384.559L384.214 384.256L398.94 398.548L396.125 405.799Z" fill="#9151E4"/>
<path d="M396.244 411.425L420.582 377.257L425.884 379.352L401.447 413.484L396.244 411.425Z" fill="#9151E4"/>
<path d="M416.004 413.484L418.82 406.222L439.072 406.334L424.283 392.147L427.083 384.942L447.839 406.39L445.451 412.546L416.004 413.484Z" fill="#9151E4"/>
<path d="M522.593 118.19H277.457C275.247 118.19 273.457 119.981 273.457 122.19V313.083C273.457 315.292 275.247 317.083 277.457 317.083H522.593C524.802 317.083 526.593 315.292 526.593 313.083V122.19C526.593 119.981 524.802 118.19 522.593 118.19Z" fill="white"/>
<path d="M273.457 143.303H526.593" stroke="url(#paint1_linear_65_565)" stroke-width="0.293" stroke-miterlimit="10"/>
<path d="M292.462 135.574C294.584 135.574 296.304 133.853 296.304 131.731C296.304 129.609 294.584 127.889 292.462 127.889C290.34 127.889 288.62 129.609 288.62 131.731C288.62 133.853 290.34 135.574 292.462 135.574Z" fill="#EF3333"/>
<path d="M306.733 135.574C308.855 135.574 310.575 133.853 310.575 131.731C310.575 129.609 308.855 127.889 306.733 127.889C304.611 127.889 302.891 129.609 302.891 131.731C302.891 133.853 304.611 135.574 306.733 135.574Z" fill="#EDA43A"/>
<path d="M321.004 135.574C323.126 135.574 324.846 133.853 324.846 131.731C324.846 129.609 323.126 127.889 321.004 127.889C318.882 127.889 317.162 129.609 317.162 131.731C317.162 133.853 318.882 135.574 321.004 135.574Z" fill="#5ACC52"/>
<g filter="url(#filter0_d_65_565)">
<path d="M236.308 300.007H45.415C43.2059 300.007 41.415 301.797 41.415 304.007V401.48C41.415 403.689 43.2059 405.48 45.415 405.48H236.308C238.517 405.48 240.308 403.689 240.308 401.48V304.007C240.308 301.797 238.517 300.007 236.308 300.007Z" fill="white"/>
</g>
<path d="M41.415 319.092H240.308" stroke="url(#paint2_linear_65_565)" stroke-width="0.293" stroke-miterlimit="10"/>
<path d="M54.2045 313.531C55.7202 313.531 56.9489 312.303 56.9489 310.787C56.9489 309.271 55.7202 308.043 54.2045 308.043C52.6888 308.043 51.4601 309.271 51.4601 310.787C51.4601 312.303 52.6888 313.531 54.2045 313.531Z" fill="#EF3333"/>
<path d="M64.127 313.531C65.6427 313.531 66.8714 312.303 66.8714 310.787C66.8714 309.271 65.6427 308.043 64.127 308.043C62.6113 308.043 61.3826 309.271 61.3826 310.787C61.3826 312.303 62.6113 313.531 64.127 313.531Z" fill="#EDA43A"/>
<path d="M75.1048 313.531C76.6205 313.531 77.8492 312.303 77.8492 310.787C77.8492 309.271 76.6205 308.043 75.1048 308.043C73.5891 308.043 72.3604 309.271 72.3604 310.787C72.3604 312.303 73.5891 313.531 75.1048 313.531Z" fill="#5ACC52"/>
<path d="M84.6219 332.151C80.76 332.151 76.8915 332.844 73.1735 334.237C65.1489 337.241 58.7937 343.141 55.279 350.848C48.0251 366.758 55.28 385.509 71.4514 392.647C80.5727 396.673 90.9153 396.351 99.9381 391.602C104.497 389.202 108.415 385.713 111.276 381.477C122.573 364.751 115.579 342.801 97.7661 334.938C93.5614 333.083 89.0967 332.151 84.6219 332.151Z" fill="#F7F8F8"/>
<path d="M84.6881 387.892C81.2834 387.892 77.8873 387.176 74.6874 385.751C62.3843 380.267 56.8646 365.862 62.3843 353.639C65.0583 347.719 69.893 343.187 75.9981 340.878C82.1042 338.57 88.7478 338.761 94.7081 341.417C107.012 346.901 112.531 361.306 107.011 373.528C104.338 379.45 99.503 383.982 93.398 386.29C90.5694 387.359 87.6258 387.892 84.6881 387.892ZM84.7064 342.168C82.1178 342.168 79.5251 342.637 77.0331 343.58C71.6543 345.613 67.3948 349.606 65.0389 354.823C60.1768 365.59 65.0394 378.282 75.8791 383.113C81.1293 385.454 86.9834 385.622 92.3624 383.589C97.7413 381.555 102.001 377.562 104.357 372.346C109.22 361.578 104.357 348.886 93.5169 344.055C90.6986 342.799 87.7062 342.168 84.7064 342.168Z" fill="#D5D0E1"/>
<path d="M95.1036 340.382C91.889 338.919 88.4861 338.178 84.9889 338.178H84.9724C84.062 338.178 83.225 338.751 82.9444 339.629C82.4643 341.132 83.55 342.518 84.9578 342.528C84.9681 342.529 84.9785 342.529 84.9888 342.529C87.8763 342.529 90.6888 343.142 93.3476 344.353C103.641 349.036 108.258 361.341 103.641 371.781C101.404 376.839 97.3592 380.71 92.2515 382.682C87.1432 384.654 81.5855 384.49 76.599 382.221C76.593 382.218 76.587 382.216 76.5809 382.213C75.6142 381.772 74.4819 382.122 73.9432 383.048C73.9107 383.104 73.8782 383.16 73.8458 383.214C73.2276 384.263 73.6475 385.641 74.7442 386.146C74.7771 386.161 74.8101 386.176 74.8436 386.191C78.0807 387.665 81.5179 388.403 84.9633 388.403C87.9361 388.403 90.9155 387.853 93.7776 386.748C99.9556 384.363 104.849 379.68 107.554 373.562C113.14 360.933 107.554 346.048 95.1036 340.382Z" fill="#9151E4"/>
<path d="M142.187 331.146H138.531C137.599 331.146 136.843 331.918 136.843 332.87V393.711C136.843 394.663 137.599 395.435 138.531 395.435H142.187C143.119 395.435 143.875 394.663 143.875 393.711V332.87C143.875 331.918 143.119 331.146 142.187 331.146Z" fill="#F7F8F8"/>
<path d="M142.651 362.286H138.067C137.391 362.286 136.843 362.835 136.843 363.511V394.209C136.843 394.886 137.391 395.435 138.067 395.435H142.651C143.327 395.435 143.875 394.886 143.875 394.209V363.511C143.875 362.835 143.327 362.286 142.651 362.286Z" fill="#E4D6F5"/>
<path d="M158.259 331.146H154.603C153.671 331.146 152.916 331.918 152.916 332.87V393.711C152.916 394.663 153.671 395.435 154.603 395.435H158.259C159.191 395.435 159.947 394.663 159.947 393.711V332.87C159.947 331.918 159.191 331.146 158.259 331.146Z" fill="#F7F8F8"/>
<path d="M154.326 351.237H158.536C159.315 351.237 159.947 351.871 159.947 352.654V394.019C159.947 394.8 159.315 395.435 158.536 395.435H154.327C153.548 395.435 152.916 394.8 152.916 394.018V352.653C152.916 351.871 153.548 351.237 154.326 351.237Z" fill="#9151E4"/>
<path d="M174.331 331.146H170.675C169.743 331.146 168.988 331.918 168.988 332.87V393.711C168.988 394.663 169.743 395.435 170.675 395.435H174.331C175.264 395.435 176.019 394.663 176.019 393.711V332.87C176.019 331.918 175.264 331.146 174.331 331.146Z" fill="#F7F8F8"/>
<path d="M175.115 377.354H169.892C169.392 377.354 168.988 377.759 168.988 378.258V394.53C168.988 395.03 169.392 395.435 169.892 395.435H175.115C175.615 395.435 176.019 395.03 176.019 394.53V378.258C176.019 377.759 175.615 377.354 175.115 377.354Z" fill="#E4D6F5"/>
<path d="M190.404 331.146H186.748C185.815 331.146 185.06 331.918 185.06 332.87V393.711C185.06 394.663 185.815 395.435 186.748 395.435H190.404C191.336 395.435 192.091 394.663 192.091 393.711V332.87C192.091 331.918 191.336 331.146 190.404 331.146Z" fill="#F7F8F8"/>
<path d="M191.396 359.518H186.051C185.708 359.518 185.43 360.624 185.43 361.988V393.274C185.43 394.638 185.708 395.744 186.051 395.744H191.396C191.739 395.744 192.017 394.638 192.017 393.274V361.988C192.017 360.624 191.739 359.518 191.396 359.518Z" fill="#9151E4"/>
<path d="M207.239 331.146H203.061C201.996 331.146 201.132 331.918 201.132 332.87V393.711C201.132 394.663 201.996 395.435 203.061 395.435H207.239C208.304 395.435 209.168 394.663 209.168 393.711V332.87C209.168 331.918 208.304 331.146 207.239 331.146Z" fill="#F7F8F8"/>
<path d="M202.409 367.309H207.891C208.596 367.309 209.168 367.819 209.168 368.448V394.296C209.168 394.925 208.596 395.435 207.892 395.435H202.409C201.704 395.435 201.132 394.924 201.132 394.295V368.448C201.132 367.819 201.704 367.309 202.409 367.309Z" fill="#E4D6F5"/>
<path d="M223.552 331.146H219.896C218.964 331.146 218.209 331.918 218.209 332.87V393.711C218.209 394.663 218.964 395.435 219.896 395.435H223.552C224.485 395.435 225.24 394.663 225.24 393.711V332.87C225.24 331.918 224.485 331.146 223.552 331.146Z" fill="#F7F8F8"/>
<path d="M219.479 359.273H223.97C224.671 359.273 225.24 359.85 225.24 360.561V394.147C225.24 394.858 224.671 395.435 223.97 395.435H219.479C218.778 395.435 218.209 394.858 218.209 394.147V360.56C218.209 359.85 218.778 359.273 219.479 359.273Z" fill="#9151E4"/>
<g filter="url(#filter1_d_65_565)">
<path d="M565.787 170.425H359.826C357.617 170.425 355.826 172.216 355.826 174.425V220.668C355.826 222.877 357.617 224.668 359.826 224.668H565.787C567.996 224.668 569.787 222.877 569.787 220.668V174.425C569.787 172.216 567.996 170.425 565.787 170.425Z" fill="white"/>
</g>
<path d="M555.724 210.23C555.694 210.229 555.667 210.222 555.637 210.222H370.894V214.24H555.637C555.667 214.24 555.694 214.233 555.724 214.232V210.23Z" fill="#F1EAFA"/>
<path d="M493.902 210.222H370.953V214.239H493.902V210.222Z" fill="#B993EC"/>
<path d="M499.289 212.249C499.289 208.704 496.396 205.83 492.828 205.83C489.261 205.83 486.367 208.704 486.367 212.249C486.367 215.794 489.26 218.668 492.828 218.668C496.397 218.668 499.289 215.795 499.289 212.249Z" fill="url(#paint3_linear_65_565)"/>
<path d="M498.703 215.165C500.179 211.875 498.709 208.012 495.419 206.537C492.13 205.061 488.267 206.531 486.791 209.82C485.316 213.11 486.786 216.973 490.075 218.449C493.364 219.924 497.228 218.454 498.703 215.165Z" fill="url(#paint4_radial_65_565)"/>
<path d="M495.954 213.931C496.749 212.16 495.957 210.08 494.186 209.286C492.415 208.491 490.335 209.283 489.54 211.054C488.746 212.825 489.537 214.905 491.308 215.7C493.08 216.494 495.16 215.702 495.954 213.931Z" fill="url(#paint5_linear_65_565)"/>
<g filter="url(#filter2_d_65_565)">
<path d="M565.787 235.718H359.826C357.617 235.718 355.826 237.509 355.826 239.718V285.961C355.826 288.171 357.617 289.961 359.826 289.961H565.787C567.996 289.961 569.787 288.171 569.787 285.962V239.718C569.787 237.509 567.996 235.718 565.787 235.718Z" fill="white"/>
</g>
<path d="M555.724 192.524H467.327V195.817H555.724V192.524Z" fill="#E4D6F5"/>
<path d="M459.291 192.524H407.056V195.817H459.291V192.524Z" fill="#EDEEF1"/>
<path d="M396.007 192.524H370.894V195.817H396.007V192.524Z" fill="#EDEEF1"/>
<path d="M555.724 200.56H499.471V203.853H555.724V200.56Z" fill="#EDEEF1"/>
<path d="M490.431 200.56H438.196V203.853H490.431V200.56Z" fill="#EDEEF1"/>
<path d="M429.156 200.56H396.007V203.853H429.156V200.56Z" fill="#EDEEF1"/>
<path d="M386.966 200.56H370.894V203.853H386.966V200.56Z" fill="#EDEEF1"/>
<path d="M555.724 184.488H499.471V187.781H555.724V184.488Z" fill="#EDEEF1"/>
<path d="M490.431 184.488H438.196V187.781H490.431V184.488Z" fill="#EDEEF1"/>
<path d="M428.151 184.488H397.011V187.781H428.151V184.488Z" fill="#E4D6F5"/>
<path d="M386.966 184.973H370.894V188.266H386.966V184.973Z" fill="#EDEEF1"/>
<path d="M555.724 273.897C555.694 273.896 555.667 273.889 555.637 273.889H370.894V277.907H555.637C555.667 277.907 555.694 277.9 555.724 277.899V273.897Z" fill="#F1EAFA"/>
<path d="M445.228 273.889H370.894V277.907H445.228V273.889Z" fill="#B993EC"/>
<path d="M450.263 276.157C450.263 272.612 447.37 269.738 443.802 269.738C440.234 269.738 437.341 272.612 437.341 276.157C437.341 279.702 440.233 282.576 443.802 282.576C447.371 282.576 450.263 279.703 450.263 276.157Z" fill="url(#paint6_linear_65_565)"/>
<path d="M449.677 279.073C451.152 275.783 449.682 271.92 446.393 270.445C443.103 268.969 439.241 270.439 437.765 273.728C436.29 277.018 437.76 280.881 441.049 282.357C444.338 283.832 448.201 282.362 449.677 279.073Z" fill="url(#paint7_radial_65_565)"/>
<path d="M446.928 277.839C447.722 276.068 446.931 273.988 445.159 273.194C443.388 272.399 441.309 273.191 440.514 274.962C439.719 276.733 440.511 278.813 442.282 279.608C444.053 280.402 446.134 279.61 446.928 277.839Z" fill="url(#paint8_linear_65_565)"/>
<path d="M555.724 256.813H467.327V260.106H555.724V256.813Z" fill="#EDEEF1"/>
<path d="M460.295 256.813H407.056V260.106H460.295V256.813Z" fill="#E4D6F5"/>
<path d="M397.011 256.813H370.894V260.106H397.011V256.813Z" fill="#EDEEF1"/>
<path d="M555.724 264.849H499.471V268.142H555.724V264.849Z" fill="#EDEEF1"/>
<path d="M490.43 264.849H437.192V268.142H490.43V264.849Z" fill="#EDEEF1"/>
<path d="M429.155 264.849H393.998C394.006 265.659 393.998 265.587 393.998 266.496C393.998 267.403 394.006 267.305 393.998 268.142C394.921 268.142 429.155 268.142 429.155 268.142V264.849Z" fill="#EDEEF1"/>
<path d="M389.98 264.849H370.894V268.142C370.894 268.142 389.054 268.142 389.98 268.142C389.98 266.496 389.98 267.403 389.98 266.496C389.98 265.587 389.98 266.31 389.98 264.849Z" fill="#EDEEF1"/>
<path d="M555.724 248.777H499.471V252.07H555.724V248.777Z" fill="#E4D6F5"/>
<path d="M490.43 248.777H437.192V252.07H490.43V248.777Z" fill="#EDEEF1"/>
<path d="M429.156 248.777H397.011V252.07H429.156V248.777Z" fill="#EDEEF1"/>
<path d="M387.971 248.777H370.894V252.07H387.971V248.777Z" fill="#EDEEF1"/>
<path d="M341.781 170.425H292.524C290.315 170.425 288.524 172.216 288.524 174.425V220.668C288.524 222.877 290.315 224.668 292.524 224.668H341.781C343.99 224.668 345.781 222.877 345.781 220.668V174.425C345.781 172.216 343.99 170.425 341.781 170.425Z" fill="#F6F7F9"/>
<path d="M341.781 235.718H292.524C290.315 235.718 288.524 237.509 288.524 239.718V285.961C288.524 288.171 290.315 289.961 292.524 289.961H341.781C343.99 289.961 345.781 288.171 345.781 285.962V239.718C345.781 237.509 343.99 235.718 341.781 235.718Z" fill="#F6F7F9"/>
<path d="M301.637 200.849C302.012 202.849 302.8 204.704 303.903 206.34L301.031 209.213L305.006 213.165L307.853 210.316C309.489 211.419 311.343 212.208 313.355 212.583V216.632H318.954V212.583C320.953 212.208 322.819 211.42 324.443 210.316L327.303 213.165L331.266 209.213L328.406 206.34C329.509 204.704 330.284 202.849 330.672 200.849H334.732V195.261H330.66C330.284 193.26 329.496 191.394 328.394 189.769L331.266 186.896L327.303 182.932L324.443 185.794C322.819 184.69 320.953 183.902 318.954 183.514V179.466H313.355V183.514C311.343 183.902 309.489 184.69 307.866 185.794L305.005 182.932L301.031 186.896L303.903 189.769C302.8 191.394 302.024 193.26 301.636 195.261H297.565V200.849H301.637ZM309.042 198.061C309.042 194.136 312.219 190.934 316.154 190.934C320.078 190.934 323.255 194.136 323.255 198.061C323.255 201.973 320.077 205.163 316.154 205.163C312.219 205.163 309.042 201.973 309.042 198.061Z" fill="#9151E4"/>
<path d="M301.583 261.084C302.483 261.035 303.154 260.843 303.595 260.505C304.036 260.169 304.363 259.61 304.579 258.83C304.726 258.284 304.799 257.118 304.799 255.333C304.799 253.792 304.885 252.663 305.056 251.945C305.228 251.228 305.552 250.623 306.033 250.13C306.512 249.638 307.105 249.289 307.81 249.085C308.514 248.879 309.528 248.777 310.85 248.777H311.628V252.274C310.521 252.274 309.809 252.34 309.491 252.472C309.173 252.603 308.953 252.792 308.83 253.035C308.708 253.279 308.642 253.767 308.632 254.499C308.583 256.82 308.505 258.323 308.397 259.005C308.231 260 307.917 260.82 307.457 261.464C307.125 261.913 306.596 262.372 305.871 262.839C306.429 263.161 306.887 263.535 307.244 263.959C307.602 264.383 307.888 264.901 308.104 265.51C308.319 266.12 308.451 266.932 308.5 267.948C308.578 269.625 308.62 270.761 308.625 271.357C308.629 271.951 308.708 272.373 308.86 272.622C309.011 272.871 309.248 273.061 309.572 273.193C309.895 273.325 310.58 273.391 311.628 273.391V276.903H310.85C309.568 276.903 308.628 276.815 308.03 276.639C307.139 276.376 306.464 276.017 306.004 275.563C305.543 275.11 305.228 274.507 305.056 273.756C304.885 273.005 304.8 271.684 304.8 269.791C304.8 268.639 304.76 267.831 304.682 267.362C304.574 266.737 304.39 266.218 304.13 265.803C303.872 265.388 303.561 265.094 303.198 264.918C302.836 264.742 302.297 264.635 301.583 264.596L301.583 261.084Z" fill="#9151E4"/>
<path d="M332.723 264.595C331.822 264.644 331.151 264.837 330.711 265.174C330.27 265.511 329.942 266.069 329.727 266.85C329.579 267.395 329.506 268.561 329.506 270.346C329.506 271.887 329.421 273.017 329.25 273.734C329.078 274.451 328.753 275.056 328.272 275.549C327.794 276.041 327.2 276.39 326.495 276.595C325.791 276.8 324.777 276.903 323.456 276.903H322.678V273.405C323.784 273.405 324.496 273.339 324.814 273.208C325.133 273.076 325.353 272.888 325.476 272.644C325.597 272.4 325.663 271.913 325.673 271.181C325.722 268.859 325.801 267.356 325.909 266.674C326.074 265.679 326.389 264.859 326.848 264.215C327.181 263.766 327.71 263.308 328.434 262.84C327.876 262.518 327.418 262.145 327.061 261.721C326.704 261.296 326.417 260.779 326.201 260.169C325.987 259.559 325.855 258.747 325.805 257.732C325.727 256.054 325.685 254.918 325.681 254.323C325.676 253.728 325.597 253.306 325.446 253.057C325.294 252.808 325.057 252.618 324.734 252.486C324.41 252.355 323.726 252.289 322.677 252.289V248.777H323.455C324.738 248.777 325.678 248.865 326.276 249.04C327.167 249.304 327.842 249.662 328.302 250.116C328.762 250.569 329.078 251.172 329.249 251.924C329.42 252.674 329.506 253.996 329.506 255.889C329.506 257.04 329.545 257.849 329.623 258.317C329.731 258.942 329.915 259.462 330.175 259.877C330.434 260.291 330.744 260.586 331.108 260.761C331.469 260.937 332.008 261.045 332.722 261.084L332.723 264.595Z" fill="#9151E4"/>
<g filter="url(#filter3_d_65_565)">
<path d="M231.285 101.114H33.361C31.1518 101.114 29.361 102.905 29.361 105.114V258.84C29.361 261.049 31.1518 262.84 33.361 262.84H231.285C233.494 262.84 235.285 261.049 235.285 258.84V105.114C235.285 102.905 233.494 101.114 231.285 101.114Z" fill="white"/>
</g>
<path d="M115.749 143.303H184.055V142.298V141.294H115.749V142.298V143.303Z" fill="#E4D6F5"/>
<path d="M60.5007 143.303H84.6089V142.298V141.294H60.5007V142.298V143.303Z" fill="#E4D6F5"/>
<path d="M184.055 149.33H140.861V151.339H184.055V149.33Z" fill="#B993EC"/>
<path d="M60.5007 151.339H131.821V149.33H60.5007V151.339Z" fill="#B993EC"/>
<path d="M188.073 182.479H124.789V184.488H188.073V182.479Z" fill="#E4D6F5"/>
<path d="M115.749 182.479H73.5593V184.488H115.749V182.479Z" fill="#E4D6F5"/>
<path d="M138.852 190.515H73.5593V192.524H138.852V190.515Z" fill="#B993EC"/>
<path d="M202.136 198.551H138.852V200.571H202.136V198.551Z" fill="#E4D6F5"/>
<path d="M129.812 198.551H88.6271V200.571H129.812V198.551Z" fill="#E4D6F5"/>
<path d="M202.137 207.592H161.956V209.601H202.137V207.592Z" fill="#B993EC"/>
<path d="M153.92 207.592H88.6271V209.601H153.92V207.592Z" fill="#E4D6F5"/>
<path d="M192.091 157.366H133.83V159.375H192.091V157.366Z" fill="#E4D6F5"/>
<path d="M125.794 157.366H85.6134V159.375H125.794V157.366Z" fill="#E4D6F5"/>
<path d="M192.091 167.411V165.402H152.916V167.411H192.091Z" fill="#E4D6F5"/>
<path d="M146.888 165.402H86.6179V167.411H146.888V165.402Z" fill="#B993EC"/>
<path d="M184.055 222.659H115.749V224.668H184.055V222.659Z" fill="#E4D6F5"/>
<path d="M82.5999 222.659H61.5052V224.668H82.5999V222.659Z" fill="#E4D6F5"/>
<path d="M184.055 231.7H140.861V233.709H184.055V231.7Z" fill="#E4D6F5"/>
<path d="M130.816 231.7H61.5052V233.709H130.816V231.7Z" fill="#B993EC"/>
<path d="M192.091 239.736H133.83V241.745H192.091V239.736Z" fill="#E4D6F5"/>
<path d="M124.789 239.736H85.6134V241.745H124.789V239.736Z" fill="#E4D6F5"/>
<path d="M192.091 247.772H153.92V249.781H192.091V247.772Z" fill="#E4D6F5"/>
<path d="M146.888 247.772H85.6134V249.781H146.888V247.772Z" fill="#E4D6F5"/>
<path d="M219.213 204.514C218.57 204.546 218.085 204.634 217.759 204.778C217.433 204.923 217.153 205.165 216.92 205.505C216.687 205.846 216.521 206.273 216.424 206.786C216.354 207.171 216.318 207.835 216.318 208.781C216.318 210.336 216.242 211.421 216.087 212.038C215.933 212.656 215.649 213.15 215.235 213.523C214.82 213.896 214.213 214.19 213.411 214.407C212.873 214.551 212.027 214.623 210.873 214.623H210.173V211.738C211.116 211.738 211.732 211.684 212.023 211.576C212.314 211.468 212.527 211.311 212.664 211.107C212.8 210.903 212.872 210.556 212.875 210.068C212.879 209.578 212.917 208.645 212.988 207.267C213.032 206.433 213.151 205.766 213.344 205.265C213.539 204.764 213.796 204.339 214.118 203.991C214.439 203.642 214.852 203.336 215.353 203.071C214.701 202.687 214.226 202.31 213.926 201.941C213.512 201.413 213.23 200.739 213.081 199.922C212.984 199.361 212.913 198.127 212.869 196.22C212.859 195.618 212.8 195.218 212.691 195.018C212.58 194.818 212.382 194.663 212.096 194.555C211.809 194.447 211.168 194.393 210.173 194.393V191.52H210.873C212.062 191.52 212.975 191.604 213.609 191.772C214.243 191.94 214.777 192.227 215.208 192.631C215.64 193.037 215.933 193.533 216.087 194.122C216.242 194.711 216.318 195.639 216.318 196.905C216.318 198.372 216.384 199.329 216.516 199.778C216.71 200.419 217.006 200.878 217.402 201.154C217.799 201.431 218.403 201.589 219.213 201.629V204.514Z" fill="#E4D6F5"/>
<path d="M58.4917 186.562C59.2121 186.522 59.749 186.364 60.1011 186.086C60.4539 185.81 60.7159 185.351 60.8884 184.71C61.0064 184.262 61.0648 183.304 61.0648 181.838C61.0648 180.572 61.1331 179.644 61.2701 179.055C61.4074 178.466 61.6673 177.969 62.0518 177.564C62.4349 177.159 62.9095 176.873 63.4736 176.705C64.0369 176.537 64.8478 176.452 65.9052 176.452H66.5276V179.325C65.6425 179.325 65.0729 179.379 64.8182 179.487C64.5638 179.595 64.3877 179.75 64.2891 179.95C64.192 180.15 64.1391 180.551 64.1311 181.152C64.0923 183.059 64.0293 184.294 63.9427 184.854C63.8103 185.672 63.5589 186.345 63.1913 186.874C62.9247 187.243 62.5018 187.619 61.9227 188.004C62.3688 188.268 62.735 188.575 63.0209 188.923C63.3067 189.271 63.536 189.697 63.7085 190.198C63.8803 190.698 63.9862 191.365 64.0257 192.199C64.088 193.577 64.1215 194.511 64.1251 195C64.129 195.489 64.192 195.835 64.3131 196.04C64.4349 196.244 64.6244 196.4 64.8829 196.508C65.1416 196.616 65.6895 196.671 66.5278 196.671V199.556H65.9053C64.8797 199.556 64.1275 199.483 63.6491 199.339C62.9364 199.123 62.3967 198.828 62.0284 198.455C61.6601 198.083 61.4076 197.588 61.2704 196.971C61.1334 196.354 61.0651 195.268 61.0651 193.713C61.0651 192.768 61.0333 192.103 60.9711 191.719C60.8848 191.205 60.7376 190.778 60.5299 190.438C60.3229 190.097 60.0742 189.855 59.7838 189.711C59.4944 189.567 59.0634 189.478 58.4919 189.446L58.4917 186.562Z" fill="#F1EBFA"/>
<path d="M209.168 246.703C208.596 246.736 208.165 246.824 207.876 246.968C207.586 247.112 207.337 247.354 207.13 247.695C206.922 248.036 206.775 248.463 206.689 248.976C206.626 249.36 206.594 250.025 206.594 250.97C206.594 252.525 206.526 253.611 206.389 254.228C206.252 254.845 206 255.34 205.631 255.713C205.263 256.086 204.723 256.38 204.01 256.597C203.532 256.741 202.78 256.813 201.754 256.813H201.132V253.928C201.97 253.928 202.518 253.874 202.777 253.766C203.035 253.657 203.225 253.501 203.347 253.297C203.468 253.092 203.531 252.746 203.534 252.257C203.538 251.768 203.571 250.835 203.634 249.456C203.673 248.623 203.779 247.955 203.951 247.455C204.124 246.954 204.353 246.529 204.639 246.18C204.925 245.832 205.291 245.525 205.737 245.261C205.158 244.876 204.735 244.499 204.469 244.131C204.101 243.602 203.85 242.929 203.717 242.111C203.631 241.55 203.568 240.316 203.529 238.409C203.521 237.808 203.468 237.408 203.371 237.207C203.272 237.007 203.096 236.852 202.842 236.744C202.587 236.636 202.017 236.582 201.132 236.582V233.709H201.755C202.812 233.709 203.623 233.793 204.186 233.962C204.75 234.13 205.225 234.416 205.608 234.821C205.992 235.226 206.252 235.722 206.389 236.311C206.527 236.901 206.595 237.828 206.595 239.095C206.595 240.561 206.653 241.518 206.771 241.967C206.944 242.608 207.206 243.067 207.559 243.344C207.911 243.621 208.448 243.779 209.168 243.819L209.168 246.703Z" fill="#F1EBFA"/>
<path d="M43.4241 228.186C44.1445 228.144 44.6815 227.979 45.0335 227.69C45.3863 227.402 45.6483 226.923 45.8208 226.254C45.9388 225.786 45.9973 224.787 45.9973 223.257C45.9973 221.936 46.0656 220.968 46.2025 220.353C46.3399 219.738 46.5998 219.22 46.9842 218.797C47.3673 218.375 47.8419 218.076 48.406 217.901C48.9694 217.725 49.7804 217.637 50.8377 217.637H51.4601V220.635C50.575 220.635 50.0053 220.692 49.7507 220.804C49.4962 220.917 49.3201 221.078 49.2216 221.287C49.1243 221.496 49.0715 221.914 49.0634 222.542C49.0243 224.531 48.9617 225.819 48.875 226.404C48.7426 227.257 48.4912 227.96 48.1236 228.512C47.8574 228.897 47.4341 229.29 46.8546 229.691C47.3011 229.966 47.6673 230.287 47.9532 230.65C48.239 231.014 48.4683 231.458 48.6408 231.98C48.8126 232.503 48.9182 233.199 48.9581 234.069C49.0204 235.507 49.0538 236.481 49.0574 236.991C49.0613 237.501 49.1243 237.862 49.2454 238.076C49.3669 238.289 49.5563 238.452 49.8151 238.565C50.0739 238.678 50.6217 238.735 51.46 238.735V241.745H50.8376C49.8119 241.745 49.0597 241.67 48.5813 241.519C47.8686 241.293 47.3285 240.986 46.9606 240.597C46.5923 240.208 46.3399 239.692 46.2025 239.048C46.0656 238.404 45.9973 237.271 45.9973 235.649C45.9973 234.662 45.9655 233.969 45.9032 233.567C45.817 233.032 45.6698 232.586 45.4621 232.231C45.2551 231.875 45.0064 231.623 44.716 231.472C44.4265 231.322 43.9956 231.23 43.4241 231.196V228.186Z" fill="#E4D6F5"/>
<path d="M45.4331 146.381C46.1533 146.341 46.6902 146.183 47.0426 145.906C47.3951 145.63 47.6573 145.171 47.83 144.53C47.9476 144.081 48.0063 143.124 48.0063 141.657C48.0063 140.391 48.0746 139.463 48.2116 138.874C48.3486 138.285 48.6088 137.789 48.9929 137.383C49.3764 136.979 49.8507 136.692 50.4147 136.524C50.978 136.356 51.7893 136.272 52.8464 136.272H53.4689V139.145C52.5841 139.145 52.014 139.199 51.7598 139.307C51.5054 139.415 51.3293 139.57 51.2307 139.77C51.1335 139.97 51.0807 140.37 51.0723 140.972C51.0335 142.879 50.9705 144.113 50.8843 144.674C50.7515 145.491 50.5004 146.165 50.1328 146.694C49.8663 147.062 49.4434 147.439 48.864 147.823C49.31 148.088 49.6765 148.394 49.9625 148.743C50.248 149.091 50.4773 149.516 50.6498 150.017C50.822 150.518 50.9277 151.185 50.9671 152.019C51.0297 153.397 51.0632 154.33 51.0668 154.82C51.0706 155.308 51.1336 155.655 51.2544 155.859C51.3763 156.064 51.5658 156.22 51.8245 156.328C52.0829 156.436 52.6311 156.491 53.4692 156.491V159.375H52.8466C51.821 159.375 51.0692 159.303 50.5906 159.159C49.878 158.942 49.3379 158.648 48.9695 158.275C48.6012 157.903 48.3487 157.408 48.2118 156.79C48.0749 156.173 48.0066 155.088 48.0066 153.533C48.0066 152.588 47.975 151.923 47.9122 151.538C47.8259 151.025 47.6787 150.598 47.4714 150.257C47.2644 149.917 47.0158 149.675 46.7253 149.531C46.4354 149.386 46.0049 149.298 45.4334 149.266L45.4331 146.381Z" fill="#E4D6F5"/>
<path d="M209.168 164.334C208.596 164.366 208.165 164.454 207.876 164.598C207.585 164.742 207.337 164.985 207.13 165.325C206.922 165.666 206.775 166.093 206.689 166.606C206.626 166.991 206.594 167.655 206.594 168.601C206.594 170.156 206.526 171.241 206.389 171.858C206.252 172.475 206 172.97 205.631 173.342C205.263 173.716 204.723 174.01 204.01 174.226C203.532 174.37 202.78 174.443 201.754 174.443H201.132V171.558C201.97 171.558 202.518 171.504 202.777 171.396C203.035 171.287 203.225 171.131 203.347 170.927C203.468 170.722 203.531 170.376 203.534 169.887C203.538 169.398 203.571 168.465 203.634 167.087C203.673 166.253 203.779 165.586 203.951 165.085C204.124 164.584 204.353 164.159 204.639 163.81C204.925 163.462 205.291 163.155 205.737 162.891C205.158 162.507 204.735 162.13 204.469 161.761C204.101 161.232 203.85 160.559 203.717 159.741C203.631 159.181 203.568 157.947 203.529 156.04C203.521 155.438 203.468 155.038 203.371 154.838C203.272 154.637 203.096 154.483 202.842 154.375C202.587 154.267 202.017 154.213 201.132 154.213V151.339H201.755C202.812 151.339 203.623 151.423 204.186 151.592C204.75 151.76 205.225 152.047 205.608 152.451C205.992 152.856 206.252 153.353 206.389 153.942C206.527 154.531 206.595 155.459 206.595 156.725C206.595 158.192 206.653 159.149 206.771 159.597C206.944 160.238 207.206 160.698 207.559 160.973C207.911 161.25 208.448 161.409 209.168 161.449L209.168 164.334Z" fill="#F1EBFA"/>
<path d="M27.3519 125.222H234.281" stroke="url(#paint9_linear_65_565)" stroke-width="0.2394" stroke-miterlimit="10"/>
<path d="M44.9308 117.186C46.8725 117.186 48.4466 115.612 48.4466 113.67C48.4466 111.728 46.8725 110.154 44.9308 110.154C42.9891 110.154 41.415 111.728 41.415 113.67C41.415 115.612 42.9891 117.186 44.9308 117.186Z" fill="#EF3333"/>
<path d="M58.3118 117.186C60.2535 117.186 61.8276 115.612 61.8276 113.67C61.8276 111.728 60.2535 110.154 58.3118 110.154C56.3701 110.154 54.796 111.728 54.796 113.67C54.796 115.612 56.3701 117.186 58.3118 117.186Z" fill="#EDA43A"/>
<path d="M72.3603 116.912C74.1792 116.912 75.6536 115.437 75.6536 113.618C75.6536 111.799 74.1792 110.325 72.3603 110.325C70.5415 110.325 69.067 111.799 69.067 113.618C69.067 115.437 70.5415 116.912 72.3603 116.912Z" fill="#5ACC52"/>
<g filter="url(#filter4_d_65_565)">
<path d="M551.706 60.6095C551.706 48.2255 541.594 38.1861 529.121 38.1861C527.459 38.1861 525.844 38.3761 524.285 38.7142C522.909 24.6861 511 13.7216 496.51 13.7216C482.875 13.7216 471.531 23.4303 469.091 36.263C468.156 36.094 467.196 35.9926 466.212 35.9926C457.592 35.9926 450.583 42.7574 450.229 51.2284H450.21C450.205 51.2284 450.2 51.2284 450.195 51.2284C441.349 51.2284 434.178 58.348 434.178 67.1305C434.178 75.913 441.349 83.0327 450.195 83.0327C450.438 83.0327 450.674 83.0072 450.914 82.9965H528.401C528.642 83.0041 528.878 83.0327 529.121 83.0327C529.364 83.0327 529.599 83.0041 529.84 82.9965H530.39V82.969C542.269 82.3115 551.706 72.568 551.706 60.6095Z" fill="white"/>
</g>
<path d="M377.926 119.195V49.8838H447.237" stroke="#736CEC" stroke-miterlimit="10" stroke-dasharray="4 8"/>
</g>
</g>
<defs>
<filter id="filter0_d_65_565" x="33.415" y="296.007" width="214.893" height="121.473" filterUnits="userSpaceOnUse" color-interpolation-filters="sRGB">
<feFlood flood-opacity="0" result="BackgroundImageFix"/>
<feColorMatrix in="SourceAlpha" type="matrix" values="0 0 0 0 0 0 0 0 0 0 0 0 0 0 0 0 0 0 127 0" result="hardAlpha"/>
<feOffset dy="4"/>
<feGaussianBlur stdDeviation="4"/>
<feComposite in2="hardAlpha" operator="out"/>
<feColorMatrix type="matrix" values="0 0 0 0 0 0 0 0 0 0 0 0 0 0 0 0 0 0 0.03 0"/>
<feBlend mode="normal" in2="BackgroundImageFix" result="effect1_dropShadow_65_565"/>
<feBlend mode="normal" in="SourceGraphic" in2="effect1_dropShadow_65_565" result="shape"/>
</filter>
<filter id="filter1_d_65_565" x="349.826" y="166.425" width="225.96" height="66.2435" filterUnits="userSpaceOnUse" color-interpolation-filters="sRGB">
<feFlood flood-opacity="0" result="BackgroundImageFix"/>
<feColorMatrix in="SourceAlpha" type="matrix" values="0 0 0 0 0 0 0 0 0 0 0 0 0 0 0 0 0 0 127 0" result="hardAlpha"/>
<feOffset dy="2"/>
<feGaussianBlur stdDeviation="3"/>
<feComposite in2="hardAlpha" operator="out"/>
<feColorMatrix type="matrix" values="0 0 0 0 0 0 0 0 0 0 0 0 0 0 0 0 0 0 0.05 0"/>
<feBlend mode="normal" in2="BackgroundImageFix" result="effect1_dropShadow_65_565"/>
<feBlend mode="normal" in="SourceGraphic" in2="effect1_dropShadow_65_565" result="shape"/>
</filter>
<filter id="filter2_d_65_565" x="349.826" y="231.718" width="225.96" height="66.2435" filterUnits="userSpaceOnUse" color-interpolation-filters="sRGB">
<feFlood flood-opacity="0" result="BackgroundImageFix"/>
<feColorMatrix in="SourceAlpha" type="matrix" values="0 0 0 0 0 0 0 0 0 0 0 0 0 0 0 0 0 0 127 0" result="hardAlpha"/>
<feOffset dy="2"/>
<feGaussianBlur stdDeviation="3"/>
<feComposite in2="hardAlpha" operator="out"/>
<feColorMatrix type="matrix" values="0 0 0 0 0 0 0 0 0 0 0 0 0 0 0 0 0 0 0.05 0"/>
<feBlend mode="normal" in2="BackgroundImageFix" result="effect1_dropShadow_65_565"/>
<feBlend mode="normal" in="SourceGraphic" in2="effect1_dropShadow_65_565" result="shape"/>
</filter>
<filter id="filter3_d_65_565" x="21.361" y="97.1138" width="221.924" height="177.726" filterUnits="userSpaceOnUse" color-interpolation-filters="sRGB">
<feFlood flood-opacity="0" result="BackgroundImageFix"/>
<feColorMatrix in="SourceAlpha" type="matrix" values="0 0 0 0 0 0 0 0 0 0 0 0 0 0 0 0 0 0 127 0" result="hardAlpha"/>
<feOffset dy="4"/>
<feGaussianBlur stdDeviation="4"/>
<feComposite in2="hardAlpha" operator="out"/>
<feColorMatrix type="matrix" values="0 0 0 0 0 0 0 0 0 0 0 0 0 0 0 0 0 0 0.03 0"/>
<feBlend mode="normal" in2="BackgroundImageFix" result="effect1_dropShadow_65_565"/>
<feBlend mode="normal" in="SourceGraphic" in2="effect1_dropShadow_65_565" result="shape"/>
</filter>
<filter id="filter4_d_65_565" x="426.178" y="8.72156" width="133.527" height="85.3112" filterUnits="userSpaceOnUse" color-interpolation-filters="sRGB">
<feFlood flood-opacity="0" result="BackgroundImageFix"/>
<feColorMatrix in="SourceAlpha" type="matrix" values="0 0 0 0 0 0 0 0 0 0 0 0 0 0 0 0 0 0 127 0" result="hardAlpha"/>
<feOffset dy="3"/>
<feGaussianBlur stdDeviation="4"/>
<feComposite in2="hardAlpha" operator="out"/>
<feColorMatrix type="matrix" values="0 0 0 0 0.8875 0 0 0 0 0.8875 0 0 0 0 0.8875 0 0 0 0.05 0"/>
<feBlend mode="normal" in2="BackgroundImageFix" result="effect1_dropShadow_65_565"/>
<feBlend mode="normal" in="SourceGraphic" in2="effect1_dropShadow_65_565" result="shape"/>
</filter>
<linearGradient id="paint0_linear_65_565" x1="297.917" y1="433.768" x2="297.917" y2="342.282" gradientUnits="userSpaceOnUse">
<stop stop-color="#ADB5BD"/>
<stop offset="1" stop-color="#343A40"/>
</linearGradient>
<linearGradient id="paint1_linear_65_565" x1="-nan" y1="-nan" x2="-nan" y2="-nan" gradientUnits="userSpaceOnUse">
<stop stop-color="#D2CFE5"/>
<stop offset="0.3205" stop-color="#CECBE2"/>
<stop offset="0.5761" stop-color="#C4C1DB"/>
<stop offset="0.8087" stop-color="#B4B1CE"/>
<stop offset="1" stop-color="#A09DBF"/>
</linearGradient>
<linearGradient id="paint2_linear_65_565" x1="-nan" y1="-nan" x2="-nan" y2="-nan" gradientUnits="userSpaceOnUse">
<stop stop-color="#D2CFE5"/>
<stop offset="0.3205" stop-color="#CECBE2"/>
<stop offset="0.5761" stop-color="#C4C1DB"/>
<stop offset="0.8087" stop-color="#B4B1CE"/>
<stop offset="1" stop-color="#A09DBF"/>
</linearGradient>
<linearGradient id="paint3_linear_65_565" x1="488.649" y1="208.097" x2="496.998" y2="216.502" gradientUnits="userSpaceOnUse">
<stop stop-color="white"/>
<stop offset="0.3719" stop-color="#ECEAF2"/>
<stop offset="0.9976" stop-color="#C7BFDA"/>
<stop offset="1" stop-color="#C7BFDA"/>
</linearGradient>
<radialGradient id="paint4_radial_65_565" cx="0" cy="0" r="1" gradientUnits="userSpaceOnUse" gradientTransform="translate(488.398 207.637) scale(9.17874 9.17874)">
<stop stop-color="#D3D5D8"/>
<stop offset="1" stop-color="white"/>
</radialGradient>
<linearGradient id="paint5_linear_65_565" x1="489.231" y1="212.493" x2="496.263" y2="212.493" gradientUnits="userSpaceOnUse">
<stop stop-color="#CCA0F9"/>
<stop offset="1" stop-color="#736CEC"/>
</linearGradient>
<linearGradient id="paint6_linear_65_565" x1="439.622" y1="272.005" x2="447.971" y2="280.41" gradientUnits="userSpaceOnUse">
<stop stop-color="white"/>
<stop offset="0.3719" stop-color="#ECEAF2"/>
<stop offset="0.9976" stop-color="#C7BFDA"/>
<stop offset="1" stop-color="#C7BFDA"/>
</linearGradient>
<radialGradient id="paint7_radial_65_565" cx="0" cy="0" r="1" gradientUnits="userSpaceOnUse" gradientTransform="translate(439.372 271.545) scale(9.17874 9.17874)">
<stop stop-color="#D3D5D8"/>
<stop offset="1" stop-color="white"/>
</radialGradient>
<linearGradient id="paint8_linear_65_565" x1="440.205" y1="276.401" x2="447.237" y2="276.401" gradientUnits="userSpaceOnUse">
<stop stop-color="#CCA0F9"/>
<stop offset="1" stop-color="#736CEC"/>
</linearGradient>
<linearGradient id="paint9_linear_65_565" x1="-nan" y1="-nan" x2="-nan" y2="-nan" gradientUnits="userSpaceOnUse">
<stop stop-color="#D2CFE5"/>
<stop offset="0.3205" stop-color="#CECBE2"/>
<stop offset="0.5761" stop-color="#C4C1DB"/>
<stop offset="0.8087" stop-color="#B4B1CE"/>
<stop offset="1" stop-color="#A09DBF"/>
</linearGradient>
<clipPath id="clip0_65_565">
<rect width="624" height="487" fill="white"/>
</clipPath>
<clipPath id="clip1_65_565">
<rect width="544.492" height="464.355" fill="white" transform="translate(26.2542 -11.5271)"/>
</clipPath>
</defs>
</svg>
