<svg width="582" height="438" viewBox="0 0 582 438" fill="none" xmlns="http://www.w3.org/2000/svg">
<g clip-path="url(#clip0_434_4929)">
<path d="M378.655 363.916C378.35 363.916 378.276 363.851 378.143 363.736L378.629 363.178L378.584 362.44C378.59 362.439 379.282 362.388 380.488 362.222C380.896 362.163 381.266 362.45 381.321 362.854C381.376 363.259 381.094 363.632 380.689 363.687C379.542 363.845 378.973 363.916 378.655 363.916ZM390.007 361.657C389.687 361.657 389.392 361.448 389.297 361.125C389.182 360.733 389.407 360.322 389.799 360.207C391.462 359.719 393.096 359.169 394.655 358.571C395.038 358.427 395.464 358.616 395.611 358.996C395.758 359.378 395.567 359.806 395.186 359.952C393.588 360.565 391.916 361.128 390.215 361.627C390.146 361.647 390.076 361.657 390.007 361.657ZM403.572 355.806C403.323 355.806 403.078 355.679 402.939 355.449C402.727 355.1 402.839 354.645 403.189 354.433C404.671 353.536 406.084 352.568 407.389 351.556C407.711 351.306 408.176 351.364 408.427 351.688C408.677 352.01 408.618 352.475 408.295 352.725C406.947 353.772 405.486 354.772 403.955 355.699C403.835 355.771 403.703 355.806 403.572 355.806ZM414.637 346.121C414.48 346.121 414.321 346.071 414.186 345.968C413.863 345.718 413.803 345.253 414.052 344.929C415.085 343.592 416.02 342.172 416.833 340.709C417.031 340.352 417.482 340.221 417.838 340.421C418.195 340.619 418.324 341.069 418.126 341.427C417.278 342.955 416.301 344.438 415.224 345.834C415.078 346.022 414.859 346.121 414.637 346.121ZM420.925 332.885C420.868 332.885 420.81 332.878 420.753 332.864C420.355 332.77 420.11 332.37 420.205 331.973C420.589 330.368 420.875 328.688 421.057 326.98C421.1 326.573 421.456 326.277 421.87 326.322C422.277 326.365 422.571 326.73 422.527 327.136C422.34 328.907 422.042 330.65 421.644 332.317C421.563 332.656 421.26 332.885 420.925 332.885ZM422.105 318.204C422.095 318.204 422.084 318.204 422.074 318.203C421.666 318.186 421.349 317.842 421.365 317.434C421.436 315.715 421.562 313.961 421.741 312.221C421.783 311.816 422.14 311.535 422.553 311.561C422.959 311.603 423.254 311.967 423.213 312.373C423.037 314.082 422.913 315.805 422.843 317.494C422.827 317.892 422.499 318.204 422.105 318.204ZM423.986 303.541C423.935 303.541 423.883 303.536 423.83 303.524C423.431 303.438 423.177 303.046 423.263 302.646C423.625 300.963 424.043 299.256 424.506 297.573C424.614 297.179 425.02 296.945 425.415 297.057C425.809 297.165 426.04 297.572 425.932 297.966C425.477 299.622 425.065 301.301 424.709 302.957C424.634 303.304 424.328 303.541 423.986 303.541ZM428.241 289.381C428.152 289.381 428.061 289.365 427.974 289.331C427.592 289.183 427.404 288.755 427.551 288.374C428.177 286.76 428.856 285.141 429.571 283.56C429.739 283.188 430.179 283.022 430.549 283.191C430.922 283.359 431.087 283.797 430.919 284.169C430.216 285.726 429.547 287.32 428.931 288.909C428.817 289.202 428.537 289.381 428.241 289.381ZM434.629 276.047C434.504 276.047 434.377 276.016 434.26 275.948C433.906 275.744 433.785 275.292 433.99 274.938C434.857 273.435 435.774 271.939 436.715 270.49C436.937 270.147 437.396 270.05 437.738 270.272C438.081 270.495 438.178 270.954 437.956 271.296C437.028 272.723 436.125 274.197 435.271 275.678C435.134 275.915 434.885 276.047 434.629 276.047ZM442.97 263.844C442.807 263.844 442.644 263.791 442.507 263.681C442.189 263.425 442.138 262.959 442.394 262.641C443.485 261.284 444.622 259.946 445.771 258.667C446.045 258.363 446.513 258.338 446.815 258.61C447.119 258.883 447.145 259.351 446.872 259.655C445.74 260.914 444.622 262.231 443.547 263.568C443.401 263.75 443.186 263.844 442.97 263.844ZM453.111 253.098C452.908 253.098 452.707 253.016 452.561 252.853C452.288 252.55 452.312 252.082 452.616 251.809C453.904 250.647 455.244 249.512 456.595 248.432C456.915 248.177 457.38 248.23 457.635 248.549C457.889 248.868 457.838 249.333 457.518 249.588C456.189 250.649 454.873 251.766 453.605 252.908C453.464 253.035 453.287 253.098 453.111 253.098ZM464.893 244.189C464.647 244.189 464.406 244.067 464.266 243.842C464.049 243.495 464.154 243.039 464.5 242.823C465.98 241.897 467.499 241.013 469.015 240.196C469.373 240 469.822 240.136 470.017 240.495C470.211 240.854 470.077 241.304 469.717 241.497C468.23 242.301 466.738 243.168 465.285 244.077C465.163 244.153 465.027 244.189 464.893 244.189ZM478.087 237.553C477.791 237.553 477.512 237.374 477.398 237.082C477.25 236.701 477.439 236.272 477.82 236.124C479.441 235.494 481.103 234.914 482.757 234.399C483.15 234.28 483.563 234.496 483.683 234.886C483.805 235.276 483.587 235.691 483.197 235.812C481.574 236.317 479.945 236.885 478.356 237.503C478.267 237.537 478.177 237.553 478.087 237.553ZM492.228 233.219C491.916 233.219 491.626 233.021 491.524 232.708C491.398 232.32 491.61 231.902 491.999 231.776C493.657 231.236 495.272 230.643 496.8 230.012C497.176 229.856 497.609 230.035 497.765 230.413C497.921 230.791 497.742 231.223 497.364 231.379C495.801 232.024 494.15 232.632 492.457 233.183C492.381 233.208 492.304 233.219 492.228 233.219ZM505.599 227.021C505.357 227.021 505.119 226.902 504.977 226.682C504.756 226.339 504.854 225.882 505.198 225.66C506.649 224.722 508.026 223.71 509.29 222.653C509.604 222.39 510.071 222.433 510.332 222.745C510.594 223.058 510.553 223.525 510.24 223.787C508.929 224.884 507.503 225.932 505.999 226.902C505.876 226.983 505.737 227.021 505.599 227.021ZM516.238 216.899C516.094 216.899 515.948 216.857 515.82 216.769C515.484 216.538 515.398 216.078 515.628 215.741C516.587 214.342 517.43 212.866 518.134 211.358C518.307 210.988 518.748 210.829 519.117 211C519.488 211.173 519.647 211.613 519.475 211.983C518.736 213.565 517.853 215.111 516.849 216.577C516.705 216.786 516.474 216.899 516.238 216.899ZM521.442 203.202C521.413 203.202 521.384 203.2 521.354 203.197C520.949 203.148 520.659 202.78 520.707 202.374C520.832 201.326 520.895 200.292 520.895 199.303C520.895 198.105 520.799 197.399 520.799 197.392C520.743 196.987 521.026 196.614 521.429 196.558C521.835 196.511 522.207 196.783 522.264 197.187C522.268 197.22 522.374 197.991 522.374 199.303C522.374 200.35 522.308 201.442 522.176 202.549C522.131 202.925 521.812 203.202 521.442 203.202Z" fill="#98B1E6"/>
<path d="M533.065 196.292L519.795 206.494L528.083 194.936L533.065 196.292Z" fill="#6B2FB9"/>
<path d="M581.792 158.055L552.366 210.6L495.735 174.071L581.792 158.055Z" fill="#B895F6"/>
<path d="M581.792 158.053L528.081 194.935L519.793 206.494L518.366 188.669L581.792 158.053Z" fill="#9151E4"/>
<path d="M311.924 243.348L300.5 244.954C297.361 236.557 293.039 228.805 287.758 221.87L295.456 211.654C297.428 209.037 296.905 205.316 294.287 203.344L266.64 182.513C264.023 180.541 260.302 181.064 258.33 183.681L251.092 193.287C243.25 189.931 234.882 187.657 226.202 186.625L224.274 172.915C223.818 169.67 220.818 167.409 217.572 167.865L183.293 172.685C180.047 173.141 177.786 176.142 178.243 179.387L180.17 193.097C172.583 196.284 165.566 200.453 159.252 205.427L146.549 195.855C143.931 193.883 140.211 194.406 138.239 197.024L117.407 224.671C115.435 227.288 115.958 231.009 118.576 232.981L131.278 242.551C128.422 249.538 126.418 256.925 125.38 264.566L107.81 267.037C104.564 267.493 102.303 270.494 102.76 273.739L107.579 308.018C108.036 311.264 111.036 313.525 114.282 313.068L131.089 310.705C133.88 317.671 137.492 324.172 141.792 330.106L130.75 344.762C128.778 347.38 129.301 351.1 131.918 353.072L159.565 373.904C162.183 375.876 165.903 375.353 167.875 372.735L177.803 359.559C184.665 362.687 191.951 364.979 199.516 366.322L201.931 383.501C202.388 386.746 205.388 389.007 208.634 388.551L242.913 383.732C246.158 383.275 248.419 380.275 247.963 377.029L245.913 362.447C253.665 359.694 260.883 355.938 267.437 351.354L277.182 358.696C281.166 361.698 286.83 360.902 289.832 356.918L308.798 331.746C310.77 329.128 310.247 325.408 307.63 323.435L297.501 315.803C301.164 308.103 303.764 299.844 305.14 291.243L318.396 289.38C321.641 288.923 323.902 285.923 323.446 282.677L318.626 248.398C318.17 245.153 315.169 242.892 311.924 243.348ZM221.711 321.619C196.986 325.096 174.124 307.87 170.648 283.145C167.172 258.421 184.397 235.559 209.122 232.083C233.847 228.607 256.708 245.832 260.185 270.557C263.661 295.282 246.435 318.143 221.711 321.619Z" fill="#ADCAFF"/>
<path d="M114.399 169.286L108.154 169.648C106.829 164.97 104.837 160.589 102.29 156.607L106.903 151.427C108.085 150.1 107.967 148.066 106.64 146.884L92.6204 134.4C91.2932 133.218 89.2591 133.336 88.0773 134.663L83.7397 139.534C79.65 137.373 75.2281 135.773 70.5824 134.831L70.1481 127.336C70.0452 125.561 68.5236 124.206 66.7495 124.309L48.0088 125.395C46.2345 125.498 44.8796 127.02 44.9825 128.794L45.4167 136.289C41.1749 137.675 37.1975 139.618 33.5649 142.026L27.1232 136.29C25.7959 135.108 23.7619 135.226 22.58 136.553L10.0962 150.573C8.91438 151.9 9.03221 153.934 10.3595 155.116L16.8003 160.851C14.9474 164.501 13.5373 168.405 12.6374 172.488L3.03183 173.045C1.25766 173.148 -0.0973487 174.669 0.00548693 176.444L1.09131 195.184C1.19415 196.958 2.71576 198.313 4.48993 198.21L13.6788 197.678C14.8782 201.566 16.5425 205.24 18.6039 208.638L11.9862 216.07C10.8044 217.397 10.9222 219.431 12.2495 220.613L26.2689 233.097C27.5962 234.278 29.6302 234.161 30.8121 232.833L36.7617 226.152C40.3313 228.147 44.168 229.708 48.197 230.769L48.7411 240.161C48.844 241.935 50.3656 243.29 52.1397 243.187L70.8804 242.101C72.6546 241.999 74.0096 240.477 73.9068 238.703L73.4449 230.73C77.7565 229.586 81.8241 227.876 85.5695 225.689L90.511 230.089C92.5315 231.888 95.6277 231.708 97.4269 229.688L108.793 216.924C109.975 215.596 109.857 213.562 108.53 212.38L103.393 207.807C105.714 203.807 107.485 199.459 108.611 194.871L115.857 194.451C117.632 194.349 118.987 192.827 118.884 191.053L117.798 172.312C117.695 170.538 116.174 169.183 114.399 169.286ZM62.1734 207.592C48.6563 208.376 37.0637 198.053 36.2805 184.536C35.4973 171.019 45.8201 159.426 59.3371 158.643C72.8542 157.86 84.4468 168.182 85.23 181.699C86.0132 195.217 75.6905 206.809 62.1734 207.592Z" fill="#ADCAFF"/>
<path d="M189.028 138.792L185.57 137.26C186.151 134.379 186.291 131.473 186.022 128.628L189.934 127.118C190.936 126.731 191.435 125.605 191.048 124.602L186.96 114.016C186.573 113.014 185.447 112.515 184.445 112.902L180.766 114.322C179.165 112.03 177.23 109.947 174.992 108.157L176.83 104.007C177.265 103.024 176.822 101.875 175.839 101.44L165.463 96.8449C164.481 96.4099 163.332 96.8535 162.896 97.8358L161.059 101.986C158.395 101.559 155.719 101.504 153.101 101.795L151.222 96.9306C150.835 95.9283 149.709 95.4295 148.707 95.8165L138.12 99.9041C137.118 100.291 136.619 101.417 137.006 102.42L138.884 107.283C136.879 108.733 135.042 110.443 133.43 112.39L128.111 110.034C127.129 109.599 125.98 110.043 125.545 111.025L120.95 121.401C120.514 122.384 120.958 123.533 121.94 123.968L127.028 126.221C126.598 128.643 126.478 131.078 126.647 133.475L121.035 135.642C120.033 136.029 119.534 137.155 119.921 138.157L124.009 148.744C124.396 149.746 125.522 150.245 126.524 149.858L131.57 147.91C132.938 149.969 134.569 151.869 136.442 153.553L134.139 158.753C133.704 159.735 134.147 160.884 135.13 161.319L145.506 165.915C146.488 166.35 147.637 165.906 148.072 164.924L150.027 160.51C152.662 161.086 155.321 161.291 157.94 161.15L159.381 164.881C159.97 166.407 161.684 167.166 163.21 166.577L172.848 162.856C173.851 162.469 174.35 161.342 173.963 160.34L172.465 156.461C174.818 154.952 176.972 153.104 178.845 150.948L182.857 152.725C183.84 153.16 184.989 152.717 185.424 151.734L190.019 141.358C190.454 140.376 190.011 139.227 189.028 138.792ZM150.362 144.954C142.878 141.64 139.498 132.886 142.812 125.401C146.127 117.917 154.881 114.537 162.365 117.852C169.849 121.166 173.229 129.92 169.915 137.405C166.6 144.889 157.846 148.269 150.362 144.954Z" fill="#B7D2F9"/>
<path d="M190.347 0H380.371C397.828 0 412.001 14.173 412.001 31.6301V406.37C412.001 423.827 397.828 438 380.371 438H190.347C172.89 438 158.717 423.827 158.717 406.37V31.6303C158.717 14.173 172.89 0 190.347 0Z" fill="url(#paint0_linear_434_4929)"/>
<path d="M324.191 28.687H246.526C243.822 28.687 241.629 26.4941 241.629 23.7892C241.629 21.0842 243.822 18.8914 246.526 18.8914H324.191C326.896 18.8914 329.089 21.0842 329.089 23.7892C329.089 26.4941 326.896 28.687 324.191 28.687Z" fill="white"/>
<path d="M377.279 46.2953H193.439C184.482 46.2953 177.222 53.556 177.222 62.5124V421.783C177.222 430.739 184.482 438 193.439 438H377.279C386.236 438 393.497 430.739 393.497 421.783V62.5124C393.497 53.556 386.236 46.2953 377.279 46.2953Z" fill="white"/>
<path d="M300.289 123.09H271.523C265.426 123.09 260.484 128.032 260.484 134.128V162.895C260.484 168.991 265.426 173.933 271.523 173.933H300.289C306.386 173.933 311.328 168.991 311.328 162.895V134.128C311.328 128.032 306.386 123.09 300.289 123.09Z" fill="#F0F6FF"/>
<path d="M234.096 123.09H205.329C199.233 123.09 194.291 128.032 194.291 134.128V162.895C194.291 168.991 199.233 173.933 205.329 173.933H234.096C240.192 173.933 245.135 168.991 245.135 162.895V134.128C245.135 128.032 240.192 123.09 234.096 123.09Z" fill="#F0F6FF"/>
<path d="M366.484 123.09H337.717C331.621 123.09 326.679 128.032 326.679 134.128V162.895C326.679 168.991 331.621 173.933 337.717 173.933H366.484C372.58 173.933 377.522 168.991 377.522 162.895V134.128C377.522 128.032 372.58 123.09 366.484 123.09Z" fill="#F0F6FF"/>
<path d="M300.289 189.571H271.523C265.426 189.571 260.484 194.513 260.484 200.609V229.376C260.484 235.472 265.426 240.414 271.523 240.414H300.289C306.386 240.414 311.328 235.472 311.328 229.376V200.609C311.328 194.513 306.386 189.571 300.289 189.571Z" fill="#F0F6FF"/>
<path d="M234.096 189.571H205.329C199.233 189.571 194.291 194.513 194.291 200.609V229.376C194.291 235.472 199.233 240.414 205.329 240.414H234.096C240.192 240.414 245.135 235.472 245.135 229.376V200.609C245.135 194.513 240.192 189.571 234.096 189.571Z" fill="#F0F6FF"/>
<path d="M366.484 189.571H337.717C331.621 189.571 326.679 194.513 326.679 200.609V229.376C326.679 235.472 331.621 240.414 337.717 240.414H366.484C372.58 240.414 377.522 235.472 377.522 229.376V200.609C377.522 194.513 372.58 189.571 366.484 189.571Z" fill="#F0F6FF"/>
<path d="M300.289 258.29H271.523C265.426 258.29 260.484 263.232 260.484 269.328V298.095C260.484 304.191 265.426 309.133 271.523 309.133H300.289C306.386 309.133 311.328 304.191 311.328 298.095V269.328C311.328 263.232 306.386 258.29 300.289 258.29Z" fill="#F0F6FF"/>
<path d="M234.096 258.29H205.329C199.233 258.29 194.291 263.232 194.291 269.328V298.095C194.291 304.191 199.233 309.133 205.329 309.133H234.096C240.192 309.133 245.135 304.191 245.135 298.095V269.328C245.135 263.232 240.192 258.29 234.096 258.29Z" fill="#F0F6FF"/>
<path d="M366.484 258.29H337.717C331.621 258.29 326.679 263.232 326.679 269.328V298.095C326.679 304.191 331.621 309.133 337.717 309.133H366.484C372.58 309.133 377.522 304.191 377.522 298.095V269.328C377.522 263.232 372.58 258.29 366.484 258.29Z" fill="#F0F6FF"/>
<path d="M371.345 70.8647H199.372C196.263 70.8647 193.743 73.385 193.743 76.4939V101.893C193.743 105.002 196.263 107.522 199.372 107.522H371.345C374.454 107.522 376.974 105.002 376.974 101.893V76.4939C376.974 73.385 374.454 70.8647 371.345 70.8647Z" fill="#F0F6FF"/>
<path d="M109.8 73.3962H148.517C160.737 73.3962 170.658 83.3174 170.658 95.5374V137.485C170.658 149.704 160.738 159.624 148.519 159.624H109.8C97.5803 159.624 87.6592 149.703 87.6592 137.483V95.5372C87.6592 83.3172 97.5802 73.3962 109.8 73.3962Z" fill="url(#paint1_linear_434_4929)"/>
<path d="M122.044 86.5552H160.761C172.981 86.5552 182.903 96.4763 182.903 108.696V150.644C182.903 162.863 172.982 172.783 160.763 172.783H122.044C109.824 172.783 99.9033 162.862 99.9033 150.642V108.696C99.9033 96.4762 109.824 86.5552 122.044 86.5552Z" fill="#9151E4"/>
<path d="M134.261 126.868L125.022 130.251L134.261 133.608V137.077L121.054 132.054V128.448L134.261 123.426V126.868Z" fill="white"/>
<path d="M144.193 116.601H148.047L138.893 142.737H135.035L144.193 116.601Z" fill="white"/>
<path d="M161.752 128.448V132.054L148.545 137.077V133.608L157.787 130.251L148.545 126.868V123.425L161.752 128.448Z" fill="white"/>
<path d="M218.451 186.592H266.143C281.196 186.592 293.417 198.813 293.417 213.866V265.537C293.417 280.588 281.197 292.808 266.146 292.808H218.452C203.399 292.808 191.179 280.587 191.179 265.535V213.864C191.179 198.813 203.399 186.592 218.451 186.592Z" fill="url(#paint2_linear_434_4929)"/>
<path d="M233.534 202.802H281.226C296.279 202.802 308.5 215.022 308.5 230.075V281.746C308.5 296.797 296.28 309.017 281.229 309.017H233.535C218.482 309.017 206.262 296.796 206.262 281.744V230.073C206.262 215.022 218.482 202.802 233.534 202.802Z" fill="url(#paint3_linear_434_4929)"/>
<path d="M244.165 270.244C242.126 270.244 240.28 269.892 238.625 269.191C236.97 268.49 235.599 267.477 234.514 266.153L238.803 261.069C239.544 262.021 240.313 262.744 241.107 263.234C241.901 263.724 242.735 263.968 243.609 263.968C245.94 263.968 247.105 262.617 247.105 259.917V247.961H237.493V241.883H254.89V259.439C254.89 263.068 253.976 265.775 252.149 267.562C250.322 269.35 247.661 270.244 244.165 270.244Z" fill="white"/>
<path d="M269.982 270.244C267.705 270.244 265.513 269.958 263.408 269.39C261.303 268.821 259.589 268.085 258.265 267.185L260.847 261.386C262.091 262.18 263.528 262.836 265.156 263.352C266.785 263.869 268.406 264.127 270.022 264.127C271.107 264.127 271.981 264.027 272.643 263.829C273.305 263.63 273.788 263.365 274.093 263.034C274.397 262.703 274.55 262.313 274.55 261.863C274.55 261.228 274.258 260.724 273.676 260.354C273.093 259.983 272.338 259.678 271.412 259.439C270.485 259.202 269.459 258.963 268.333 258.724C267.208 258.487 266.083 258.183 264.958 257.811C263.832 257.441 262.806 256.957 261.879 256.361C260.952 255.766 260.197 254.985 259.615 254.018C259.032 253.052 258.741 251.827 258.741 250.344C258.741 248.676 259.198 247.167 260.112 245.817C261.025 244.465 262.395 243.38 264.223 242.559C266.05 241.738 268.327 241.328 271.054 241.328C272.881 241.328 274.675 241.532 276.436 241.943C278.197 242.355 279.766 242.956 281.143 243.75L278.72 249.59C277.396 248.875 276.085 248.338 274.788 247.98C273.49 247.623 272.232 247.445 271.014 247.445C269.928 247.445 269.055 247.558 268.393 247.782C267.731 248.007 267.254 248.305 266.963 248.676C266.671 249.047 266.526 249.471 266.526 249.947C266.526 250.556 266.81 251.039 267.38 251.397C267.949 251.754 268.704 252.045 269.644 252.271C270.584 252.496 271.617 252.727 272.742 252.966C273.868 253.204 274.993 253.501 276.119 253.859C277.244 254.216 278.269 254.694 279.197 255.29C280.124 255.885 280.872 256.667 281.441 257.633C282.01 258.6 282.295 259.811 282.295 261.267C282.295 262.883 281.837 264.372 280.924 265.736C280.011 267.099 278.647 268.192 276.833 269.012C275.019 269.833 272.736 270.244 269.982 270.244Z" fill="white"/>
<path d="M62.1773 294.63H100.895C113.115 294.63 123.036 304.552 123.036 316.772V358.719C123.036 370.938 113.116 380.858 100.897 380.858H62.1782C49.9582 380.858 40.0371 370.937 40.0371 358.717V316.77C40.0371 304.551 49.9578 294.63 62.1773 294.63Z" fill="url(#paint4_linear_434_4929)"/>
<path d="M74.4224 307.789H113.14C125.36 307.789 135.281 317.71 135.281 329.93V371.878C135.281 384.097 125.361 394.017 113.142 394.017H74.4233C62.2033 394.017 52.2822 384.096 52.2822 371.876V329.929C52.2822 317.71 62.203 307.789 74.4224 307.789Z" fill="url(#paint5_linear_434_4929)"/>
<path d="M121.435 339.39H70.7328C68.8658 339.39 67.3525 337.876 67.3525 336.009C67.3525 334.143 68.8658 332.629 70.7328 332.629H121.435C123.302 332.629 124.815 334.143 124.815 336.009C124.815 337.876 123.302 339.39 121.435 339.39Z" fill="white"/>
<path d="M101.999 353.755H70.7328C68.8658 353.755 67.3525 352.242 67.3525 350.375C67.3525 348.508 68.8658 346.995 70.7328 346.995H101.999C103.866 346.995 105.379 348.508 105.379 350.375C105.379 352.242 103.866 353.755 101.999 353.755Z" fill="white"/>
<path d="M87.4222 362.417H70.7328C68.8659 362.417 67.3525 363.93 67.3525 365.797C67.3525 367.664 68.8659 369.177 70.7328 369.177H87.4222C89.2891 369.177 90.8025 367.664 90.8025 365.797C90.8025 363.93 89.2891 362.417 87.4222 362.417Z" fill="white"/>
<path d="M420.653 73.3962H459.372C471.591 73.3962 481.512 83.3169 481.512 95.5363V137.485C481.512 149.704 471.592 159.624 459.373 159.624H420.654C408.434 159.624 398.513 149.703 398.513 137.483V95.5362C398.513 83.3167 408.433 73.3962 420.653 73.3962Z" fill="url(#paint6_linear_434_4929)"/>
<path d="M408.409 86.5552H447.127C459.347 86.5552 469.268 96.4763 469.268 108.696V150.644C469.268 162.863 459.348 172.783 447.128 172.783H408.408C396.189 172.783 386.269 162.863 386.269 150.644V108.695C386.269 96.4758 396.189 86.5552 408.409 86.5552Z" fill="url(#paint7_linear_434_4929)"/>
<path d="M406.568 133.757V119.823H412.939C414.212 119.823 415.31 120.03 416.233 120.441C417.155 120.852 417.868 121.445 418.372 122.221C418.877 122.998 419.129 123.917 419.129 124.978C419.129 126.027 418.877 126.936 418.372 127.705C417.868 128.476 417.155 129.069 416.233 129.488C415.31 129.905 414.212 130.114 412.939 130.114H408.758L410.51 128.402V133.757L406.568 133.757ZM410.51 128.82L408.758 127.009H412.7C413.522 127.009 414.136 126.829 414.541 126.471C414.946 126.113 415.147 125.616 415.147 124.978C415.147 124.328 414.946 123.824 414.541 123.465C414.136 123.107 413.522 122.928 412.7 122.928H408.758L410.51 121.117V128.82Z" fill="white"/>
<path d="M424.981 133.757H421.039V119.823H424.981V133.757ZM430.634 128.323H424.702V125.058H430.634V128.323ZM430.355 119.823H434.296V133.757H430.355V119.823Z" fill="white"/>
<path d="M437.084 133.757V119.823H443.454C444.728 119.823 445.826 120.03 446.749 120.441C447.67 120.852 448.383 121.445 448.888 122.221C449.392 122.998 449.645 123.917 449.645 124.978C449.645 126.027 449.392 126.936 448.888 127.705C448.383 128.476 447.671 129.069 446.749 129.488C445.826 129.905 444.728 130.114 443.454 130.114H439.273L441.026 128.402V133.757L437.084 133.757ZM441.026 128.82L439.273 127.009H443.215C444.037 127.009 444.651 126.829 445.056 126.471C445.461 126.113 445.663 125.616 445.663 124.978C445.663 124.328 445.461 123.824 445.056 123.465C444.652 123.107 444.037 122.928 443.215 122.928H439.273L441.026 121.117V128.82Z" fill="white"/>
<path d="M554.37 338.077C563.073 313.619 550.302 286.736 525.844 278.033C501.386 269.33 474.503 282.102 465.8 306.56C457.096 331.018 469.868 357.9 494.326 366.603C518.784 375.307 545.667 362.535 554.37 338.077Z" fill="url(#paint8_linear_434_4929)"/>
<path d="M510.085 358.113C490.349 358.113 474.291 342.056 474.291 322.318C474.291 302.581 490.349 286.524 510.086 286.524C529.822 286.524 545.88 302.581 545.88 322.318C545.88 342.056 529.822 358.113 510.085 358.113Z" fill="white"/>
<path d="M510.085 346.903C496.529 346.903 485.501 335.874 485.501 322.318C485.501 308.762 496.53 297.735 510.086 297.734C523.641 297.734 534.67 308.762 534.669 322.318C534.669 335.874 523.64 346.903 510.085 346.903Z" fill="url(#paint9_linear_434_4929)"/>
<path d="M510.085 335.692C502.711 335.692 496.712 329.693 496.712 322.318C496.712 314.945 502.711 308.945 510.086 308.945C517.46 308.945 523.459 314.945 523.459 322.318C523.459 329.693 517.46 335.692 510.085 335.692Z" fill="white"/>
<path d="M558.367 260.44L544.77 274.036V282.697L509.723 317.744C508.36 319.107 508.36 321.317 509.723 322.68C511.086 324.043 513.296 324.043 514.659 322.68L549.706 287.633H558.367L571.964 274.036H558.367L558.367 260.44Z" fill="#9151E4"/>
<path d="M339.56 346.555H221.08C210.26 346.555 201.489 355.327 201.489 366.146V381.073C201.489 391.893 210.26 400.664 221.08 400.664H339.56C350.379 400.664 359.151 391.893 359.151 381.073V366.146C359.151 355.327 350.379 346.555 339.56 346.555Z" fill="#F0F6FF"/>
<path d="M223.762 339.909H342.241C353.054 339.909 361.832 348.687 361.832 359.5V374.426C361.832 385.239 353.054 394.017 342.241 394.017H223.762C212.949 394.017 204.171 385.239 204.171 374.426V359.499C204.171 348.687 212.949 339.909 223.762 339.909Z" fill="url(#paint10_linear_434_4929)"/>
<path d="M339.443 361.424H223.995C221.934 361.424 220.264 359.753 220.264 357.692C220.264 355.631 221.934 353.96 223.995 353.96H339.443C341.503 353.96 343.174 355.631 343.174 357.692C343.174 359.753 341.503 361.424 339.443 361.424Z" fill="#F9FBFC"/>
<path d="M265.276 377.866H223.995C221.934 377.866 220.264 376.195 220.264 374.135C220.264 372.074 221.934 370.403 223.995 370.403H265.276C267.337 370.403 269.008 372.074 269.008 374.135C269.008 376.195 267.337 377.866 265.276 377.866Z" fill="#F9FBFC"/>
</g>
<defs>
<linearGradient id="paint0_linear_434_4929" x1="286.324" y1="-14.5854" x2="284.226" y2="493.2" gradientUnits="userSpaceOnUse">
<stop stop-color="#CCA0F9"/>
<stop offset="1" stop-color="#736CEC"/>
</linearGradient>
<linearGradient id="paint1_linear_434_4929" x1="129.337" y1="73.3167" x2="128.98" y2="159.704" gradientUnits="userSpaceOnUse">
<stop stop-color="#CCA0F9" stop-opacity="0.1"/>
<stop offset="1" stop-color="#736CEC"/>
</linearGradient>
<linearGradient id="paint2_linear_434_4929" x1="242.518" y1="186.494" x2="242.078" y2="292.906" gradientUnits="userSpaceOnUse">
<stop stop-color="#CCA0F9" stop-opacity="0.1"/>
<stop offset="1" stop-color="#736CEC"/>
</linearGradient>
<linearGradient id="paint3_linear_434_4929" x1="337.204" y1="367.056" x2="217.342" y2="200.159" gradientUnits="userSpaceOnUse">
<stop stop-color="#CCA0F9"/>
<stop offset="1" stop-color="#736CEC"/>
</linearGradient>
<linearGradient id="paint4_linear_434_4929" x1="81.7153" y1="294.551" x2="81.3583" y2="380.938" gradientUnits="userSpaceOnUse">
<stop stop-color="#CCA0F9" stop-opacity="0.1"/>
<stop offset="1" stop-color="#736CEC"/>
</linearGradient>
<linearGradient id="paint5_linear_434_4929" x1="158.584" y1="441.134" x2="61.2778" y2="305.645" gradientUnits="userSpaceOnUse">
<stop stop-color="#CCA0F9"/>
<stop offset="1" stop-color="#736CEC"/>
</linearGradient>
<linearGradient id="paint6_linear_434_4929" x1="439.834" y1="73.3167" x2="440.191" y2="159.704" gradientUnits="userSpaceOnUse">
<stop stop-color="#CCA0F9" stop-opacity="0.1"/>
<stop offset="1" stop-color="#736CEC"/>
</linearGradient>
<linearGradient id="paint7_linear_434_4929" x1="386.269" y1="129.669" x2="469.268" y2="129.669" gradientUnits="userSpaceOnUse">
<stop stop-color="#CCA0F9"/>
<stop offset="1" stop-color="#736CEC"/>
</linearGradient>
<linearGradient id="paint8_linear_434_4929" x1="538.462" y1="267.233" x2="482.624" y2="375.625" gradientUnits="userSpaceOnUse">
<stop stop-color="#CCA0F9"/>
<stop offset="1" stop-color="#736CEC"/>
</linearGradient>
<linearGradient id="paint9_linear_434_4929" x1="485.501" y1="322.319" x2="534.669" y2="322.319" gradientUnits="userSpaceOnUse">
<stop stop-color="#CCA0F9"/>
<stop offset="1" stop-color="#736CEC"/>
</linearGradient>
<linearGradient id="paint10_linear_434_4929" x1="332.67" y1="320.427" x2="229.117" y2="417.449" gradientUnits="userSpaceOnUse">
<stop stop-color="#CCA0F9"/>
<stop offset="1" stop-color="#736CEC"/>
</linearGradient>
<clipPath id="clip0_434_4929">
<rect width="581.792" height="438" fill="white"/>
</clipPath>
</defs>
</svg>
