<svg width="482" height="438" viewBox="0 0 482 438" fill="none" xmlns="http://www.w3.org/2000/svg">
<g clip-path="url(#clip0_434_4978)">
<path d="M153.935 0H343.991C361.451 0 375.626 14.173 375.626 31.6301V406.37C375.626 423.827 361.451 438 343.991 438H153.934C136.474 438 122.299 423.827 122.299 406.37V31.6303C122.299 14.173 136.474 0 153.935 0Z" fill="url(#paint0_linear_434_4978)"/>
<path d="M287.802 28.687H210.124C207.419 28.687 205.226 26.4941 205.226 23.7892C205.226 21.0842 207.419 18.8914 210.124 18.8914H287.802C290.507 18.8914 292.7 21.0842 292.7 23.7892C292.7 26.4941 290.507 28.687 287.802 28.687Z" fill="white"/>
<path d="M340.899 46.2953H157.027C148.069 46.2953 140.807 53.556 140.807 62.5124V421.783C140.807 430.739 148.069 438 157.027 438H340.899C349.857 438 357.119 430.739 357.119 421.783V62.5124C357.119 53.556 349.857 46.2953 340.899 46.2953Z" fill="white"/>
<path d="M263.896 123.09H235.124C229.027 123.09 224.084 128.032 224.084 134.128V162.895C224.084 168.991 229.027 173.933 235.124 173.933H263.896C269.993 173.933 274.936 168.991 274.936 162.895V134.128C274.936 128.032 269.993 123.09 263.896 123.09Z" fill="#F0F6FF"/>
<path d="M262.774 123.09H172.062C164.229 123.09 157.879 129.439 157.879 137.27V227.967C157.879 235.799 164.229 242.148 172.062 242.148H262.774C270.607 242.148 276.957 235.799 276.957 227.967V137.27C276.957 129.439 270.607 123.09 262.774 123.09Z" fill="#F0F6FF"/>
<path d="M330.101 123.09H301.329C295.232 123.09 290.289 128.032 290.289 134.128V162.895C290.289 168.991 295.232 173.933 301.329 173.933H330.101C336.198 173.933 341.141 168.991 341.141 162.895V134.128C341.141 128.032 336.198 123.09 330.101 123.09Z" fill="#F0F6FF"/>
<path d="M263.896 189.571H235.124C229.027 189.571 224.084 194.513 224.084 200.609V229.376C224.084 235.472 229.027 240.414 235.124 240.414H263.896C269.993 240.414 274.936 235.472 274.936 229.376V200.609C274.936 194.513 269.993 189.571 263.896 189.571Z" fill="#F0F6FF"/>
<path d="M197.691 189.571H168.919C162.822 189.571 157.879 194.513 157.879 200.609V229.376C157.879 235.472 162.822 240.414 168.919 240.414H197.691C203.788 240.414 208.731 235.472 208.731 229.376V200.609C208.731 194.513 203.788 189.571 197.691 189.571Z" fill="#F0F6FF"/>
<path d="M330.101 189.571H301.329C295.232 189.571 290.289 194.513 290.289 200.609V229.376C290.289 235.472 295.232 240.414 301.329 240.414H330.101C336.198 240.414 341.141 235.472 341.141 229.376V200.609C341.141 194.513 336.198 189.571 330.101 189.571Z" fill="#F0F6FF"/>
<path d="M328.111 258.29H237.115C229.918 258.29 224.084 264.123 224.084 271.318V333.404C224.084 340.599 229.918 346.432 237.115 346.432H328.111C335.307 346.432 341.141 340.599 341.141 333.404V271.318C341.141 264.123 335.307 258.29 328.111 258.29Z" fill="#F0F6FF"/>
<path d="M197.691 258.29H168.919C162.822 258.29 157.879 263.232 157.879 269.328V298.095C157.879 304.191 162.822 309.133 168.919 309.133H197.691C203.788 309.133 208.731 304.191 208.731 298.095V269.328C208.731 263.232 203.788 258.29 197.691 258.29Z" fill="#F0F6FF"/>
<path d="M330.101 258.29H301.329C295.232 258.29 290.289 263.232 290.289 269.328V298.095C290.289 304.191 295.232 309.133 301.329 309.133H330.101C336.198 309.133 341.141 304.191 341.141 298.095V269.328C341.141 263.232 336.198 258.29 330.101 258.29Z" fill="#F0F6FF"/>
<path d="M268.829 296.955L250.998 303.484L268.829 309.961V316.655L243.338 306.962V300.005L268.829 290.312V296.955Z" fill="#9151E4"/>
<path d="M287.998 277.144H295.437L277.768 327.578H270.322L287.998 277.144Z" fill="#9151E4"/>
<path d="M321.888 300.005V306.962L296.396 316.655V309.961L314.234 303.484L296.396 296.955V290.312L321.888 300.005Z" fill="#9151E4"/>
<path d="M383.671 70.8647H189.279C185.979 70.8647 183.305 73.539 183.305 76.8378V101.549C183.305 104.848 185.979 107.522 189.279 107.522H383.671C386.97 107.522 389.645 104.848 389.645 101.549V76.8378C389.645 73.539 386.97 70.8647 383.671 70.8647Z" fill="#F0F6FF"/>
<path d="M79.4965 49.7693H118.221C130.443 49.7693 140.366 59.6904 140.366 71.9105V113.858C140.366 126.077 130.444 135.997 118.223 135.997H79.4974C67.2754 135.997 57.3525 126.076 57.3525 113.856V71.9092C57.3525 59.6898 67.275 49.7693 79.4965 49.7693Z" fill="url(#paint1_linear_434_4978)"/>
<path d="M91.7436 62.9284H130.468C142.69 62.9284 152.613 72.8495 152.613 85.0695V127.017C152.613 139.236 142.691 149.156 130.47 149.156H91.7444C79.5224 149.156 69.5996 139.235 69.5996 127.015V85.0683C69.5996 72.8488 79.522 62.9284 91.7436 62.9284Z" fill="#9151E4"/>
<path d="M380.33 247.007H423.841C437.574 247.007 448.723 258.172 448.723 271.924V319.129C448.723 332.881 437.574 344.046 423.841 344.046H380.331C366.598 344.046 355.449 332.881 355.449 319.129V271.923C355.449 258.171 366.598 247.007 380.33 247.007Z" fill="url(#paint2_linear_434_4978)"/>
<path d="M366.466 262.13H409.977C423.709 262.13 434.858 273.294 434.858 287.046V334.252C434.858 348.004 423.708 359.169 409.976 359.169H366.466C352.733 359.169 341.584 348.004 341.584 334.252V287.047C341.584 273.295 352.733 262.13 366.466 262.13Z" fill="#9151E4"/>
<path d="M405.824 304.016C397.285 304.016 390.34 310.959 390.34 319.497C390.34 328.035 397.285 334.978 405.824 334.978C414.363 334.978 421.305 328.032 421.305 319.497C421.305 310.962 414.36 304.016 405.824 304.016Z" fill="white"/>
<path d="M410.454 295.263H407.165C405.814 291.389 402.031 288.595 397.563 288.595H392.101C387.634 288.595 383.85 291.389 382.499 295.263H365.988C362.255 295.263 359.23 298.187 359.23 301.791V326.176C359.23 329.78 362.255 332.704 365.988 332.704H410.454C414.187 332.704 417.211 329.78 417.211 326.176V301.791C417.211 298.187 414.187 295.263 410.454 295.263ZM368.172 307.405C365.911 307.405 364.079 305.634 364.079 303.45C364.079 301.268 365.911 299.498 368.172 299.498C370.432 299.498 372.264 301.268 372.264 303.45C372.264 305.634 370.432 307.405 368.172 307.405ZM394.833 329.189C386.153 329.189 379.092 322.368 379.092 313.983C379.092 305.598 386.153 298.778 394.833 298.778C403.514 298.778 410.573 305.598 410.573 313.983C410.573 322.368 403.511 329.189 394.833 329.189Z" fill="white"/>
<path d="M22.144 296.848H60.8685C73.0906 296.848 83.0134 306.769 83.0134 318.99V360.937C83.0134 373.156 73.0915 383.076 60.8703 383.076H22.1448C9.92282 383.076 0 373.155 0 360.935V318.988C0 306.769 9.92244 296.848 22.144 296.848Z" fill="url(#paint3_linear_434_4978)"/>
<path d="M34.39 310.007H73.1146C85.3367 310.007 95.2595 319.928 95.2595 332.149V374.096C95.2595 386.315 85.3376 396.235 73.1164 396.235H34.3909C22.1689 396.235 12.2461 386.314 12.2461 374.094V332.147C12.2461 319.928 22.1685 310.007 34.39 310.007Z" fill="url(#paint4_linear_434_4978)"/>
<path d="M81.4113 341.608H30.7001C28.8329 341.608 27.3193 340.094 27.3193 338.227C27.3193 336.361 28.8329 334.847 30.7001 334.847H81.4115C83.2786 334.847 84.7921 336.361 84.7921 338.227C84.7921 340.094 83.2784 341.608 81.4113 341.608Z" fill="white"/>
<path d="M61.9719 355.973H30.7001C28.8329 355.973 27.3193 354.46 27.3193 352.593C27.3193 350.726 28.8329 349.213 30.7001 349.213H61.9719C63.8392 349.213 65.3527 350.726 65.3527 352.593C65.3527 354.46 63.8392 355.973 61.9719 355.973Z" fill="white"/>
<path d="M47.3925 364.635H30.7001C28.833 364.635 27.3193 366.148 27.3193 368.015C27.3193 369.882 28.833 371.395 30.7001 371.395H47.3925C49.2596 371.395 50.7733 369.882 50.7733 368.015C50.7733 366.148 49.2596 364.635 47.3925 364.635Z" fill="white"/>
<path d="M201.418 96.551C205.528 96.551 208.861 93.3168 208.861 89.3272C208.861 85.3376 205.528 82.1034 201.418 82.1034C197.307 82.1034 193.975 85.3376 193.975 89.3272C193.975 93.3168 197.307 96.551 201.418 96.551Z" stroke="#B2D2F9" stroke-width="0.8932" stroke-miterlimit="10"/>
<path d="M206.94 94.1578L212.402 98.5165" stroke="#B2D2F9" stroke-width="0.8932" stroke-miterlimit="10" stroke-linecap="round"/>
<path d="M261.882 183.317L258.409 183.805C257.455 181.253 256.141 178.898 254.536 176.79L256.876 173.686C257.476 172.89 257.317 171.76 256.521 171.16L248.118 164.83C247.322 164.23 246.191 164.389 245.592 165.185L243.392 168.104C241.008 167.084 238.465 166.393 235.827 166.079L235.241 161.913C235.102 160.927 234.19 160.24 233.204 160.378L222.785 161.843C221.798 161.982 221.111 162.894 221.25 163.88L221.836 168.046C219.529 169.015 217.397 170.282 215.478 171.793L211.617 168.884C210.821 168.285 209.69 168.444 209.091 169.239L202.759 177.641C202.16 178.437 202.319 179.567 203.114 180.167L206.975 183.075C206.107 185.198 205.498 187.443 205.182 189.765L199.842 190.516C198.855 190.655 198.168 191.567 198.307 192.553L199.772 202.97C199.91 203.956 200.822 204.643 201.809 204.505L206.918 203.787C207.766 205.904 208.864 207.879 210.171 209.683L206.814 214.136C206.215 214.932 206.374 216.062 207.169 216.662L215.573 222.992C216.368 223.592 217.499 223.433 218.098 222.637L221.116 218.633C223.201 219.584 225.416 220.28 227.715 220.688L228.449 225.909C228.588 226.895 229.5 227.582 230.487 227.444L240.906 225.979C241.892 225.841 242.579 224.929 242.441 223.942L241.817 219.511C244.174 218.674 246.367 217.533 248.36 216.14L251.322 218.371C252.533 219.283 254.254 219.041 255.166 217.831L260.931 210.181C261.531 209.385 261.372 208.255 260.576 207.656L257.498 205.336C258.611 202.996 259.401 200.486 259.82 197.873L263.849 197.306C264.835 197.168 265.522 196.256 265.384 195.269L263.919 184.852C263.78 183.866 262.868 183.179 261.882 183.317ZM234.462 207.103C226.947 208.16 219.998 202.925 218.941 195.411C217.885 187.898 223.12 180.95 230.635 179.894C238.15 178.838 245.099 184.072 246.156 191.586C247.212 199.1 241.977 206.047 234.462 207.103Z" fill="url(#paint5_linear_434_4978)"/>
<path d="M201.844 160.81L199.946 160.92C199.543 159.499 198.938 158.167 198.164 156.957L199.566 155.383C199.925 154.98 199.889 154.362 199.486 154.002L195.225 150.209C194.821 149.85 194.203 149.885 193.844 150.289L192.525 151.769C191.282 151.112 189.938 150.626 188.526 150.34L188.394 148.062C188.363 147.523 187.901 147.111 187.361 147.142L181.665 147.472C181.126 147.503 180.714 147.966 180.745 148.505L180.877 150.783C179.588 151.204 178.379 151.794 177.275 152.526L175.317 150.783C174.914 150.424 174.296 150.46 173.936 150.863L170.142 155.123C169.783 155.527 169.819 156.145 170.222 156.504L172.18 158.247C171.617 159.356 171.188 160.542 170.914 161.783L167.995 161.953C167.456 161.984 167.044 162.446 167.075 162.985L167.405 168.681C167.436 169.22 167.899 169.632 168.438 169.6L171.231 169.438C171.595 170.62 172.101 171.737 172.728 172.769L170.716 175.028C170.357 175.431 170.393 176.049 170.796 176.408L175.058 180.202C175.461 180.561 176.079 180.525 176.438 180.122L178.247 178.091C179.332 178.698 180.498 179.172 181.722 179.495L181.888 182.349C181.919 182.888 182.382 183.3 182.921 183.268L188.617 182.938C189.156 182.907 189.568 182.445 189.537 181.906L189.396 179.483C190.707 179.135 191.943 178.615 193.082 177.951L194.584 179.288C195.198 179.835 196.139 179.78 196.686 179.166L200.14 175.287C200.5 174.884 200.464 174.266 200.06 173.907L198.499 172.517C199.205 171.301 199.743 169.98 200.085 168.586L202.288 168.458C202.827 168.427 203.239 167.964 203.207 167.425L202.877 161.73C202.846 161.191 202.383 160.779 201.844 160.81ZM185.97 172.451C181.862 172.689 178.338 169.552 178.1 165.444C177.862 161.337 181 157.814 185.108 157.576C189.217 157.338 192.74 160.475 192.978 164.583C193.216 168.69 190.079 172.213 185.97 172.451Z" fill="url(#paint6_linear_434_4978)"/>
<path d="M224.527 151.543L223.476 151.078C223.653 150.202 223.695 149.319 223.614 148.455L224.802 147.996C225.107 147.878 225.259 147.536 225.141 147.231L223.899 144.014C223.781 143.71 223.439 143.558 223.134 143.676L222.016 144.107C221.529 143.411 220.941 142.778 220.261 142.234L220.82 140.973C220.952 140.674 220.817 140.325 220.518 140.193L217.365 138.796C217.066 138.664 216.717 138.799 216.584 139.097L216.026 140.358C215.216 140.229 214.403 140.212 213.607 140.301L213.036 138.822C212.919 138.518 212.576 138.366 212.272 138.484L209.054 139.726C208.749 139.844 208.598 140.186 208.715 140.49L209.286 141.968C208.677 142.409 208.118 142.928 207.628 143.52L206.012 142.804C205.713 142.672 205.364 142.807 205.232 143.106L203.835 146.259C203.703 146.557 203.838 146.907 204.136 147.039L205.682 147.723C205.552 148.46 205.515 149.2 205.567 149.928L203.861 150.586C203.556 150.704 203.405 151.046 203.522 151.351L204.765 154.568C204.882 154.873 205.225 155.024 205.529 154.906L207.063 154.314C207.479 154.94 207.975 155.517 208.544 156.029L207.844 157.61C207.711 157.908 207.846 158.257 208.145 158.389L211.299 159.786C211.597 159.918 211.947 159.783 212.079 159.485L212.673 158.143C213.474 158.319 214.282 158.381 215.078 158.338L215.516 159.472C215.695 159.935 216.216 160.166 216.68 159.987L219.609 158.856C219.914 158.738 220.066 158.396 219.948 158.092L219.493 156.913C220.208 156.454 220.863 155.893 221.432 155.238L222.652 155.778C222.95 155.91 223.299 155.775 223.432 155.476L224.828 152.323C224.961 152.025 224.826 151.676 224.527 151.543ZM212.775 153.416C210.5 152.409 209.473 149.749 210.48 147.474C211.488 145.2 214.148 144.173 216.423 145.18C218.698 146.187 219.725 148.847 218.718 151.122C217.71 153.396 215.05 154.423 212.775 153.416Z" fill="url(#paint7_linear_434_4978)"/>
<path d="M127.421 115.956L122.467 113.286C121.26 112.636 120.323 113.106 119.284 114.535C117.003 117.673 115.896 118.293 113.097 116.73C110.486 115.272 108.615 113.541 106.27 111.195C103.924 108.85 102.192 106.98 100.734 104.369C99.1709 101.57 99.791 100.464 102.929 98.1834C104.359 97.1448 104.829 96.207 104.179 95.001L101.508 90.0476C100.417 87.9408 98.8697 87.7003 96.5811 88.4745C93.4244 89.5423 90.3693 94.1004 90.5242 96.2637C90.9771 102.585 94.1424 110.179 100.73 116.765C107.316 123.351 114.912 126.516 121.234 126.968C123.398 127.123 127.926 124.038 128.994 120.882C129.769 118.594 129.528 117.047 127.421 115.956Z" fill="white"/>
<path d="M112.6 96.8801C111.556 96.8887 110.716 97.7421 110.725 98.7858C110.733 99.8245 111.578 100.661 112.615 100.661C112.633 100.66 112.65 100.661 112.666 100.661C113.791 100.661 114.845 101.095 115.637 101.887C116.437 102.687 116.873 103.754 116.863 104.892C116.855 105.936 117.694 106.789 118.739 106.798H118.755C119.791 106.798 120.636 105.961 120.645 104.923C120.662 102.763 119.833 100.736 118.311 99.2134C116.789 97.6911 114.73 96.8929 112.6 96.8801ZM123.887 93.6384C120.875 90.6268 116.819 88.9716 112.609 88.9931C111.564 88.9968 110.721 89.8459 110.725 90.8902C110.728 91.932 111.574 92.7738 112.615 92.7738C112.627 92.772 112.649 92.7732 112.667 92.7738C115.896 92.7738 118.931 94.0292 121.213 96.3115C123.506 98.6036 124.763 101.654 124.752 104.901C124.748 105.945 125.592 106.794 126.636 106.798H126.642C127.684 106.798 128.529 105.956 128.533 104.914C128.548 100.652 126.898 96.6475 123.887 93.6384Z" fill="white"/>
</g>
<defs>
<linearGradient id="paint0_linear_434_4978" x1="249.928" y1="-14.5854" x2="247.83" y2="493.2" gradientUnits="userSpaceOnUse">
<stop stop-color="#CCA0F9"/>
<stop offset="1" stop-color="#736CEC"/>
</linearGradient>
<linearGradient id="paint1_linear_434_4978" x1="99.0379" y1="49.6899" x2="98.6809" y2="136.077" gradientUnits="userSpaceOnUse">
<stop stop-color="#CCA0F9" stop-opacity="0.1"/>
<stop offset="1" stop-color="#736CEC"/>
</linearGradient>
<linearGradient id="paint2_linear_434_4978" x1="401.886" y1="246.918" x2="402.288" y2="344.135" gradientUnits="userSpaceOnUse">
<stop stop-color="#CCA0F9" stop-opacity="0.1"/>
<stop offset="1" stop-color="#736CEC"/>
</linearGradient>
<linearGradient id="paint3_linear_434_4978" x1="41.6853" y1="296.769" x2="41.3284" y2="383.156" gradientUnits="userSpaceOnUse">
<stop stop-color="#CCA0F9" stop-opacity="0.1"/>
<stop offset="1" stop-color="#736CEC"/>
</linearGradient>
<linearGradient id="paint4_linear_434_4978" x1="118.566" y1="443.352" x2="21.2652" y2="307.847" gradientUnits="userSpaceOnUse">
<stop stop-color="#CCA0F9"/>
<stop offset="1" stop-color="#736CEC"/>
</linearGradient>
<linearGradient id="paint5_linear_434_4978" x1="198.289" y1="193.911" x2="265.401" y2="193.911" gradientUnits="userSpaceOnUse">
<stop stop-color="#CCA0F9"/>
<stop offset="1" stop-color="#736CEC"/>
</linearGradient>
<linearGradient id="paint6_linear_434_4978" x1="167.073" y1="165.205" x2="203.209" y2="165.205" gradientUnits="userSpaceOnUse">
<stop stop-color="#CCA0F9"/>
<stop offset="1" stop-color="#736CEC"/>
</linearGradient>
<linearGradient id="paint7_linear_434_4978" x1="203.483" y1="149.246" x2="225.181" y2="149.246" gradientUnits="userSpaceOnUse">
<stop stop-color="#CCA0F9"/>
<stop offset="1" stop-color="#736CEC"/>
</linearGradient>
<clipPath id="clip0_434_4978">
<rect width="482" height="438" fill="white"/>
</clipPath>
</defs>
</svg>
