<svg width="525" height="389" viewBox="0 0 525 389" fill="none" xmlns="http://www.w3.org/2000/svg">
<g clip-path="url(#clip0_184_9129)">
<path d="M350.395 153.369C351.357 153.369 352.176 154.056 352.4 154.992C353.256 158.584 354.675 161.96 356.553 165.042C357.051 165.859 356.954 166.917 356.278 167.594L352.031 171.843C351.248 172.626 351.25 173.895 352.035 174.675L358.649 181.252C359.431 182.03 360.694 182.028 361.474 181.248L365.669 177.05C366.346 176.373 367.405 176.276 368.223 176.775C371.304 178.654 374.681 180.075 378.29 180.931C379.227 181.153 379.915 181.973 379.915 182.936V188.905C379.915 190.009 380.81 190.905 381.915 190.905H391.226C392.331 190.905 393.226 190.009 393.226 188.905V182.934C393.226 181.972 393.913 181.153 394.849 180.929C398.44 180.074 401.826 178.655 404.89 176.779C405.708 176.279 406.769 176.373 407.448 177.049L411.665 181.251C412.446 182.029 413.709 182.029 414.489 181.251L421.085 174.672C421.866 173.893 421.868 172.628 421.09 171.845L416.859 167.593C416.185 166.916 416.09 165.861 416.586 165.044C418.461 161.959 419.867 158.578 420.736 154.981C420.961 154.05 421.779 153.369 422.737 153.369H428.739C429.844 153.369 430.739 152.474 430.739 151.369V142.078C430.739 140.974 429.844 140.078 428.739 140.078H422.718C421.756 140.078 420.936 139.391 420.713 138.455C419.857 134.863 418.44 131.475 416.566 128.409C416.066 127.59 416.161 126.529 416.839 125.85L421.086 121.6C421.867 120.819 421.866 119.554 421.086 118.773L414.492 112.175C413.711 111.393 412.444 111.393 411.663 112.175L407.448 116.393C406.769 117.073 405.706 117.168 404.887 116.667C401.82 114.789 398.431 113.369 394.837 112.495C393.906 112.269 393.226 111.452 393.226 110.494V104.515C393.226 103.41 392.331 102.515 391.226 102.515H381.915C380.81 102.515 379.915 103.41 379.915 104.515V110.492C379.915 111.451 379.233 112.268 378.302 112.494C374.693 113.367 371.318 114.788 368.254 116.666C367.435 117.168 366.372 117.073 365.693 116.393L361.476 112.173C360.696 111.392 359.43 111.391 358.649 112.171L352.03 118.773C351.248 119.553 351.247 120.821 352.028 121.602L356.273 125.85C356.951 126.529 357.047 127.59 356.547 128.409C354.675 131.478 353.272 134.87 352.404 138.466C352.179 139.398 351.362 140.078 350.404 140.078H344.373C343.269 140.078 342.373 140.974 342.373 142.078V151.369C342.373 152.474 343.269 153.369 344.373 153.369H350.395ZM369.661 146.738C369.661 137.405 377.214 129.789 386.57 129.789C395.898 129.789 403.452 137.405 403.452 146.738C403.452 156.042 395.898 163.629 386.57 163.629C377.214 163.629 369.661 156.042 369.661 146.738Z" fill="#CCA0F9"/>
<path d="M369 389H295L302.899 322H361.1L369 389Z" fill="url(#paint0_linear_184_9129)"/>
<path d="M419 389L243.641 389L243.641 384.721C243.641 382.703 245.271 381.065 247.277 381.065L415.364 381.065C417.371 381.065 419 382.703 419 384.721L419 389Z" fill="#9CA4AB"/>
<path d="M460.903 160H203C194.163 160 187 167.163 187 176V319.529C187 328.365 194.163 335.529 203 335.529H460.903C469.74 335.529 476.903 328.365 476.903 319.529V176C476.903 167.163 469.74 160 460.903 160Z" fill="#495057"/>
<path d="M455.626 170.052H208C202.477 170.052 198 174.529 198 180.052V315.063C198 320.586 202.477 325.063 208 325.063H455.626C461.149 325.063 465.626 320.586 465.626 315.063V180.052C465.626 174.529 461.149 170.052 455.626 170.052Z" fill="#F0F6FF"/>
<path d="M199.526 80.2231C199.526 59.0345 182.36 41.8578 161.184 41.8578C158.363 41.8578 155.622 42.183 152.974 42.7614C150.638 18.7598 130.421 0 105.82 0C82.6732 0 63.4147 16.6114 59.2725 38.5673C57.6841 38.2783 56.0552 38.1049 54.3835 38.1049C39.7505 38.1049 27.8512 49.6792 27.2492 64.1727H27.2181V64.174C27.2091 64.174 27.2006 64.1727 27.1916 64.1727C12.1741 64.1727 0 76.354 0 91.3805C0 106.407 12.1741 118.588 27.1916 118.588C27.6041 118.588 28.0053 118.545 28.4132 118.527H159.962C160.371 118.54 160.771 118.588 161.183 118.588C161.596 118.588 161.996 118.54 162.405 118.527H163.339V118.479C183.506 117.355 199.526 100.684 199.526 80.2231Z" fill="#6DA6FF"/>
<path d="M123.789 74.7205L99.7644 45.6141L75.7369 74.7205H91.7336V98.3155H107.796V74.7205H123.789Z" fill="white"/>
<path d="M104.667 125.574H91.9532C91.6247 125.574 91.3585 125.84 91.3585 126.169V132.549C91.3585 132.877 91.6247 133.144 91.9532 133.144H104.667C104.995 133.144 105.262 132.877 105.262 132.549V126.169C105.262 125.84 104.995 125.574 104.667 125.574Z" fill="#736CEC"/>
<path d="M103.288 118.589H93.3329V125.564H103.288V118.589Z" fill="#CBA0F9"/>
<path d="M94.9571 118.935H93.9404V122.044H94.9571V118.935Z" fill="white"/>
<path d="M96.4911 118.935H95.4751V122.044H96.4911V118.935Z" fill="white"/>
<path d="M98.0249 118.935H97.0099V122.044H98.0249V118.935Z" fill="white"/>
<path d="M99.5597 118.935H98.5448V122.044H99.5597V118.935Z" fill="white"/>
<path d="M101.096 118.935H100.08V122.044H101.096V118.935Z" fill="white"/>
<path d="M102.63 118.935H101.614V122.044H102.63V118.935Z" fill="white"/>
<path d="M98.0249 141.792V237.061C98.0249 240.374 100.711 243.061 104.025 243.061H149.984" stroke="#8C7BF0" stroke-width="3.5266" stroke-miterlimit="10"/>
<path d="M252.528 88.4408C253.482 88.5585 254.213 89.34 254.309 90.2973C254.841 95.6487 256.296 100.777 258.514 105.531C258.918 106.398 258.691 107.437 257.937 108.026L250.55 113.797C249.678 114.478 249.525 115.738 250.208 116.608L258.84 127.599C259.521 128.466 260.775 128.619 261.644 127.94L268.951 122.232C269.706 121.642 270.77 121.674 271.513 122.278C275.585 125.584 280.209 128.242 285.297 130.059C286.204 130.383 286.786 131.282 286.668 132.238L285.529 141.494C285.394 142.59 286.174 143.588 287.27 143.723L301.117 145.429C302.213 145.564 303.211 144.785 303.346 143.688L304.485 134.431C304.603 133.476 305.384 132.745 306.342 132.65C311.691 132.119 316.838 130.667 321.564 128.448C322.431 128.04 323.473 128.265 324.064 129.02L329.801 136.34C330.481 137.208 331.735 137.362 332.604 136.684L343.613 128.112C344.484 127.433 344.641 126.178 343.964 125.307L338.222 117.915C337.636 117.161 337.669 116.1 338.27 115.358C341.572 111.281 344.204 106.651 346.04 101.587C346.366 100.686 347.262 100.111 348.213 100.228L357.51 101.373C358.606 101.508 359.604 100.729 359.739 99.6324L361.44 85.8121C361.575 84.7159 360.796 83.7179 359.699 83.5829L350.373 82.434C349.418 82.3164 348.687 81.5348 348.592 80.5774C348.061 75.2254 346.611 70.0756 344.394 65.3473C343.986 64.4787 344.212 63.4363 344.968 62.8456L352.355 57.0741C353.226 56.3944 353.38 55.1382 352.701 54.2677L344.103 43.2495C343.424 42.3783 342.166 42.2235 341.295 42.9039L333.955 48.6396C333.198 49.2309 332.131 49.1972 331.386 48.5903C327.337 45.2885 322.693 42.6288 317.632 40.7876C316.732 40.4602 316.158 39.5646 316.274 38.6144L317.415 29.3478C317.549 28.2516 316.77 27.2536 315.674 27.1185L301.827 25.4128C300.731 25.2777 299.733 26.0571 299.598 27.1536L298.458 36.4173C298.341 37.3686 297.565 38.0985 296.611 38.1969C291.232 38.7517 286.104 40.2079 281.379 42.4295C280.51 42.8381 279.467 42.612 278.876 41.8548L273.142 34.506C272.463 33.6357 271.207 33.4801 270.336 34.1583L259.29 42.7605C258.418 43.4397 258.263 44.6974 258.942 45.5689L264.709 52.9589C265.299 53.7153 265.265 54.7814 264.66 55.5258C261.365 59.578 258.734 64.2286 256.899 69.293C256.573 70.1936 255.677 70.7687 254.726 70.6516L245.391 69.5017C244.295 69.3666 243.297 70.146 243.162 71.2424L241.461 85.0628C241.326 86.1589 242.106 87.157 243.202 87.292L252.528 88.4408ZM278.833 82.6702C280.37 70.1785 291.735 61.2301 304.258 62.7728C316.743 64.3108 325.6 75.7502 324.063 88.2419C322.531 100.696 311.17 109.605 298.685 108.067C286.161 106.524 277.301 95.1244 278.833 82.6702Z" fill="#CCA0F9"/>
<g filter="url(#filter0_dd_184_9129)">
<path d="M336.439 201.403H157.984C153.565 201.403 149.984 204.985 149.984 209.403V297.464C149.984 301.883 153.565 305.464 157.984 305.464H336.439C340.857 305.464 344.439 301.883 344.439 297.464V209.403C344.439 204.985 340.857 201.403 336.439 201.403Z" fill="white"/>
</g>
<path d="M149.984 220.184H344.439" stroke="url(#paint1_linear_184_9129)" stroke-width="0.3161" stroke-miterlimit="10"/>
<path d="M161.988 213.881C163.279 213.881 164.325 212.834 164.325 211.542C164.325 210.25 163.279 209.203 161.988 209.203C160.697 209.203 159.65 210.25 159.65 211.542C159.65 212.834 160.697 213.881 161.988 213.881Z" fill="#EF3333"/>
<path d="M170.936 213.881C172.227 213.881 173.274 212.834 173.274 211.542C173.274 210.25 172.227 209.203 170.936 209.203C169.645 209.203 168.598 210.25 168.598 211.542C168.598 212.834 169.645 213.881 170.936 213.881Z" fill="#EDA43A"/>
<path d="M179.884 213.881C181.175 213.881 182.222 212.834 182.222 211.542C182.222 210.25 181.175 209.203 179.884 209.203C178.593 209.203 177.547 210.25 177.547 211.542C177.547 212.834 178.593 213.881 179.884 213.881Z" fill="#5ACC52"/>
<g filter="url(#filter1_dd_184_9129)">
<path d="M521 127.809H373.498C371.289 127.809 369.498 129.6 369.498 131.809V227.87C369.498 230.08 371.289 231.87 373.498 231.87H521C523.209 231.87 525 230.08 525 227.87V131.809C525 129.6 523.209 127.809 521 127.809Z" fill="white"/>
</g>
<path d="M369.498 146.59H525" stroke="url(#paint2_linear_184_9129)" stroke-width="0.3161" stroke-miterlimit="10"/>
<path d="M381.502 140.287C382.793 140.287 383.84 139.24 383.84 137.948C383.84 136.656 382.793 135.609 381.502 135.609C380.211 135.609 379.165 136.656 379.165 137.948C379.165 139.24 380.211 140.287 381.502 140.287Z" fill="#EF3333"/>
<path d="M390.451 140.287C391.742 140.287 392.788 139.24 392.788 137.948C392.788 136.656 391.742 135.609 390.451 135.609C389.16 135.609 388.113 136.656 388.113 137.948C388.113 139.24 389.16 140.287 390.451 140.287Z" fill="#EDA43A"/>
<path d="M399.399 140.287C400.69 140.287 401.737 139.24 401.737 137.948C401.737 136.656 400.69 135.609 399.399 135.609C398.108 135.609 397.062 136.656 397.062 137.948C397.062 139.24 398.108 140.287 399.399 140.287Z" fill="#5ACC52"/>
<path d="M211.261 276.456L211.172 273.872H165.468L165.56 276.456H211.261Z" fill="#EDEEF1"/>
<path d="M202.23 268.682L202.138 266.099H165.468L165.56 268.682H202.23Z" fill="#EDEEF1"/>
<path d="M187.174 261.191L187.085 258.607H165.468L165.56 261.191H187.174Z" fill="#E4D6F5"/>
<path d="M211.264 253.417L211.172 250.833H165.468L165.56 253.417H211.264Z" fill="#EDEEF1"/>
<path d="M202.23 245.644L202.138 243.061H165.468L165.56 245.644H202.23Z" fill="#EDEEF1"/>
<path d="M197.013 261.191L196.921 258.607H190.363L190.452 261.191H197.013Z" fill="#E4D6F5"/>
<path d="M202.23 291.722L202.138 289.139H165.468L165.56 291.722H202.23Z" fill="#EDEEF1"/>
<path d="M187.174 284.231L187.085 281.647H165.468L165.56 284.231H187.174Z" fill="#E4D6F5"/>
<path d="M197.013 284.231L196.921 281.647H190.363L190.452 284.231H197.013Z" fill="#E4D6F5"/>
<path d="M187.174 238.152L187.083 235.569H165.468L165.56 238.152H187.174Z" fill="#E4D6F5"/>
<path d="M196.703 238.152L196.614 235.569H190.053L190.145 238.152H196.703Z" fill="#E4D6F5"/>
<path d="M257.369 291.722L257.28 289.138H220.607L220.699 291.722H257.369Z" fill="#EDEEF1"/>
<path d="M242.313 284.23L242.224 281.647H220.607L220.699 284.23H242.313Z" fill="#E4D6F5"/>
<path d="M266.402 276.457L266.311 273.874H220.607L220.699 276.457H266.402Z" fill="#EDEEF1"/>
<path d="M257.369 268.683L257.277 266.1H220.607L220.699 268.683H257.369Z" fill="#EDEEF1"/>
<path d="M252.459 284.23L252.37 281.647H245.809L245.901 284.23H252.459Z" fill="#E4D6F5"/>
<path d="M242.313 261.192L242.224 258.608H220.607L220.699 261.192H242.313Z" fill="#E4D6F5"/>
<path d="M266.402 253.419L266.311 250.834H220.607L220.699 253.419H266.402Z" fill="#EDEEF1"/>
<path d="M252.152 261.192L252.06 258.608H245.502L245.591 261.192H252.152Z" fill="#E4D6F5"/>
<path d="M242.313 245.925L242.224 243.342H220.607L220.699 245.925H242.313Z" fill="#E4D6F5"/>
<path d="M266.402 238.152L266.314 235.569H220.607L220.699 238.152H266.402Z" fill="#EDEEF1"/>
<path d="M251.845 245.925L251.753 243.342H245.195L245.284 245.925H251.845Z" fill="#E4D6F5"/>
<path d="M321.541 276.596L321.453 274.012H275.749L275.837 276.596H321.541Z" fill="#EDEEF1"/>
<path d="M312.508 268.822L312.419 266.239H275.749L275.837 268.822H312.508Z" fill="#EDEEF1"/>
<path d="M297.454 261.331L297.363 258.747H275.749L275.837 261.331H297.454Z" fill="#E4D6F5"/>
<path d="M321.541 253.557L321.453 250.973H275.749L275.837 253.557H321.541Z" fill="#EDEEF1"/>
<path d="M312.508 245.784L312.419 243.201H275.749L275.837 245.784H312.508Z" fill="#EDEEF1"/>
<path d="M307.291 261.331L307.202 258.747H300.641L300.732 261.331H307.291Z" fill="#E4D6F5"/>
<path d="M312.508 291.722L312.419 289.139H275.749L275.837 291.722H312.508Z" fill="#EDEEF1"/>
<path d="M297.454 284.231L297.363 281.647H275.749L275.837 284.231H297.454Z" fill="#E4D6F5"/>
<path d="M307.291 284.231L307.202 281.647H300.641L300.732 284.231H307.291Z" fill="#E4D6F5"/>
<path d="M297.452 238.292L297.363 235.708H275.749L275.837 238.292H297.452Z" fill="#E4D6F5"/>
<path d="M307.194 238.433H300.223L300.124 235.569H307.094L307.194 238.433Z" fill="#E4D6F5"/>
<path d="M448.011 170.044L439.224 161.61C438.548 160.96 437.648 160.596 436.712 160.59L417.286 160.481C415.266 160.47 413.618 162.099 413.607 164.122L413.569 170.855L413.336 212.241C413.324 214.263 414.953 215.912 416.974 215.923L477.263 216.262C479.284 216.275 480.932 214.644 480.944 212.622L481.156 174.898C481.167 172.876 479.539 171.227 477.517 171.216L450.524 171.063C449.587 171.059 448.688 170.695 448.011 170.044Z" fill="#9151E4"/>
<path d="M440.416 202.986L422.417 195.127L422.423 190.787L440.443 183.012L440.437 188.122L427.868 192.911L440.423 197.912L440.416 202.986Z" fill="white"/>
<path d="M442.079 206.431L448.621 179.257L452.401 179.262L445.789 206.436L442.079 206.431Z" fill="white"/>
<path d="M454.035 203.023L454.043 197.948L466.628 193.017L454.055 188.104L454.062 183.065L472.079 190.889L472.073 195.192L454.035 203.023Z" fill="white"/>
<path d="M94.8458 142.78C94.9722 143.201 95.5168 143.504 96.1471 143.504H100.473C101.105 143.504 101.648 143.201 101.776 142.78L104.668 133.144H91.9528L94.8458 142.78Z" fill="#CBA0F9"/>
</g>
<defs>
<filter id="filter0_dd_184_9129" x="133.984" y="193.403" width="226.455" height="136.061" filterUnits="userSpaceOnUse" color-interpolation-filters="sRGB">
<feFlood flood-opacity="0" result="BackgroundImageFix"/>
<feColorMatrix in="SourceAlpha" type="matrix" values="0 0 0 0 0 0 0 0 0 0 0 0 0 0 0 0 0 0 127 0" result="hardAlpha"/>
<feOffset dy="4"/>
<feGaussianBlur stdDeviation="4"/>
<feComposite in2="hardAlpha" operator="out"/>
<feColorMatrix type="matrix" values="0 0 0 0 0 0 0 0 0 0 0 0 0 0 0 0 0 0 0.04 0"/>
<feBlend mode="normal" in2="BackgroundImageFix" result="effect1_dropShadow_184_9129"/>
<feColorMatrix in="SourceAlpha" type="matrix" values="0 0 0 0 0 0 0 0 0 0 0 0 0 0 0 0 0 0 127 0" result="hardAlpha"/>
<feOffset dy="8"/>
<feGaussianBlur stdDeviation="8"/>
<feComposite in2="hardAlpha" operator="out"/>
<feColorMatrix type="matrix" values="0 0 0 0 0 0 0 0 0 0 0 0 0 0 0 0 0 0 0.04 0"/>
<feBlend mode="normal" in2="effect1_dropShadow_184_9129" result="effect2_dropShadow_184_9129"/>
<feBlend mode="normal" in="SourceGraphic" in2="effect2_dropShadow_184_9129" result="shape"/>
</filter>
<filter id="filter1_dd_184_9129" x="353.498" y="119.809" width="187.502" height="136.061" filterUnits="userSpaceOnUse" color-interpolation-filters="sRGB">
<feFlood flood-opacity="0" result="BackgroundImageFix"/>
<feColorMatrix in="SourceAlpha" type="matrix" values="0 0 0 0 0 0 0 0 0 0 0 0 0 0 0 0 0 0 127 0" result="hardAlpha"/>
<feOffset dy="4"/>
<feGaussianBlur stdDeviation="4"/>
<feComposite in2="hardAlpha" operator="out"/>
<feColorMatrix type="matrix" values="0 0 0 0 0 0 0 0 0 0 0 0 0 0 0 0 0 0 0.04 0"/>
<feBlend mode="normal" in2="BackgroundImageFix" result="effect1_dropShadow_184_9129"/>
<feColorMatrix in="SourceAlpha" type="matrix" values="0 0 0 0 0 0 0 0 0 0 0 0 0 0 0 0 0 0 127 0" result="hardAlpha"/>
<feOffset dy="8"/>
<feGaussianBlur stdDeviation="8"/>
<feComposite in2="hardAlpha" operator="out"/>
<feColorMatrix type="matrix" values="0 0 0 0 0 0 0 0 0 0 0 0 0 0 0 0 0 0 0.04 0"/>
<feBlend mode="normal" in2="effect1_dropShadow_184_9129" result="effect2_dropShadow_184_9129"/>
<feBlend mode="normal" in="SourceGraphic" in2="effect2_dropShadow_184_9129" result="shape"/>
</filter>
<linearGradient id="paint0_linear_184_9129" x1="332" y1="389" x2="332" y2="311.811" gradientUnits="userSpaceOnUse">
<stop stop-color="#ADB5BD"/>
<stop offset="1" stop-color="#343A40"/>
</linearGradient>
<linearGradient id="paint1_linear_184_9129" x1="-nan" y1="-nan" x2="-nan" y2="-nan" gradientUnits="userSpaceOnUse">
<stop stop-color="#D2CFE5"/>
<stop offset="0.3205" stop-color="#CECBE2"/>
<stop offset="0.5761" stop-color="#C4C1DB"/>
<stop offset="0.8087" stop-color="#B4B1CE"/>
<stop offset="1" stop-color="#A09DBF"/>
</linearGradient>
<linearGradient id="paint2_linear_184_9129" x1="-nan" y1="-nan" x2="-nan" y2="-nan" gradientUnits="userSpaceOnUse">
<stop stop-color="#D2CFE5"/>
<stop offset="0.3205" stop-color="#CECBE2"/>
<stop offset="0.5761" stop-color="#C4C1DB"/>
<stop offset="0.8087" stop-color="#B4B1CE"/>
<stop offset="1" stop-color="#A09DBF"/>
</linearGradient>
<clipPath id="clip0_184_9129">
<rect width="525" height="389" fill="white"/>
</clipPath>
</defs>
</svg>
