<svg width="161" height="18" viewBox="0 0 161 18" fill="none" xmlns="http://www.w3.org/2000/svg">
<path d="M16.0767 13.5571H16.2003V16.6158H16.0767C7.3949 16.6158 0.330017 9.53035 0.330017 0.807385H3.38872C3.38872 7.84137 9.08388 13.5571 16.0767 13.5571Z" fill="#455157" style="mix-blend-mode:luminosity"/>
<path d="M6.41653 0.807385H9.42374C9.42374 4.5046 12.4103 7.52211 16.0973 7.52211H16.2209V10.519H16.0973C10.742 10.519 6.41653 6.17299 6.41653 0.807385ZM16.2003 0.807385V4.5046H16.0767C14.0478 4.5046 12.3897 2.84652 12.3897 0.807385H16.2003Z" fill="#455157" style="mix-blend-mode:luminosity"/>
<path fill-rule="evenodd" clip-rule="evenodd" d="M33.5844 9.9011H27.5391V17.0381H25.397V0.951566H34.4907V2.69204H27.5391V8.23272H33.5844V9.9011ZM43.0901 15.2976H51.432V17.0381H40.9376V0.951566H43.0901V15.2976ZM59.2075 15.2976H66.7358V17.0381H57.055V0.961865H66.1488V2.70234H59.2075V7.85167H65.2425V9.41707H59.2075V15.2976ZM75.1704 15.2976H82.6987V17.0381H73.018V0.961865H82.1117V2.70234H75.1704V7.85167H81.2054V9.41707H75.1704V15.2976ZM100.721 2.59935H95.3455V17.0381H93.2857V2.59935H87.8377V0.951566H100.721V2.59935ZM115.932 13.5571H117.838C117.838 14.4428 117.498 15.277 116.828 16.0391C115.953 17.0381 114.604 17.5324 112.771 17.5324C110.742 17.5324 109.084 16.8218 107.807 15.38C106.489 13.9279 105.83 11.8167 105.83 9.00512C105.83 6.13179 106.489 3.99997 107.807 2.63025C109.084 1.17814 110.721 0.467529 112.771 0.467529C114.535 0.467529 115.833 0.886345 116.664 1.72397C117.446 2.65085 117.807 3.58802 117.807 4.46341H115.902C115.902 3.68071 115.654 3.11429 115.17 2.72294C114.604 2.33159 113.852 2.13591 112.843 2.13591C111.401 2.13591 110.279 2.59935 109.444 3.53653C108.445 4.85476 107.961 6.67762 107.961 9.00512C107.961 11.3841 108.445 13.1967 109.444 14.4634C110.279 15.4727 111.38 15.967 112.75 15.967C113.749 15.967 114.532 15.7404 115.15 15.2976C115.685 14.8651 115.932 14.2677 115.932 13.5571ZM130.227 17.5324C128.25 17.5324 126.612 16.8012 125.366 15.2976C124.099 13.8558 123.461 11.7755 123.461 9.00512C123.461 6.13179 124.12 3.99997 125.438 2.63025C126.715 1.17814 128.301 0.467529 130.227 0.467529C132.215 0.467529 133.852 1.17814 135.098 2.63025C136.365 4.22654 137.004 6.35836 137.004 9.00512C137.004 11.7755 136.365 13.8558 135.098 15.2976C133.904 16.8012 132.287 17.5324 130.227 17.5324ZM130.227 15.8949C131.597 15.8949 132.647 15.4006 133.358 14.3913C134.367 13.1246 134.851 11.3326 134.851 9.00512C134.851 6.62613 134.367 4.83416 133.358 3.60862C132.647 2.59935 131.597 2.11532 130.227 2.11532C128.909 2.11532 127.858 2.59935 127.107 3.60862C126.097 4.83416 125.613 6.62613 125.613 9.00512C125.613 11.3326 126.097 13.1246 127.107 14.3913C127.858 15.38 128.909 15.8949 130.227 15.8949ZM147.518 10.1586H145.438V17.0381H143.286V0.961865H148.25C149.743 0.961865 150.938 1.35321 151.895 2.11532C152.678 2.89801 153.039 3.90728 153.039 5.17402C153.039 6.27597 152.771 7.19256 152.215 7.92376C151.604 8.75452 150.721 9.39304 149.568 9.83931C150.062 10.1071 150.402 10.3233 150.577 10.4984C150.742 10.622 151.082 11.209 151.648 12.311L154.213 17.0381H151.823L149.568 12.8053C149.08 11.7755 148.397 10.8932 147.518 10.1586ZM147.591 2.59935H145.438V8.49019H147.415C148.517 8.49019 149.372 8.19153 149.99 7.5839C150.546 7.01748 150.814 6.27597 150.814 5.3491C150.814 4.46341 150.577 3.7837 150.083 3.26877C149.475 2.84652 148.641 2.59935 147.591 2.59935ZM160.33 3.09369C160.33 3.39235 160.279 3.68071 160.155 3.92788C160.059 4.17505 159.915 4.39475 159.722 4.58699C159.523 4.7861 159.3 4.93372 159.053 5.02984C158.813 5.12595 158.545 5.17402 158.25 5.17402C157.954 5.17402 157.687 5.12595 157.446 5.02984C157.199 4.93372 156.98 4.7861 156.787 4.58699C156.592 4.39132 156.437 4.17505 156.324 3.92788C156.2 3.68071 156.149 3.39235 156.149 3.09369C156.149 2.79503 156.2 2.50666 156.324 2.2595C156.437 2.01233 156.592 1.79606 156.787 1.60038C156.952 1.40471 157.199 1.25023 157.446 1.15754C157.687 1.06142 157.954 1.01336 158.25 1.01336C158.545 1.01336 158.813 1.06142 159.053 1.15754C159.3 1.25366 159.523 1.40128 159.722 1.60038C159.887 1.79263 160.031 2.01233 160.155 2.2595C160.258 2.50666 160.309 2.79503 160.33 3.09369ZM159.939 3.09369C159.939 2.82592 159.918 2.59935 159.815 2.38308C159.722 2.16681 159.599 1.97113 159.444 1.81665C159.3 1.67247 159.135 1.54889 158.909 1.4562C158.693 1.35321 158.466 1.30172 158.229 1.30172C157.982 1.30172 157.766 1.35321 157.539 1.4562C157.343 1.52829 157.148 1.67247 157.004 1.81665C156.828 1.99173 156.736 2.16681 156.633 2.38308C156.561 2.59935 156.52 2.84652 156.52 3.09369C156.52 3.34086 156.54 3.58802 156.633 3.8043C156.736 4.02057 156.859 4.19565 157.004 4.37072C157.148 4.5149 157.323 4.63849 157.539 4.73118C157.766 4.83416 157.982 4.88566 158.229 4.88566C158.466 4.88566 158.713 4.83416 158.909 4.73118C159.104 4.65908 159.3 4.5149 159.444 4.37072C159.599 4.22654 159.722 4.02057 159.815 3.8043C159.887 3.58802 159.939 3.34086 159.939 3.09369Z" fill="#455157" style="mix-blend-mode:luminosity"/>
<path fill-rule="evenodd" clip-rule="evenodd" d="M158.569 3.23787L159.28 4.30893H158.857L158.198 3.25847H157.807V4.30893H157.415V1.85785H158.373C158.662 1.85785 158.857 1.90934 159.012 2.03293C159.156 2.12904 159.228 2.30069 159.228 2.54786C159.228 2.76413 159.156 2.93921 159.032 3.04219C158.909 3.15548 158.744 3.20697 158.569 3.23787ZM158.445 2.93921C158.517 2.93921 158.59 2.91861 158.641 2.88771C158.713 2.86712 158.765 2.81562 158.785 2.76413C158.816 2.72294 158.837 2.65085 158.837 2.54786C158.837 2.47577 158.816 2.40368 158.785 2.35218C158.765 2.30069 158.713 2.2492 158.662 2.2286C158.62 2.208 158.569 2.17711 158.497 2.17711C158.425 2.15651 158.373 2.15651 158.301 2.15651H157.786V2.93921H158.445Z" fill="#455157" style="mix-blend-mode:luminosity"/>
</svg>
