<svg width="141" height="20" viewBox="0 0 141 20" fill="none" xmlns="http://www.w3.org/2000/svg">
<path fill-rule="evenodd" clip-rule="evenodd" d="M0.329956 19.0438H4.23838V7.10591C4.23838 6.56443 4.19023 5.3016 4.04577 3.29015C4.26291 4.5539 4.55091 5.59778 4.74533 6.43543L7.65984 19.0429H11.6655L14.6536 6.22828C14.8616 5.33431 15.1596 4.37219 15.3767 3.28925C15.2559 4.57843 15.1832 5.81673 15.1832 7.02778V19.0429H19.3815V1.15061H12.6748L10.3863 11.7984C10.2346 12.5052 10.0011 13.5772 9.87933 15.0727C9.80756 13.758 9.64766 12.6969 9.42144 11.901L6.35703 1.1497H0.329956V19.0438Z" fill="#455157" style="mix-blend-mode:luminosity"/>
<path fill-rule="evenodd" clip-rule="evenodd" d="M32.8211 1.21148C31.5246 0.762672 30.3281 0.538269 29.2316 0.538269C24.6209 0.538269 21.879 3.15569 21.879 7.31759C21.879 11.3305 24.7199 14.0515 28.8827 14.0515C30.4526 14.0515 31.8236 13.8516 32.9456 13.4491L32.8465 10.084C32.0234 10.5828 31.1512 10.8317 30.1791 10.8317C27.8606 10.8317 26.4152 9.41171 26.4152 7.29215C26.4152 5.12353 27.7861 3.72806 29.9793 3.72806C30.8015 3.72806 31.6491 3.95246 32.5213 4.4258L32.8211 1.21148Z" fill="#455157" style="mix-blend-mode:luminosity"/>
<path fill-rule="evenodd" clip-rule="evenodd" d="M36.1272 1.15061V19.0438H40.8969V10.7418L46.5169 19.0438H52.4477L45.2023 9.37537L51.7763 1.15061H46.4397L40.8969 8.88568V1.15061H36.1272Z" fill="#455157" style="mix-blend-mode:luminosity"/>
<path fill-rule="evenodd" clip-rule="evenodd" d="M54.1929 1.15061V19.0438H66.904V15.5887H58.9636V11.5149H66.1817V8.11254H58.9636V4.50302H66.6205V1.15061H54.1929Z" fill="#455157" style="mix-blend-mode:luminosity"/>
<path fill-rule="evenodd" clip-rule="evenodd" d="M83.4307 1.35684C81.8844 0.918936 80.26 0.712703 78.532 0.712703C73.6851 0.712703 71.0813 2.74959 71.0813 6.30732C71.0813 8.96291 72.6021 10.3811 75.8255 11.5413C78.0169 12.3408 79.4087 12.5724 79.4087 13.9134C79.4087 15.0999 78.274 15.8731 76.3661 15.8731C75.0251 15.8731 73.4271 15.5124 71.6736 14.7129L71.2612 18.7094C73.1173 19.2291 74.9225 19.4617 76.6496 19.4617C81.6773 19.4617 84.3074 17.2912 84.3074 13.3983C84.3074 11.7221 83.7396 10.511 82.4759 9.53073C81.3166 8.65401 79.6404 8.18976 77.6035 7.52019C76.4951 7.15951 75.9536 6.5926 75.9536 5.84398C75.9536 4.78647 77.0366 4.1169 79.0208 4.1169C80.2845 4.1169 81.6246 4.4258 83.0691 5.04449L83.4307 1.35684Z" fill="#455157" style="mix-blend-mode:luminosity"/>
<path fill-rule="evenodd" clip-rule="evenodd" d="M99.6186 1.35684C98.0723 0.918936 96.4479 0.712703 94.7199 0.712703C89.873 0.712703 87.2683 2.74959 87.2683 6.30732C87.2683 8.96291 88.79 10.3811 92.0134 11.5413C94.2048 12.3408 95.5966 12.5724 95.5966 13.9134C95.5966 15.0999 94.4619 15.8731 92.554 15.8731C91.213 15.8731 89.615 15.5124 87.8615 14.7129L87.4491 18.7094C89.3051 19.2291 91.1095 19.4617 92.8374 19.4617C97.8652 19.4617 100.495 17.2912 100.495 13.3983C100.495 11.7221 99.9284 10.511 98.6646 9.53073C97.5045 8.65401 95.8283 8.18976 93.7923 7.52019C92.683 7.15951 92.1424 6.5926 92.1424 5.84398C92.1424 4.78647 93.2245 4.1169 95.2105 4.1169C96.4742 4.1169 97.8143 4.4258 99.2579 5.04449L99.6186 1.35684Z" fill="#455157" style="mix-blend-mode:luminosity"/>
<path fill-rule="evenodd" clip-rule="evenodd" d="M112.252 0.712703C106.709 0.712703 103.357 4.19322 103.357 10.0976C103.357 16.0021 106.683 19.4608 112.252 19.4608C117.796 19.4608 121.121 16.0012 121.121 10.0976C121.121 4.19412 117.796 0.712703 112.252 0.712703ZM112.252 4.19322C114.624 4.19322 116.325 6.38455 116.325 10.0459C116.325 13.7326 114.649 15.9239 112.252 15.9239C109.854 15.9239 108.152 13.7326 108.152 10.0459C108.152 6.35911 109.88 4.19322 112.252 4.19322Z" fill="#455157" style="mix-blend-mode:luminosity"/>
<path fill-rule="evenodd" clip-rule="evenodd" d="M123.932 1.15061V19.0438H128.238V9.60795C128.238 8.29243 128.083 6.51356 127.748 4.29588C128.083 5.66228 128.496 6.87424 129.012 7.93084L134.4 19.0429H140.33V1.15061H136.025V11.2832C136.025 12.547 136.18 14.0424 136.462 15.744C135.896 13.888 135.431 12.5988 135.071 11.8765L129.888 1.15061H123.932Z" fill="#455157" style="mix-blend-mode:luminosity"/>
<path fill-rule="evenodd" clip-rule="evenodd" d="M23.0482 16.0002H32.8047V19.1991H23.0482V16.0002Z" fill="#B993EC" style="mix-blend-mode:luminosity"/>
</svg>
