<svg width="101" height="62" viewBox="0 0 101 62" fill="none" xmlns="http://www.w3.org/2000/svg">
<path d="M93.3624 61.6796H52.723L54.2481 57.495C71.7802 56.4324 79.4837 41.8224 79.4837 30.5359C79.4837 18.5822 69.9207 4.83471 52.5199 4.50344L53.984 0.321997H94.1578C97.3423 0.321997 100.33 3.30964 100.33 6.09727V53.1776C100.33 58.6904 98.1423 61.678 93.3577 61.678L93.3624 61.6796ZM51.1136 25.8201C50.7167 27.0123 45.1367 42.688 45.1367 42.688H38.6443L45.8165 22.4996H42.2304L35.0613 42.688H28.7688L43.8414 0.320435H50.1495L43.5085 18.9776H48.2228C50.4807 18.9776 52.0761 20.637 52.0761 22.5637C52.0761 23.4934 51.412 25.0841 51.1464 25.8185L51.1136 25.8201ZM72.1614 25.7498C71.7646 26.9467 68.0456 37.4409 67.38 39.2316C66.7143 41.0223 65.7861 43.6131 62.7313 43.6131H55.6451L49.1354 61.6764H42.6288L57.8358 18.976H69.2582C71.4458 18.976 73.1068 20.6354 73.1068 22.5621C73.1068 23.359 72.6443 24.4888 72.1771 25.7466L72.1614 25.7498ZM39.113 61.6796H7.30216C2.51756 61.6796 0.329956 58.6919 0.329956 53.1776V6.09727C0.329956 3.30964 3.3176 0.321997 6.50212 0.321997H40.2537L38.8443 4.43625C28.7532 8.42081 20.9809 18.5822 20.9809 30.5344C20.9809 41.8224 27.6219 52.7791 40.7053 57.0981L39.113 61.6796ZM63.1485 22.4996L56.906 40.0973H60.4921L66.7346 22.4996H63.1485Z" fill="#455157" style="mix-blend-mode:luminosity"/>
</svg>
