<svg width="151" height="34" viewBox="0 0 151 34" fill="none" xmlns="http://www.w3.org/2000/svg">
<path fill-rule="evenodd" clip-rule="evenodd" d="M51.518 16.1483C52.2268 16.0327 52.917 15.9752 53.5884 15.9752C54.2586 15.9752 54.9584 16.0327 55.6872 16.1483V26.3289C54.69 26.6945 53.6503 26.9393 52.5675 27.0645C51.4846 27.1892 50.5408 27.2518 49.736 27.2518C48.0487 27.2518 46.5731 26.9871 45.3081 26.4587C44.0436 25.9298 42.9892 25.1896 42.1458 24.2377C41.3025 23.2866 40.6697 22.157 40.2486 20.8492C39.827 19.542 39.6159 18.1192 39.6159 16.5808C39.6159 15.0424 39.836 13.6151 40.2776 12.2976C40.718 10.9813 41.3554 9.84201 42.1891 8.88041C43.0228 7.91881 44.0483 7.16901 45.2657 6.63041C46.4825 6.09231 47.8673 5.82311 49.4195 5.82311C50.3394 5.82311 51.197 5.88061 51.9927 5.99621C52.7878 6.11171 53.6169 6.35201 54.4796 6.71691C54.441 7.29421 54.3258 7.85621 54.1345 8.40441C53.9427 8.95211 53.7322 9.50491 53.5024 10.0629C52.8309 9.83171 52.2373 9.66891 51.7197 9.57211C51.2021 9.47651 50.5886 9.42801 49.8798 9.42801C48.0399 9.42801 46.6261 10.0292 45.6392 11.2306C44.6517 12.4325 44.1585 14.2157 44.1585 16.5807C44.1585 18.9457 44.6472 20.7101 45.625 21.8727C46.6023 23.0364 48.0399 23.6177 49.9372 23.6177C50.263 23.6177 50.5552 23.5989 50.814 23.5602C51.0728 23.522 51.3072 23.4833 51.5183 23.4446L51.518 16.1483Z" fill="#455157" style="mix-blend-mode:luminosity"/>
<path fill-rule="evenodd" clip-rule="evenodd" d="M62.9974 17.3018C62.3646 17.0524 61.7978 16.7786 61.2954 16.4802C60.7931 16.1819 60.3651 15.8266 60.0121 15.4127C59.6585 15 59.3842 14.5047 59.1886 13.9279C58.9936 13.3505 58.8956 12.6588 58.8956 11.8509C58.8956 10.8705 59.0586 10.0051 59.3842 9.25521C59.7092 8.50541 60.1696 7.87571 60.7651 7.36611C61.3604 6.85721 62.0765 6.47231 62.9137 6.21261C63.751 5.95301 64.6902 5.82321 65.7317 5.82321C66.6808 5.82321 67.5686 5.90971 68.3965 6.08281C69.2238 6.25591 70.0935 6.50581 71.0052 6.83261C70.8939 7.94791 70.5959 9.04391 70.1123 10.1206C69.8336 10.005 69.55 9.89001 69.2613 9.77441C68.9726 9.65881 68.6659 9.56311 68.3409 9.48581C68.0148 9.40951 67.6475 9.34681 67.2387 9.29851C66.8294 9.25071 66.364 9.22621 65.8435 9.22621C65.5268 9.22621 65.2062 9.25521 64.8807 9.31271C64.5553 9.37081 64.2622 9.47671 64.0022 9.63041C63.7411 9.78411 63.5274 10.0102 63.3605 10.308C63.193 10.6063 63.1093 10.9957 63.1093 11.4763C63.1093 11.8612 63.1742 12.1829 63.3043 12.4425C63.4343 12.7021 63.6111 12.923 63.8347 13.1058C64.0578 13.2885 64.309 13.4423 64.5876 13.567C64.8669 13.6922 65.1462 13.8124 65.4249 13.9279L67.0993 14.5912C67.8061 14.8793 68.4477 15.1777 69.0244 15.4851C69.6005 15.7931 70.0892 16.1728 70.489 16.6243C70.8889 17.0764 71.2006 17.6241 71.4237 18.268C71.6473 18.9125 71.7586 19.7057 71.7586 20.6479C71.7586 21.6283 71.5868 22.5221 71.2425 23.3301C70.8983 24.1371 70.4009 24.8294 69.7499 25.4062C69.0983 25.983 68.2942 26.435 67.3363 26.7618C66.3779 27.0886 65.2757 27.252 64.0298 27.252C63.4162 27.252 62.8671 27.2326 62.384 27.1945C61.8998 27.1552 61.4394 27.0932 61.0025 27.0066C60.5652 26.9201 60.1328 26.8096 59.7048 26.6752C59.2768 26.5409 58.8307 26.3774 58.3658 26.185C58.4214 25.627 58.5239 25.0457 58.6726 24.4399C58.8214 23.8342 58.9982 23.2241 59.2031 22.6087C59.9841 22.936 60.7189 23.1808 61.4074 23.3443C62.0953 23.5077 62.8302 23.5892 63.6112 23.5892C64.7833 23.5892 65.7043 23.3637 66.3734 22.9116C67.0432 22.46 67.3781 21.7723 67.3781 20.8494C67.3781 20.3883 67.2987 20.0034 67.1407 19.6959C66.9827 19.3885 66.7783 19.1289 66.5271 18.9171C66.2759 18.7058 65.9923 18.5277 65.6761 18.3836C65.3593 18.2395 65.0344 18.1001 64.6995 17.9651L62.9974 17.3018Z" fill="#455157" style="mix-blend-mode:luminosity"/>
<path fill-rule="evenodd" clip-rule="evenodd" d="M79.4379 16.8581C79.6628 16.8972 79.874 16.9161 80.0711 16.9161H80.7881C81.2569 16.9161 81.7167 16.8535 82.1673 16.727C82.6172 16.6011 83.0154 16.3919 83.3625 16.1011C83.7097 15.8097 83.9863 15.4269 84.1929 14.951C84.3989 14.4757 84.5023 13.8883 84.5023 13.1893C84.5023 12.4715 84.3989 11.8645 84.1929 11.3696C83.9863 10.8748 83.7097 10.4771 83.3625 10.1759C83.0154 9.87531 82.6171 9.66201 82.1673 9.53561C81.7168 9.40921 81.2569 9.34601 80.7881 9.34601C80.5815 9.34601 80.3893 9.35121 80.2117 9.36101C80.0333 9.37071 79.7756 9.39491 79.4379 9.43341V16.8581ZM75.33 6.08531C76.1926 6.00771 77.0647 5.94451 77.9466 5.89621C78.828 5.84791 79.7189 5.82321 80.6193 5.82321C81.5573 5.82321 82.5088 5.92041 83.4752 6.11461C84.4411 6.30891 85.3132 6.67271 86.0918 7.20611C86.87 7.74011 87.5031 8.48261 87.9907 9.43321C88.4784 10.3845 88.7227 11.6173 88.7227 13.1313C88.7227 14.6453 88.4783 15.8729 87.9907 16.8144C87.5031 17.7559 86.8749 18.4984 86.1056 19.0416C85.3363 19.5853 84.4782 19.9543 83.5312 20.148C82.5843 20.3422 81.6506 20.4394 80.7319 20.4394C80.4881 20.4394 80.2582 20.4348 80.0426 20.4244C79.8266 20.4153 79.6249 20.4003 79.4378 20.3807V27.1063C79.0812 27.1643 78.7341 27.2034 78.397 27.2229C78.0593 27.2419 77.7305 27.2517 77.4123 27.2517C77.1117 27.2517 76.7835 27.2419 76.4275 27.2229C76.0709 27.2033 75.7049 27.1643 75.3299 27.1063L75.33 6.08531Z" fill="#455157" style="mix-blend-mode:luminosity"/>
<path fill-rule="evenodd" clip-rule="evenodd" d="M99.96 19.3079L97.5497 10.4551L95.0236 19.3079H99.96ZM95.3142 5.99921C95.7205 5.94081 96.1075 5.89681 96.4755 5.86721C96.8429 5.83781 97.2493 5.82321 97.6946 5.82321C98.0822 5.82321 98.4593 5.83771 98.8273 5.86721C99.1947 5.89681 99.6011 5.94081 100.047 5.99921L106.58 27.0759C105.786 27.1934 105.012 27.2518 104.257 27.2518C103.521 27.2518 102.805 27.1934 102.108 27.0759L100.947 22.8547H94.0365L92.8459 27.0759C92.1488 27.1934 91.4811 27.2518 90.8419 27.2518C90.1261 27.2518 89.4192 27.1934 88.7228 27.0759L95.3142 5.99921Z" fill="#455157" style="mix-blend-mode:luminosity"/>
<path fill-rule="evenodd" clip-rule="evenodd" d="M108.366 5.99921C108.959 5.88171 109.525 5.82331 110.062 5.82331C110.637 5.82331 111.231 5.88171 111.844 5.99921L119.836 19.4253V5.99921C120.526 5.88171 121.187 5.82331 121.819 5.82331C122.413 5.82331 122.988 5.88171 123.544 5.99921V27.0759C122.93 27.1933 122.375 27.2518 121.877 27.2518C121.34 27.2518 120.756 27.1933 120.124 27.0759L112.074 13.6795V27.0759C111.46 27.1933 110.838 27.2518 110.206 27.2518C109.573 27.2518 108.959 27.1933 108.366 27.0759V5.99921Z" fill="#455157" style="mix-blend-mode:luminosity"/>
<path fill-rule="evenodd" clip-rule="evenodd" d="M128.009 5.99921C128.602 5.88171 129.168 5.82331 129.705 5.82331C130.28 5.82331 130.873 5.88171 131.487 5.99921L139.479 19.4253V5.99921C140.169 5.88171 140.83 5.82331 141.462 5.82331C142.056 5.82331 142.631 5.88171 143.187 5.99921V27.0759C142.573 27.1933 142.018 27.2518 141.52 27.2518C140.983 27.2518 140.399 27.1933 139.766 27.0759L131.717 13.6795V27.0759C131.103 27.1933 130.481 27.2518 129.848 27.2518C129.216 27.2518 128.602 27.1933 128.009 27.0759V5.99921Z" fill="#455157" style="mix-blend-mode:luminosity"/>
<path fill-rule="evenodd" clip-rule="evenodd" d="M21.3011 18.5444L21.3023 21.9748C20.099 22.5772 18.8142 22.9511 17.7822 22.9511C14.4577 22.9511 11.9069 20.3716 11.9069 16.961C11.9069 13.607 14.429 11.0276 17.7249 11.0276C19.588 11.0276 21.6231 11.8587 23.0847 13.2062L25.951 9.73821C23.8879 7.90381 20.7347 6.75711 17.7537 6.75711C11.4194 6.75711 6.69002 11.1423 6.69002 16.961C6.69002 22.8076 11.3046 27.2222 17.4102 27.2222C19.3272 27.2222 21.5111 26.7149 23.3879 25.9096C24.8208 25.2949 25.7503 23.887 25.7503 22.3278V18.5461L21.3011 18.5444ZM33.3337 17C33.3337 26.1137 25.9456 33.5019 16.8318 33.5019C7.71802 33.5019 0.330017 26.1137 0.330017 17C0.330017 7.88631 7.71822 0.498108 16.8319 0.498108C25.9456 0.498108 33.3337 7.88621 33.3337 17Z" fill="#455157" style="mix-blend-mode:luminosity"/>
<path fill-rule="evenodd" clip-rule="evenodd" d="M146.945 7.12161V9.39471H146.569V7.12161H145.866V6.71611H147.651V7.12161H146.945Z" fill="#455157" style="mix-blend-mode:luminosity"/>
<path fill-rule="evenodd" clip-rule="evenodd" d="M149.935 9.39471L149.932 7.39341L149.132 9.11541H148.853L148.053 7.39341V9.39471H147.651V6.71611H148.158L148.995 8.49551L149.827 6.71611H150.33V9.39471H149.935Z" fill="#455157" style="mix-blend-mode:luminosity"/>
</svg>
