<svg width="151" height="38" viewBox="0 0 151 38" fill="none" xmlns="http://www.w3.org/2000/svg">
<path d="M91.7896 15.6658H89.3692C89.2975 15.3319 89.2371 15.0001 89.1543 14.674C88.784 13.2158 87.7951 12.399 86.3758 12.0653C85.1719 11.7823 83.9562 11.7666 82.752 12.0674C81.5084 12.3781 80.6906 13.1569 80.3925 14.4095C80.1931 15.2474 80.3275 16.0402 80.9683 16.6789C81.3741 17.0834 81.8985 17.2842 82.4366 17.4211C84.1263 17.8512 85.8211 18.2611 87.5151 18.6741C88.3175 18.8698 89.1101 19.092 89.8458 19.4783C91.1955 20.1869 92.0052 21.2818 92.2285 22.7999C92.3867 23.875 92.3087 24.9276 91.9309 25.949C91.5439 26.9957 90.8288 27.7575 89.8577 28.2947C88.595 28.9933 87.2424 29.3807 85.8066 29.4947C84.4135 29.6052 83.0322 29.5489 81.6953 29.1123C79.3037 28.3312 77.7662 26.7743 77.354 24.2289C77.3187 24.0107 77.2918 23.7901 77.2782 23.5697C77.2654 23.363 77.2755 23.155 77.2755 22.9225C77.3519 22.9189 77.425 22.9126 77.4981 22.9125C78.1295 22.9117 78.7609 22.912 79.3923 22.912C79.6757 22.9121 79.6661 22.913 79.6897 23.1903C79.7634 24.0576 79.9748 24.8826 80.4869 25.6051C81.0772 26.4377 81.9131 26.9046 82.8789 27.1522C83.2725 27.2531 83.6797 27.3154 84.0847 27.3551C85.3558 27.4794 86.5963 27.3243 87.7906 26.8673C88.3878 26.6388 88.9171 26.3018 89.3039 25.7744C89.7652 25.1452 89.8654 24.4318 89.7878 23.6802C89.7256 23.0788 89.553 22.5041 89.0647 22.1203C88.7217 21.8507 88.3182 21.6433 87.9158 21.4673C86.9724 21.0547 85.962 20.8606 84.9643 20.6277C83.5428 20.2958 82.1038 20.0291 80.7341 19.5022C79.7491 19.1232 78.9146 18.559 78.3953 17.6081C78.028 16.9353 77.8959 16.2077 77.8944 15.4479C77.8915 14.0596 78.2935 12.8128 79.2033 11.7527C79.9603 10.8706 80.9204 10.2945 82.0379 9.98826C83.2546 9.65483 84.4926 9.5932 85.7462 9.71864C86.7268 9.81676 87.6681 10.0473 88.5661 10.4545C90.1983 11.1948 91.2937 12.3769 91.614 14.1823C91.6992 14.6627 91.7304 15.1528 91.7896 15.6658Z" fill="#455157" style="mix-blend-mode:luminosity"/>
<path d="M44.5396 10.1491H47.1207C47.1244 10.2033 47.1312 10.2566 47.1312 10.31C47.1344 14.3034 47.123 18.297 47.1487 22.2903C47.1561 23.4303 47.4419 24.52 48.0789 25.4917C48.7369 26.4954 49.6922 27.0242 50.8581 27.1956C51.2299 27.2503 51.6119 27.3026 51.9837 27.2768C53.1099 27.1986 54.213 27.0196 55.1399 26.2899C55.9645 25.6407 56.4104 24.7685 56.6145 23.7629C56.6884 23.3987 56.7414 23.0233 56.7437 22.6527C56.7701 18.5441 56.7847 14.4354 56.8024 10.3267C56.8026 10.2727 56.8024 10.2186 56.8024 10.1516H59.4053C59.4053 10.2353 59.4053 10.3099 59.4053 10.3844C59.4053 13.7748 59.412 17.1651 59.4002 20.5554C59.3975 21.3199 59.3524 22.0861 59.2871 22.8481C59.1965 23.905 58.9865 24.9394 58.537 25.9106C57.9154 27.2542 56.9327 28.2347 55.572 28.83C54.7336 29.1968 53.8526 29.3914 52.943 29.4461C52.3778 29.4801 51.8075 29.5202 51.2447 29.4817C49.868 29.3874 48.5442 29.0906 47.3793 28.2921C46.3558 27.5906 45.6586 26.6378 45.2219 25.4886C44.8986 24.6377 44.7153 23.7509 44.6439 22.8463C44.5847 22.0979 44.5464 21.3459 44.5441 20.5953C44.5339 17.1842 44.5396 13.7731 44.5396 10.362C44.5396 10.2945 44.5396 10.2269 44.5396 10.1491Z" fill="#455157" style="mix-blend-mode:luminosity"/>
<path d="M106.445 34.4657H104.132V27.4266C103.961 27.6419 103.836 27.8214 103.689 27.9803C102.878 28.8567 101.856 29.2834 100.682 29.4064C99.5991 29.5197 98.5717 29.3535 97.6063 28.8535C95.9663 28.0042 94.9587 26.6662 94.5545 24.868C94.3264 23.8535 94.247 22.8208 94.3145 21.7912C94.4113 20.3153 94.7389 18.8887 95.5469 17.6157C96.2115 16.5685 97.0537 15.7171 98.2425 15.2715C99.9172 14.6436 102.181 14.8223 103.526 16.2383C103.778 16.5037 103.996 16.8017 104.242 17.0997V15.2506C104.322 15.2435 104.381 15.2339 104.44 15.2338C105.03 15.2326 105.619 15.2381 106.209 15.2301C106.389 15.2276 106.461 15.2672 106.461 15.4708C106.455 21.7314 106.456 27.9919 106.456 34.2525C106.456 34.32 106.449 34.3876 106.445 34.4657ZM104.219 22.0645C104.233 21.0448 104.126 20.0438 103.709 19.1005C102.892 17.2542 101.44 16.8483 99.8558 17.0367C98.7681 17.1661 98.0145 17.8558 97.4694 18.7695C96.9177 19.6942 96.7969 20.7371 96.7254 21.7815C96.6944 22.234 96.7091 22.6966 96.7665 23.1466C96.8432 23.7477 96.9419 24.3519 97.1035 24.9348C97.3045 25.6599 97.6795 26.3052 98.2892 26.7742C99.1941 27.4702 100.226 27.5707 101.305 27.3411C102.561 27.0737 103.32 26.2457 103.758 25.084C104.125 24.111 104.223 23.095 104.219 22.0645Z" fill="#455157" style="mix-blend-mode:luminosity"/>
<path d="M65.1794 27.5186V34.4666H62.8846V15.3144H65.1108V17.1264C65.1904 17.0314 65.2359 16.9792 65.2792 16.9251C66.0332 15.9827 66.9587 15.2825 68.1597 15.0455C69.9907 14.6841 71.6403 15.0567 73.0248 16.3701C74.0628 17.3546 74.6219 18.579 74.8212 19.9769C74.8869 20.4378 74.9203 20.9051 74.9389 21.3706C74.9593 21.8783 74.9744 22.3892 74.9408 22.8953C74.8528 24.2212 74.6048 25.5136 73.9257 26.6794C73.002 28.2651 71.6367 29.2036 69.7944 29.4086C68.8133 29.5178 67.8599 29.4201 66.957 28.9938C66.3154 28.6909 65.825 28.2041 65.3713 27.6744C65.3231 27.6181 65.2745 27.562 65.2261 27.5058C65.2105 27.5101 65.195 27.5143 65.1794 27.5186ZM65.0636 22.3961C65.0829 23.3663 65.1905 24.3113 65.533 25.2277C66.3052 27.2937 68.4977 27.8764 70.176 27.1572C71.237 26.7025 71.8674 25.8451 72.2308 24.7805C72.5389 23.8779 72.6157 22.9383 72.6166 21.9911C72.6176 21.0522 72.5036 20.1309 72.1605 19.2493C71.8006 18.3248 71.2373 17.5829 70.2893 17.1898C69.7436 16.9635 69.1719 16.9566 68.594 16.9658C67.6983 16.9801 66.9523 17.3165 66.3551 17.9774C65.7105 18.6909 65.4278 19.5762 65.2553 20.4895C65.1372 21.1148 65.1238 21.7599 65.0636 22.3961Z" fill="#455157" style="mix-blend-mode:luminosity"/>
<path d="M148.126 10.0791H150.33V28.9794H148.274V27.1141C148.061 27.3817 147.886 27.6171 147.695 27.8402C146.933 28.7332 145.956 29.2372 144.803 29.4076C144.516 29.4499 144.226 29.4863 143.938 29.4865C142.464 29.4874 141.222 28.9418 140.181 27.9004C138.973 26.6918 138.394 25.2102 138.225 23.5407C138.093 22.2408 138.162 20.9548 138.522 19.6946C138.867 18.4857 139.42 17.3817 140.302 16.4724C141.108 15.6415 142.113 15.1899 143.259 15.0532C143.938 14.9724 144.615 14.9892 145.288 15.1139C146.338 15.3085 147.167 15.8629 147.84 16.6734C147.919 16.7688 148.005 16.8589 148.126 16.9949V10.0791ZM148.224 22.0128C148.213 21.8081 148.204 21.4756 148.174 21.1452C148.094 20.2839 147.918 19.4471 147.457 18.6986C146.464 17.0878 144.713 16.6583 143.114 17.2731C142.204 17.6231 141.59 18.3076 141.179 19.1796C140.829 19.9231 140.69 20.7151 140.632 21.5291C140.535 22.8963 140.679 24.218 141.265 25.4781C142.013 27.0888 143.445 27.609 144.992 27.4196C146.337 27.255 147.154 26.3825 147.681 25.2042C148.116 24.2314 148.207 23.1911 148.224 22.0128Z" fill="#455157" style="mix-blend-mode:luminosity"/>
<path d="M136.866 27.366C136.866 27.9171 136.868 28.4424 136.861 28.9675C136.86 29.0079 136.796 29.0697 136.75 29.084C136.022 29.3099 135.281 29.3799 134.539 29.1779C133.842 28.9881 133.467 28.477 133.28 27.808C133.227 27.6158 133.191 27.4188 133.147 27.2241C132.883 27.4751 132.64 27.7398 132.364 27.9634C131.337 28.7937 130.177 29.3017 128.848 29.4166C127.949 29.4943 127.069 29.4476 126.243 29.0657C124.916 28.4518 124.097 27.4313 123.905 25.9618C123.775 24.9686 123.904 24.0132 124.442 23.1431C124.841 22.4975 125.425 22.0596 126.091 21.7239C126.836 21.3478 127.639 21.178 128.464 21.083C129.412 20.9738 130.359 20.8485 131.307 20.7258C131.608 20.6868 131.913 20.6564 132.207 20.5826C132.664 20.4677 132.941 20.1603 133.039 19.6958C133.142 19.2038 133.124 18.7181 132.949 18.245C132.693 17.5568 132.125 17.2402 131.468 17.0606C130.572 16.8155 129.658 16.812 128.75 16.9786C127.651 17.1803 126.983 17.9108 126.779 19.085C126.761 19.1932 126.741 19.3012 126.718 19.4299H124.557C124.59 19.1197 124.611 18.8129 124.658 18.5099C124.792 17.6317 125.109 16.8364 125.792 16.2351C126.347 15.7465 127.007 15.4443 127.708 15.2254C128.884 14.8586 130.081 14.8607 131.289 15.0017C132.131 15.1001 132.932 15.3278 133.674 15.7391C134.686 16.2995 135.235 17.1615 135.32 18.3147C135.339 18.57 135.349 18.8264 135.349 19.0824C135.352 21.5571 135.351 24.0319 135.351 26.5066C135.351 27.2513 135.528 27.4279 136.273 27.413C136.465 27.4092 136.657 27.3832 136.866 27.366ZM133.07 22.0322C132.628 22.1917 132.262 22.3798 131.874 22.4526C130.903 22.6349 129.921 22.7589 128.945 22.9185C128.405 23.0068 127.876 23.1304 127.379 23.3806C126.018 24.0662 125.863 26.2172 127.181 27.038C127.782 27.4118 128.424 27.5383 129.128 27.465C130.143 27.3592 131.075 27.0542 131.884 26.4207C132.439 25.9858 132.839 25.4178 132.922 24.7248C133.028 23.8356 133.026 22.9334 133.07 22.0322Z" fill="#455157" style="mix-blend-mode:luminosity"/>
<path d="M118.699 27.0337C118.294 27.6749 117.789 28.2158 117.14 28.6203C116.542 28.9937 115.892 29.2129 115.196 29.305C114.19 29.4383 113.201 29.3667 112.249 29.0067C111.012 28.5389 110.294 27.6087 110.009 26.344C109.903 25.8748 109.838 25.386 109.836 24.9057C109.82 21.7579 109.825 18.61 109.825 15.4622C109.825 15.4012 109.831 15.3402 109.836 15.2567H112.174V15.4948C112.174 18.3999 112.168 21.3051 112.18 24.2102C112.181 24.6429 112.226 25.0839 112.319 25.5059C112.539 26.5013 113.173 27.1071 114.185 27.2657C115.253 27.4334 116.264 27.2721 117.125 26.5663C117.784 26.0257 118.122 25.2833 118.323 24.4749C118.507 23.7391 118.574 22.9878 118.575 22.2309C118.578 19.9914 118.577 17.7518 118.577 15.5123C118.577 15.4297 118.577 15.3471 118.577 15.2512H120.884V28.9906C120.167 28.9906 119.455 28.9906 118.743 28.9906C118.73 28.9761 118.716 28.9615 118.703 28.947C118.714 28.3116 118.724 27.6762 118.734 27.0408C118.731 27.0295 118.727 27.0183 118.723 27.007C118.715 27.0159 118.707 27.0248 118.699 27.0337Z" fill="#455157" style="mix-blend-mode:luminosity"/>
<path d="M6.78273 22.6756L6.78022 22.6729C6.78053 22.6731 6.78085 22.6733 6.78116 22.6734C6.78163 22.6742 6.78226 22.6748 6.78273 22.6756Z" fill="#455157" style="mix-blend-mode:luminosity"/>
<path d="M10.8244 15.0554C10.803 15.6391 10.6004 16.1614 10.2052 16.601C9.81004 17.1142 9.27494 17.3855 8.64973 17.505C7.32161 17.7586 5.86035 16.8487 5.62321 15.374C5.48109 14.4892 5.73178 13.7305 6.35794 13.0925C6.78557 12.6133 7.33847 12.3644 7.96133 12.3155C9.60977 12.186 10.8845 13.4133 10.8244 15.0554Z" fill="#455157" style="mix-blend-mode:luminosity"/>
<path d="M30.6892 10.5683C29.9648 11.3768 29.0562 11.6514 28.0251 11.3765C26.9941 11.1015 26.356 10.3931 26.154 9.34166C25.9888 8.48167 26.2124 7.71322 26.8236 7.0702C27.6173 6.12544 29.1493 5.95952 30.231 6.70102C31.5085 7.57677 31.7348 9.48646 30.6892 10.5683Z" fill="#455157" style="mix-blend-mode:luminosity"/>
<path d="M26.0278 30.8723C25.61 31.383 25.0619 31.6453 24.4201 31.769C23.3066 31.9835 22.163 31.2533 21.7412 30.437C21.2264 29.4407 21.3695 28.2036 22.1116 27.4204C22.1208 27.4108 22.1346 27.4056 22.1461 27.3983C22.6655 26.842 23.3022 26.5961 24.0669 26.5683C24.9993 26.5342 26.252 27.167 26.5762 28.4884C26.7897 29.3575 26.6509 30.1789 26.0278 30.8723Z" fill="#455157" style="mix-blend-mode:luminosity"/>
<path d="M3.23295 13.9723C3.1767 14.2744 3.15496 14.5829 3.11746 14.8884C3.12486 16.1633 3.54288 17.2863 4.37356 18.2528C5.10639 19.1052 6.02894 19.636 7.12497 19.8892C7.63531 20.0072 8.14615 20.0069 8.66123 20.0032C9.00062 19.9263 9.34664 19.8705 9.67736 19.7662C9.99879 19.6649 10.3026 19.5089 10.6187 19.3886C10.6787 19.3658 10.7841 19.3701 10.8274 19.4083C11.4972 20.0013 12.1604 20.6019 12.8246 21.2013C12.8386 21.2139 12.8473 21.2326 12.869 21.2638C12.2846 21.6789 11.6844 22.0499 10.9952 22.2563C10.46 22.407 9.92742 22.5678 9.38839 22.7032C9.16717 22.7588 8.93208 22.7598 8.70314 22.7856C8.07824 22.7569 7.45333 22.7282 6.82859 22.6996C6.81267 22.6909 6.79691 22.6821 6.78116 22.6734C6.78085 22.6733 6.78053 22.6731 6.78022 22.6729L6.78273 22.6756C4.995 22.3518 3.50837 21.4915 2.29969 20.1462C1.55487 19.3173 1.02357 18.364 0.692997 17.2996C0.676763 17.2473 0.667623 17.1927 0.655021 17.1392C0.454603 16.5298 0.348868 15.9044 0.341783 15.2628C0.295298 14.4413 0.384636 13.6363 0.631232 12.8498C0.902085 11.8191 1.37179 10.8891 2.0479 10.0639C2.82438 9.05615 3.79262 8.29196 4.95687 7.77656C5.64417 7.45576 6.36109 7.23233 7.11661 7.15229C7.50501 7.11117 7.89656 7.09919 8.28669 7.07398C9.53036 7.03947 10.6959 7.3379 11.7995 7.89852C12.9582 8.48718 13.9029 9.32165 14.6728 10.3923C14.6099 10.418 14.5631 10.4413 14.5138 10.4566C13.9261 10.6387 13.3381 10.8201 12.7494 10.9997C12.6976 11.0155 12.6412 11.0169 12.587 11.0249C12.3479 11.1062 12.1113 11.1964 11.868 11.2622C11.8099 11.2778 11.7148 11.2283 11.6614 11.1811C10.9577 10.5557 10.1548 10.1289 9.22373 9.96089C8.60844 9.84981 7.99016 9.80065 7.36951 9.92607C7.32932 9.93426 7.2871 9.93111 7.24582 9.93332C6.51503 10.0814 5.83498 10.3614 5.25451 10.8248C4.85256 11.1458 4.50764 11.5378 4.13721 11.898C3.68657 12.5246 3.37412 13.213 3.23295 13.9723Z" fill="#455157" style="mix-blend-mode:luminosity"/>
<path d="M26.9719 13.627C26.8586 14.1907 26.7461 14.7507 26.6337 15.3109C26.5671 15.663 26.5006 16.0153 26.4284 16.3971C25.4519 16.0853 24.5689 15.635 23.784 14.9986C22.7214 14.1368 21.9235 13.0789 21.409 11.7858C21.7472 11.6858 22.0705 11.59 22.3937 11.4943C22.9538 11.3204 23.514 11.1466 24.0941 10.9663C24.6987 12.2284 25.6534 13.1131 26.9719 13.627Z" fill="#455157" style="mix-blend-mode:luminosity"/>
<path d="M25.4386 21.4256C25.259 22.3413 25.0816 23.2458 24.9094 24.1241H23.5251C23.0811 24.2371 22.6343 24.34 22.1945 24.4676C22.0061 24.5223 21.8349 24.6345 21.6506 24.7074C21.5931 24.7301 21.4933 24.7385 21.4557 24.7052C20.7652 24.097 20.0814 23.4816 19.3826 22.8556C19.9501 22.4355 20.5434 22.1035 21.1889 21.8651C21.97 21.5508 22.7756 21.341 23.6225 21.3391C24.134 21.338 24.6454 21.362 25.1567 21.3792C25.245 21.3822 25.3324 21.4075 25.4386 21.4256Z" fill="#455157" style="mix-blend-mode:luminosity"/>
<path d="M31.6264 31.2869C31.3152 32.3651 30.8261 33.3491 30.0822 34.1982C29.4906 34.8891 28.8357 35.5054 28.0274 35.9412C27.4577 36.3036 26.848 36.5735 26.1897 36.7301C25.704 36.824 25.2182 36.9181 24.7324 37.012C24.2744 37.0122 23.8165 37.0123 23.3584 37.0126C22.4116 36.9687 21.5187 36.7088 20.6751 36.2948C18.3901 35.173 16.9465 33.3718 16.3608 30.8911C16.3387 30.7979 16.3123 30.7061 16.2877 30.6137C16.2439 30.2589 16.1982 29.9042 16.1579 29.5491C16.1495 29.4752 16.1607 29.3991 16.1628 29.3239C16.1921 28.9358 16.2214 28.5476 16.2507 28.1594C16.36 27.6878 16.4695 27.2163 16.579 26.7449C16.7903 26.23 17.0016 25.715 17.2292 25.1609C17.5824 25.4776 17.8854 25.7484 18.1873 26.0206C18.553 26.3499 18.9129 26.6856 19.2855 27.0068C19.3974 27.1032 19.3857 27.176 19.35 27.305C19.2143 27.7941 19.1029 28.29 18.9825 28.7832C18.9528 29.3877 19.0057 29.9843 19.1529 30.572C19.3659 31.042 19.5378 31.5366 19.8012 31.9767C20.2372 32.7051 20.8675 33.2402 21.6197 33.6496C22.0741 33.8969 22.5556 34.04 23.0439 34.1752C23.2242 34.225 23.4197 34.2196 23.6083 34.2395C24.4028 34.3428 25.1531 34.1432 25.8979 33.9062C26.7125 33.573 27.4046 33.0711 27.9735 32.4001C28.4573 31.7706 28.84 31.0882 28.9898 30.3019C29.0614 29.9265 29.0725 29.5396 29.1112 29.1578C29.1354 28.0929 28.8319 27.1204 28.2045 26.2698C27.988 25.9763 27.9259 25.7158 28.0211 25.3868C28.0703 25.2175 28.1046 25.0438 28.1458 24.8722C28.2365 24.3838 28.3265 23.895 28.4185 23.4069C28.4607 23.1833 28.507 22.9607 28.5622 22.6835C28.8687 22.9364 29.1598 23.1523 29.4228 23.3981C30.6819 24.574 31.4721 26.0121 31.7961 27.704C31.8164 27.8107 31.8093 27.9229 31.815 28.0324C31.8514 28.2842 31.9089 28.5348 31.9204 28.7877C31.9587 29.6356 31.8709 30.4712 31.6264 31.2869Z" fill="#455157" style="mix-blend-mode:luminosity"/>
<path d="M6.78273 22.6756L6.78022 22.6729C6.78053 22.6731 6.78085 22.6733 6.78116 22.6734C6.78163 22.6742 6.78226 22.6748 6.78273 22.6756Z" fill="#455157" style="mix-blend-mode:luminosity"/>
<path d="M15.8547 16.7606C15.685 17.5131 15.3976 18.2176 14.9941 18.8997C14.7377 18.6716 14.4956 18.4571 14.2545 18.2414C13.8261 17.8579 13.3956 17.4764 12.9735 17.0858C12.9229 17.0389 12.878 16.9242 12.9004 16.8695C13.198 16.1395 13.3091 15.38 13.288 14.5971C13.1893 14.3628 13.2131 14.3048 13.4331 14.2375C14.265 13.9831 15.0968 13.7284 15.9609 13.464C16.1352 14.5804 16.138 15.6739 15.8547 16.7606Z" fill="#455157" style="mix-blend-mode:luminosity"/>
<path d="M36.2813 11.0243C36.059 11.8194 35.7325 12.5648 35.2291 13.2258C34.7939 13.9301 34.2295 14.5172 33.5846 15.0306C33.4828 15.1117 33.3717 15.1813 33.265 15.2563C32.3885 15.9027 31.4144 16.33 30.349 16.5509C30.1623 16.5895 29.9738 16.6198 29.7433 16.6618C29.8125 16.3082 29.8725 15.9993 29.9333 15.6904C30.0576 15.0597 30.1793 14.4285 30.3105 13.7993C30.3249 13.731 30.3822 13.646 30.4426 13.6175C30.6852 13.5028 30.9367 13.4073 31.185 13.3046C31.9936 12.8284 32.6412 12.1893 33.128 11.3873C33.4281 10.8236 33.6552 10.234 33.7459 9.59833C33.7751 9.3935 33.7908 9.18677 33.8127 8.98099C33.8068 8.01622 33.6118 7.09714 33.0999 6.26913C32.2223 4.84995 30.9651 4.01375 29.2906 3.81521C28.6608 3.74069 28.0506 3.8264 27.4383 3.94253C26.7576 4.12388 26.1399 4.43334 25.594 4.87626C25.3639 5.06297 25.1566 5.27742 24.9388 5.4791C24.4211 6.08226 24.0542 6.76783 23.8207 7.52603C23.8174 7.53958 23.8141 7.55329 23.8108 7.56684C23.799 7.57834 23.7873 7.58969 23.7757 7.60103C22.8145 7.90009 21.8534 8.19899 20.8588 8.50845C20.9173 7.4879 21.135 6.54409 21.5561 5.64833C21.8742 4.88603 22.3248 4.21007 22.8886 3.60802C23.5518 2.85895 24.327 2.25737 25.2333 1.82847C25.81 1.49869 26.4376 1.30504 27.0812 1.16859C27.4584 1.08871 27.8462 1.05877 28.2293 1.0063C29.708 0.908136 31.1089 1.18876 32.4173 1.88756C34.0579 2.76378 35.2573 4.05377 35.986 5.76682C36.371 6.67187 36.5859 7.61821 36.5916 8.60661C36.6097 9.428 36.5336 10.2374 36.2813 11.0243Z" fill="#455157" style="mix-blend-mode:luminosity"/>
<path d="M118.699 27.0337C118.707 27.0248 118.715 27.0159 118.723 27.007C118.727 27.0183 118.731 27.0295 118.734 27.0408C118.722 27.0392 118.71 27.0368 118.699 27.0337Z" fill="#455157" style="mix-blend-mode:luminosity"/>
</svg>
