<svg width="181" height="30" viewBox="0 0 181 30" fill="none" xmlns="http://www.w3.org/2000/svg">
<path d="M7.32298 29.9067C8.7045 29.9067 10.055 29.4971 11.2037 28.7295C12.3524 27.962 13.2477 26.8711 13.7764 25.5947C14.3051 24.3184 14.4434 22.9139 14.1739 21.5589C13.9043 20.2039 13.2391 18.9593 12.2622 17.9824C11.2853 17.0055 10.0407 16.3403 8.68571 16.0707C7.33073 15.8012 5.92626 15.9396 4.6499 16.4682C3.37354 16.9969 2.28262 17.8922 1.51509 19.0409C0.747553 20.1896 0.337884 21.5401 0.337884 22.9216C0.337884 24.7742 1.07381 26.5509 2.38377 27.8608C3.69373 29.1708 5.47042 29.9067 7.32298 29.9067Z" fill="#455157"/>
<path d="M23.538 14.0687C24.9195 14.0687 26.27 13.659 27.4187 12.8915C28.5674 12.124 29.4627 11.033 29.9914 9.75668C30.52 8.48032 30.6584 7.07585 30.3889 5.72087C30.1193 4.3659 29.4541 3.12127 28.4772 2.14439C27.5003 1.1675 26.2557 0.502238 24.9007 0.232716C23.5457 -0.0368051 22.1413 0.101523 20.8649 0.630209C19.5885 1.15889 18.4976 2.05419 17.7301 3.20288C16.9625 4.35158 16.5529 5.70208 16.5529 7.0836C16.5529 8.93616 17.2888 10.7128 18.5988 12.0228C19.9087 13.3328 21.6854 14.0687 23.538 14.0687Z" fill="#455157"/>
<path d="M16.5552 15.9397H23.5439C24.4665 15.9323 25.3814 16.1075 26.236 16.4554C27.0905 16.8033 27.8676 17.3169 28.5227 17.9666C29.1777 18.6164 29.6976 19.3893 30.0524 20.241C30.4072 21.0927 30.5898 22.0061 30.5898 22.9287C30.5898 23.8514 30.4072 24.7648 30.0524 25.6165C29.6976 26.4681 29.1777 27.2411 28.5227 27.8909C27.8676 28.5406 27.0905 29.0542 26.236 29.4021C25.3814 29.75 24.4665 29.9252 23.5439 29.9177H16.5552V15.9397Z" fill="#455157"/>
<path d="M14.3108 14.0595H7.31885C6.40107 14.0595 5.49228 13.8787 4.64436 13.5275C3.79645 13.1763 3.02601 12.6615 2.37704 12.0125C1.72807 11.3636 1.21329 10.5931 0.862067 9.74523C0.510848 8.89731 0.330078 7.98852 0.330078 7.07074C0.330078 6.15296 0.510848 5.24417 0.862067 4.39625C1.21329 3.54834 1.72807 2.7779 2.37704 2.12893C3.02601 1.47997 3.79645 0.965177 4.64436 0.613959C5.49228 0.26274 6.40107 0.0819702 7.31885 0.0819702H14.3099L14.3108 14.0595Z" fill="#455157"/>
<path d="M43.4868 19.3724L45.3317 17.5096C46.1582 19.7622 48.4852 20.6346 50.3732 20.6346C51.9173 20.6346 53.1607 20.0836 53.1607 18.6823C53.1607 17.1877 51.9173 16.7763 49.9108 16.3369L48.4778 16.0187C46.2886 15.5596 43.9634 14.5705 43.9634 11.6494C43.9634 8.72828 46.4713 7.19562 49.3736 7.19562C52.2075 7.19562 54.4615 8.36463 55.5685 10.4813L53.6121 12.3404C52.7594 10.4345 51.1042 9.60526 49.2125 9.60526C47.7395 9.60526 46.6793 10.294 46.6793 11.468C46.6793 12.823 47.7542 13.3047 49.42 13.7206L51.1473 14.1339C53.6121 14.7308 55.8229 15.695 55.8229 18.6336C55.8229 21.4151 53.4725 23.0245 50.3411 23.0245C47.3887 23.0263 44.6939 21.968 43.4868 19.3724ZM58.0838 19.3939V11.6062H60.6849V18.6143C60.6849 19.9918 61.144 20.9349 62.8709 20.9349C64.7589 20.9349 65.404 19.7158 65.404 17.8778V11.6062H68.0093V22.794H65.4045V19.7406C64.9913 21.507 63.8388 23.0263 61.6064 23.0263C59.4277 23.0263 58.0916 21.714 58.0916 19.4114L58.0838 19.3939ZM70.7183 10.019V7.40178H73.2983V10.019H70.7183ZM70.7183 22.794V11.6062H73.2983V22.794H70.7183ZM76.7272 19.7406V13.6049H74.9788V11.6062H76.7272V10.2476L79.3044 8.61716V11.6062H82.7371V13.6049H79.3044V19.1185C79.3044 20.3375 79.8816 20.6337 80.641 20.6337C81.5134 20.6337 82.1604 19.9188 82.4827 19.2787L83.289 21.5777C82.9089 22.0635 82.4175 22.4507 81.8562 22.7064C81.2949 22.9622 80.6803 23.079 80.0643 23.047C77.9357 23.047 76.7125 21.7154 76.7125 19.7411L76.7272 19.7406ZM83.75 17.213C83.75 13.6949 85.9392 11.3744 89.0922 11.3744C92.4527 11.3744 94.3197 13.6054 94.3197 16.7051C94.3201 17.0825 94.2894 17.4592 94.2278 17.8314H86.2032C86.341 19.8301 87.5146 20.9078 89.2883 20.9078C91.2443 20.9078 92.1189 19.8976 92.5345 18.9555L94.1218 20.6107C93.2723 21.8963 91.7498 23.024 89.263 23.024C85.9273 23.024 83.738 20.6998 83.738 17.2102L83.75 17.213ZM86.2363 16.1799H91.9941C91.8104 14.4103 90.7975 13.4447 89.0922 13.4447C87.4939 13.4447 86.4333 14.363 86.2257 16.1941L86.2363 16.1799ZM95.3748 22.794L101.409 7.41831H104.398L110.431 22.7926H107.565L106.092 18.9095H99.5784L98.1058 22.7926L95.3748 22.794ZM100.441 16.6588H105.253L103.68 12.5007L102.849 9.7228L102.022 12.5007L100.441 16.6588ZM111.548 22.794V11.6062H114.125V14.6596C114.538 12.89 115.644 11.3739 117.765 11.3739C119.815 11.3739 120.918 12.5677 121.033 14.6849C121.423 12.9148 122.53 11.3739 124.673 11.3739C126.815 11.3739 127.941 12.6862 127.941 15.0067V22.794H125.361V15.7859C125.361 14.2482 124.718 13.4654 123.211 13.4654C121.704 13.4654 121.061 14.6844 121.061 16.5224V22.794H118.482V15.7859C118.482 14.2482 117.839 13.4654 116.332 13.4654C114.825 13.4654 114.182 14.6844 114.182 16.5224V22.794H111.548ZM129.987 17.213C129.987 13.6949 132.176 11.3744 135.329 11.3744C138.689 11.3744 140.556 13.6054 140.556 16.7051C140.557 17.0825 140.526 17.4592 140.465 17.8314H132.431C132.569 19.8301 133.743 20.9078 135.516 20.9078C137.472 20.9078 138.346 19.8976 138.762 18.9555L140.353 20.6107C139.5 21.8963 137.981 23.024 135.495 23.024C132.155 23.024 129.966 20.6998 129.966 17.2102L129.987 17.213ZM132.451 16.1941H138.21C138.026 14.4241 137.013 13.4589 135.307 13.4589C133.721 13.4442 132.658 14.363 132.452 16.1936L132.451 16.1941ZM142.789 22.8087V11.6053H145.368V14.7648C145.782 12.9768 146.912 11.3643 148.915 11.3643C150.32 11.3643 151.356 12.2826 151.356 13.9387C151.375 14.7132 151.2 15.4802 150.847 16.1698H148.199C148.637 15.69 148.891 15.0705 148.915 14.4213C148.934 14.2734 148.92 14.1231 148.873 13.9814C148.827 13.8397 148.749 13.7102 148.646 13.6023C148.543 13.4944 148.417 13.4108 148.278 13.3576C148.139 13.3045 147.989 13.2831 147.84 13.295C146.551 13.295 145.354 14.7643 145.354 16.6271V22.7834L142.789 22.8087ZM153.011 10.0336V7.41647H155.59V10.0336H153.011ZM153.011 22.8087V11.6053H155.59V22.794L153.011 22.8087ZM157.73 17.2277C157.73 13.7344 159.826 11.3891 163.165 11.3891C165.974 11.3891 167.748 12.9764 168.346 15.0898L166.024 16.223C165.77 14.616 164.949 13.5342 163.215 13.5342C161.481 13.5342 160.349 14.8465 160.349 17.2134C160.349 19.5804 161.424 20.8642 163.215 20.8642C165.007 20.8642 165.77 19.7916 166.024 18.179L168.35 19.3269C167.753 21.439 165.978 23.0277 163.169 23.0277C159.826 23.0277 157.73 20.6823 157.73 17.2139V17.2277ZM169.887 20.399C169.887 18.8117 170.989 17.8461 172.811 17.1345L176.562 15.5504C176.47 14.4241 175.965 13.6678 174.412 13.6678C173.725 13.6746 173.053 13.8686 172.469 14.229C171.884 14.5893 171.409 15.1024 171.094 15.7129L169.554 13.8717C170.152 13.0873 170.926 12.4543 171.813 12.0237C172.7 11.593 173.677 11.3768 174.663 11.3923C177.451 11.3923 179.016 12.9796 179.016 15.7363V19.9413C179.016 20.4463 179.2 20.6061 179.613 20.6061H180.33V22.81H178.743C177.546 22.81 176.593 22.2591 176.593 20.6649V19.8384C176.234 21.3077 175.16 23.0561 172.816 23.0561C170.989 23.0277 169.885 21.9909 169.885 20.3853L169.887 20.399ZM173.753 21.0391C175.458 21.0391 176.619 20.029 176.619 18.5137V17.3016L173.753 18.5872C172.785 19.0234 172.395 19.4169 172.395 19.9885C172.373 20.6314 172.808 21.0216 173.753 21.0216V21.0391Z" fill="#455157"/>
</svg>
