<svg width="151" height="18" viewBox="0 0 151 18" fill="none" xmlns="http://www.w3.org/2000/svg">
<path d="M31.3099 13.5602V8.75503C35.3441 8.41819 35.3122 13.953 31.3099 13.5602ZM37.1789 6.73925C35.6863 5.27602 33.6546 4.86989 31.0809 4.77271C31.0809 4.77271 27.5992 4.83926 26.7258 4.83926V17.3575C29.5178 17.3575 33.3882 17.6078 35.3335 16.7996C38.9537 15.2911 40.2345 9.74032 37.1789 6.73925Z" fill="#455157" style="mix-blend-mode:luminosity"/>
<path d="M103.634 4.98569H108.106C110.314 9.24228 111.906 11.358 111.906 11.358V4.98569C113.364 4.98569 114.875 5.00299 116.338 5.00299C116.338 8.11322 116.321 12.5989 116.321 17.396H111.684C110.925 16.1085 109.464 13.5455 108.089 11.4698C108.089 12.503 108.109 15.9035 108.106 17.396H103.634C103.599 15.7091 103.699 8.09859 103.634 4.98569Z" fill="#455157" style="mix-blend-mode:luminosity"/>
<path d="M10.4755 5.10285L5.86339 13.2046H15.262L10.5567 4.93241L10.4755 5.10285ZM13.0425 0.603943L20.4733 13.2047L17.7678 17.3548H2.73586L0.329956 13.3312L5.69035 4.82995H10.3025L10.5394 4.81928L8.25733 0.603943H13.0425Z" fill="#455157" style="mix-blend-mode:luminosity"/>
<path d="M72.442 4.83926H68.1801L63.6559 17.3575H68.015L70.3118 9.88942L72.6072 17.3575H76.9663L72.442 4.83926Z" fill="#455157" style="mix-blend-mode:luminosity"/>
<path d="M133.731 4.83926H129.468L124.946 17.3575H129.305L131.602 9.88942L133.897 17.3575H138.255L133.731 4.83926Z" fill="#455157" style="mix-blend-mode:luminosity"/>
<path d="M48.074 17.3575H39.6007V4.84192H48.0767V8.20378H44.1263V9.43269H47.6266V12.688H44.1543V13.9423H48.074V17.3575Z" fill="#455157" style="mix-blend-mode:luminosity"/>
<path d="M85.7923 13.5602V8.75503C89.8266 8.41819 89.796 13.953 85.7923 13.5602ZM91.66 6.73925C90.1688 5.27602 88.137 4.86989 85.5634 4.77271C85.5634 4.77271 82.0817 4.83926 81.2082 4.83926V17.3575C84.0016 17.3575 87.8707 17.6078 89.8173 16.7996C93.4335 15.2911 94.717 9.74032 91.66 6.73925Z" fill="#455157" style="mix-blend-mode:luminosity"/>
<path d="M102.557 17.3575H94.0832V4.84192H102.559V8.20378H98.6075V9.43269H102.109V12.688H98.6341V13.9423H102.557V17.3575Z" fill="#455157" style="mix-blend-mode:luminosity"/>
<path d="M49.1325 17.3548V4.83659H53.6448V13.3032H57.4567V17.3547L49.1325 17.3548Z" fill="#455157" style="mix-blend-mode:luminosity"/>
<path d="M138.856 17.3548V4.83659H143.364V13.3032H147.18V17.3547L138.856 17.3548Z" fill="#455157" style="mix-blend-mode:luminosity"/>
<path d="M56.0693 8.87486V4.84192H65.5957V8.87616H63.1552V17.3588H58.4606V8.87486H56.0693Z" fill="#455157" style="mix-blend-mode:luminosity"/>
<path d="M117.278 8.87486V4.84192H126.803V8.87616H124.361V17.3588H119.671V8.87486H117.278Z" fill="#455157" style="mix-blend-mode:luminosity"/>
<path d="M148.567 5.57286C148.797 5.57286 149.203 5.61677 149.203 5.32253C149.203 5.13082 148.949 5.09752 148.748 5.09752H148.257V5.57286H148.567ZM149.435 6.68857H149.122L148.567 5.83378H148.257V6.68857H147.996V4.83789H148.801C149.138 4.83789 149.462 4.92844 149.462 5.32787C149.462 5.69138 149.206 5.82448 148.877 5.83384L149.435 6.68857ZM150.07 5.77387C150.07 4.97502 149.406 4.34388 148.628 4.34388C147.853 4.34388 147.19 4.97496 147.19 5.77387C147.19 6.57278 147.853 7.20385 148.628 7.20385C149.406 7.20385 150.07 6.57278 150.07 5.77387ZM146.928 5.77387C146.928 4.83386 147.679 4.08159 148.628 4.08159C149.579 4.08159 150.33 4.83386 150.33 5.77387C150.33 6.71518 149.579 7.46348 148.628 7.46348C147.679 7.46348 146.928 6.71518 146.928 5.77387Z" fill="#455157" style="mix-blend-mode:luminosity"/>
</svg>
