<svg width="161" height="40" viewBox="0 0 161 40" fill="none" xmlns="http://www.w3.org/2000/svg">
<path d="M20.043 0.285583C9.1557 0.285583 0.330017 9.11404 0.330017 20.0014C0.330017 30.8887 9.1557 39.7144 20.043 39.7144C30.9304 39.7144 39.756 30.8887 39.756 20.0014C39.756 9.11404 30.9304 0.285583 20.043 0.285583ZM17.3939 16.7842L14.7726 19.4111C14.7532 19.4305 14.7421 19.4555 14.7421 19.4832L14.7338 22.9608C14.7338 23.0523 14.8446 23.0994 14.9111 23.0329L17.3939 20.5445V28.7744C17.3939 29.3397 17.0392 29.8634 16.4712 30.1322L12.7054 31.9195C12.42 32.0553 12.0764 31.8724 12.0764 31.5898V13.1182L7.56514 15.1604C7.14395 15.3516 6.68119 14.9969 6.75323 14.5425L7.39888 10.4912C7.42936 10.3028 7.55406 10.1393 7.72863 10.059L12.0847 8.03612H16.6762C17.0725 8.03612 17.3939 8.35201 17.3939 8.73996V16.7842ZM26.6935 23.9889C26.239 23.9889 25.7929 23.9418 25.3634 23.8559V31.5898C25.3634 31.8724 25.0198 32.0553 24.7344 31.9195L20.9686 30.1322C20.4005 29.8634 20.0458 29.3425 20.0458 28.7744V20.5556L22.4843 22.9885C22.6062 23.1104 22.8057 23.1104 22.9277 22.9885L28.0236 17.8843V20.9103C28.0236 21.0544 28.1981 21.1264 28.3007 21.0239L30.6034 18.7239C30.6533 18.6741 30.681 18.6048 30.681 18.5327L30.6699 16.0388V13.6225C30.6699 13.4729 30.548 13.3537 30.4011 13.3537H25.4881C25.416 13.3537 25.3495 13.3814 25.2996 13.4313L22.9858 15.734C22.8833 15.8365 22.9553 16.0111 23.0994 16.0111H26.1337L22.814 19.3308C22.7531 19.3917 22.6533 19.3917 22.5923 19.3308L20.0458 16.7898V8.73996C20.0458 8.35201 20.3672 8.03612 20.7635 8.03612H24.6484C25.0447 8.03612 25.3634 8.35201 25.3634 8.73996V10.8265C25.7929 10.7406 26.239 10.6935 26.6934 10.6935C30.365 10.6935 33.3411 13.6696 33.3411 17.3412C33.3411 21.0128 30.3651 23.9889 26.6935 23.9889Z" fill="#455157" style="mix-blend-mode:luminosity"/>
<path d="M60.0692 25.2722C58.6966 26.645 57.0292 27.331 55.0666 27.331C53.1041 27.331 51.4366 26.648 50.0642 25.282C48.6915 23.916 48.0054 22.2452 48.0054 20.2698C48.0054 18.2944 48.6915 16.6236 50.0642 15.2576C51.4366 13.8916 53.1042 13.2086 55.0666 13.2086C57.0291 13.2086 58.6966 13.8949 60.0692 15.2674C61.4416 16.6399 62.1278 18.3074 62.1278 20.2698C62.1278 22.2322 61.4416 23.9 60.0692 25.2722ZM55.0666 25.157C56.4006 25.157 57.5294 24.6826 58.453 23.733C59.3764 22.784 59.8382 21.6296 59.8382 20.2698C59.8382 18.91 59.3764 17.7558 58.453 16.8066C57.5294 15.8576 56.4006 15.3826 55.0666 15.3826C53.7198 15.3826 52.5846 15.8576 51.6612 16.8066C50.7376 17.7559 50.2758 18.9103 50.2758 20.2698C50.2758 21.6293 50.7376 22.784 51.6612 23.733C52.5846 24.6826 53.7198 25.157 55.0666 25.157Z" fill="#455157" style="mix-blend-mode:luminosity"/>
<path d="M64.2827 27.1002V17.4798H66.3991V18.7882C67.0019 17.7877 67.9769 17.2874 69.3237 17.2874C70.4396 17.2874 71.3309 17.653 71.9981 18.3842C72.6649 19.1154 72.9986 20.0903 72.9986 21.3089V27.1002H70.8822V21.6553C70.8822 20.8854 70.7023 20.286 70.3434 19.856C69.9842 19.4265 69.4968 19.2114 68.8811 19.2114C68.15 19.2114 67.5536 19.4874 67.0918 20.0389C66.63 20.5907 66.3991 21.3665 66.3991 22.367V27.1002H64.2827Z" fill="#455157" style="mix-blend-mode:luminosity"/>
<path d="M79.9634 27.2926C78.5268 27.2926 77.3468 26.8212 76.4232 25.8784C75.4997 24.9356 75.038 23.7398 75.038 22.2901C75.038 20.8405 75.4931 19.6444 76.404 18.7016C77.3146 17.7588 78.5076 17.2874 79.9826 17.2874C81.4704 17.2874 82.6698 17.804 83.5806 18.8364C84.4912 19.869 84.8952 21.1934 84.793 22.8097H77.1352C77.1607 23.5536 77.443 24.1757 77.9818 24.6758C78.5204 25.1762 79.2065 25.4262 80.0406 25.4262C81.2204 25.4262 82.0284 24.9776 82.4646 24.0794H84.6774C84.3822 25.016 83.8177 25.7856 82.9842 26.3882C82.1502 26.9914 81.1435 27.2926 79.9634 27.2926ZM79.925 19.0577C79.2324 19.0577 78.6389 19.2534 78.1452 19.6444C77.6513 20.036 77.3338 20.5907 77.1928 21.3089H82.5225C82.3685 20.565 82.0538 20.0037 81.5798 19.6252C81.1051 19.2471 80.5533 19.0577 79.925 19.0577Z" fill="#455157" style="mix-blend-mode:luminosity"/>
<path d="M87.1018 27.1002V13.4394H89.3527V19.0962H96.1059V13.4394H98.3571V27.1002H96.1059V21.2318H89.3527V27.1002H87.1018Z" fill="#455157" style="mix-blend-mode:luminosity"/>
<path d="M104.784 27.2926C103.68 27.2926 102.808 26.924 102.167 26.1863C101.525 25.4489 101.205 24.4642 101.205 23.2329V17.4798H103.321V22.8865C103.321 23.6561 103.488 24.2623 103.821 24.7048C104.155 25.1472 104.63 25.3685 105.245 25.3685C105.964 25.3685 106.534 25.096 106.958 24.5508C107.381 24.0058 107.593 23.2264 107.593 22.213V17.4798H109.709V27.1002H107.593V25.7918C107.028 26.7922 106.092 27.2926 104.784 27.2926Z" fill="#455157" style="mix-blend-mode:luminosity"/>
<path d="M117.771 27.2926C117.116 27.2926 116.51 27.1483 115.952 26.8596C115.395 26.5711 114.968 26.2218 114.673 25.811V27.1002H112.557V12.6698H114.673V18.769C114.968 18.3587 115.395 18.0091 115.952 17.7203C116.51 17.4319 117.116 17.2874 117.771 17.2874C119.079 17.2874 120.179 17.775 121.071 18.7497C121.962 19.7247 122.408 20.9048 122.408 22.2901C122.408 23.6753 121.962 24.8557 121.071 25.8302C120.179 26.8052 119.079 27.2926 117.771 27.2926ZM117.386 25.3685C118.219 25.3685 118.906 25.0736 119.445 24.4834C119.983 23.8938 120.253 23.1626 120.253 22.2901C120.253 21.4177 119.983 20.6868 119.445 20.0966C118.906 19.5067 118.219 19.2115 117.386 19.2115C116.539 19.2115 115.847 19.5067 115.308 20.0966C114.769 20.6868 114.5 21.418 114.5 22.2901C114.5 23.1623 114.769 23.8938 115.308 24.4834C115.847 25.0736 116.539 25.3685 117.386 25.3685Z" fill="#455157" style="mix-blend-mode:luminosity"/>
<path d="M132.451 14.7188C133.336 15.572 133.779 16.6334 133.779 17.9033C133.779 19.1733 133.336 20.2346 132.451 21.0876C131.566 21.9408 130.431 22.367 129.045 22.367H126.948V27.1002H124.697V13.4394H129.045C130.431 13.4394 131.566 13.8661 132.451 14.7188ZM130.883 19.5868C131.338 19.1443 131.566 18.5834 131.566 17.9033C131.566 17.2233 131.338 16.6623 130.883 16.2196C130.428 15.7771 129.808 15.5558 129.026 15.5558H126.948V20.2506H129.026C129.808 20.2506 130.428 20.0292 130.883 19.5868Z" fill="#455157" style="mix-blend-mode:luminosity"/>
<path d="M147.208 25.2722C145.836 26.645 144.168 27.331 142.206 27.331C140.243 27.331 138.576 26.648 137.203 25.282C135.831 23.916 135.145 22.2452 135.145 20.2698C135.145 18.2944 135.831 16.6236 137.203 15.2576C138.576 13.8916 140.243 13.2086 142.206 13.2086C144.168 13.2086 145.836 13.8949 147.208 15.2674C148.581 16.6399 149.267 18.3074 149.267 20.2698C149.267 22.2322 148.581 23.9 147.208 25.2722ZM142.206 25.157C143.54 25.157 144.669 24.6826 145.592 23.733C146.516 22.784 146.977 21.6296 146.977 20.2698C146.977 18.91 146.516 17.7558 145.592 16.8066C144.669 15.8576 143.54 15.3826 142.206 15.3826C140.859 15.3826 139.724 15.8576 138.8 16.8066C137.877 17.7559 137.415 18.9103 137.415 20.2698C137.415 21.6293 137.877 22.784 138.8 23.733C139.724 24.6826 140.859 25.157 142.206 25.157Z" fill="#455157" style="mix-blend-mode:luminosity"/>
<path d="M155.789 27.331C154.327 27.331 153.143 26.924 152.239 26.1092C151.335 25.2949 150.857 24.3169 150.806 23.175H153.057C153.134 23.8293 153.438 24.3362 153.971 24.695C154.503 25.0544 155.103 25.2338 155.77 25.2338C156.437 25.2338 156.985 25.0768 157.415 24.7624C157.844 24.4482 158.06 24.0282 158.06 23.5021C158.06 22.5786 157.431 21.9118 156.174 21.5013L154.5 20.9433C152.268 20.2378 151.152 18.9229 151.152 16.9989C151.152 15.8318 151.553 14.9082 152.355 14.2281C153.156 13.5487 154.205 13.2085 155.5 13.2085C156.847 13.2085 157.918 13.5966 158.714 14.3727C159.509 15.1488 159.951 16.0626 160.041 17.1142H157.79C157.649 16.5115 157.36 16.0594 156.924 15.7579C156.488 15.4567 156.001 15.3057 155.462 15.3057C154.872 15.3057 154.384 15.45 154 15.7387C153.615 16.0272 153.416 16.409 153.403 16.8834C153.403 17.371 153.551 17.7656 153.846 18.0668C154.141 18.3682 154.609 18.6218 155.25 18.8266L156.944 19.3654C159.201 20.0966 160.33 21.4501 160.33 23.4253C160.33 24.5797 159.91 25.5195 159.07 26.244C158.229 26.9689 157.136 27.331 155.789 27.331Z" fill="#455157" style="mix-blend-mode:luminosity"/>
</svg>
