<svg width="151" height="34" viewBox="0 0 151 34" fill="none" xmlns="http://www.w3.org/2000/svg">
<path fill-rule="evenodd" clip-rule="evenodd" d="M47.6735 2.07163L47.1669 2.39181L51.0779 8.62372C51.259 8.53292 51.4448 8.45323 51.6306 8.37801L47.6735 2.07163Z" fill="#455157" style="mix-blend-mode:luminosity"/>
<path fill-rule="evenodd" clip-rule="evenodd" d="M51.3482 2.69816L49.6888 3.41105L51.7939 8.31022C52.3611 8.09224 52.9518 7.93117 53.5519 7.82945L51.3482 2.69816Z" fill="#455157" style="mix-blend-mode:luminosity"/>
<path fill-rule="evenodd" clip-rule="evenodd" d="M41.2174 7.96055L40.9393 8.4938L47.1551 11.7324C47.2702 11.5626 47.3892 11.4011 47.5149 11.2387L41.2174 7.96055Z" fill="#455157" style="mix-blend-mode:luminosity"/>
<path fill-rule="evenodd" clip-rule="evenodd" d="M49.6067 9.28493C49.6538 9.25127 49.7049 9.22405 49.752 9.19459L46.4049 4.71532L45.0637 5.71673L47.0899 8.42605L45.7486 7.42758L44.6717 8.87886L47.6358 11.0856C48.1959 10.4016 48.8561 9.79441 49.6067 9.28493Z" fill="#455157" style="mix-blend-mode:luminosity"/>
<path fill-rule="evenodd" clip-rule="evenodd" d="M56.1441 7.75298L55.3606 0.583008L53.5653 0.78245L54.3237 7.72749C54.5837 7.70546 54.8457 7.69159 55.1076 7.69159C55.4576 7.69159 55.8048 7.71241 56.1441 7.75298Z" fill="#455157" style="mix-blend-mode:luminosity"/>
<path fill-rule="evenodd" clip-rule="evenodd" d="M63.2707 12.6056L66.011 10.293L64.8453 8.91102L62.2617 11.0898C62.4314 11.2976 62.5936 11.5117 62.7471 11.7336C62.9388 12.0177 63.1116 12.3102 63.2707 12.6056Z" fill="#455157" style="mix-blend-mode:luminosity"/>
<path fill-rule="evenodd" clip-rule="evenodd" d="M70.2786 10.7646L69.4052 9.18646L63.2734 12.6153C63.5609 13.1555 63.7907 13.7192 63.9643 14.2999L70.2786 10.7646Z" fill="#455157" style="mix-blend-mode:luminosity"/>
<path fill-rule="evenodd" clip-rule="evenodd" d="M65.2734 5.57518L64.7918 5.21663L61.2111 9.99433C61.3619 10.127 61.5111 10.2663 61.6533 10.4105L65.2734 5.57518Z" fill="#455157" style="mix-blend-mode:luminosity"/>
<path fill-rule="evenodd" clip-rule="evenodd" d="M64.5664 2.88645L62.9596 2.05777L59.9912 7.80541L60.9687 4.62774L59.2441 4.09696L57.9924 8.15481C59.0863 8.51434 60.0996 9.07406 60.9915 9.80773L64.5664 2.88645Z" fill="#455157" style="mix-blend-mode:luminosity"/>
<path fill-rule="evenodd" clip-rule="evenodd" d="M64.3362 17.1141L67.5294 16.4678L67.4496 15.883L69.0478 15.4745L68.5969 13.7228L64.1116 14.8747C64.282 15.6064 64.3535 16.3564 64.3362 17.1141Z" fill="#455157" style="mix-blend-mode:luminosity"/>
<path fill-rule="evenodd" clip-rule="evenodd" d="M60.9687 24.0423L65.5675 28.9694L66.009 28.5589L64.7632 27.224L65.8656 26.0273L62.2872 22.7202C61.898 23.2007 61.455 23.6432 60.9687 24.0423Z" fill="#455157" style="mix-blend-mode:luminosity"/>
<path fill-rule="evenodd" clip-rule="evenodd" d="M57.6087 4.28403L57.0078 4.23305L56.6959 7.83216C56.8951 7.86507 57.093 7.90592 57.291 7.95317L57.6087 4.28403Z" fill="#455157" style="mix-blend-mode:luminosity"/>
<path fill-rule="evenodd" clip-rule="evenodd" d="M46.3668 29.7942L48.0062 30.5553L50.6023 24.9574C50.0693 24.6577 49.5658 24.3061 49.1008 23.904L46.3668 29.7942Z" fill="#455157" style="mix-blend-mode:luminosity"/>
<path fill-rule="evenodd" clip-rule="evenodd" d="M38.7317 22.5277L39.5749 24.1227L45.7372 20.8817L41.0709 25.2429L41.4813 25.6848L46.5098 20.9834C46.1697 20.293 45.9171 19.5705 45.7588 18.8262L38.7317 22.5277Z" fill="#455157" style="mix-blend-mode:luminosity"/>
<path fill-rule="evenodd" clip-rule="evenodd" d="M47.183 22.1335L43.9333 26.0855L45.33 27.2307L48.3691 23.5345C47.9316 23.1114 47.5341 22.6438 47.183 22.1335Z" fill="#455157" style="mix-blend-mode:luminosity"/>
<path fill-rule="evenodd" clip-rule="evenodd" d="M45.553 15.9699L40.2736 16.0218L40.2803 16.6259L45.3201 16.5707L39.6311 17.3279L39.8966 19.1149L45.5849 18.3642C45.568 18.1212 45.5259 17.8792 45.531 17.6354C45.4867 17.0834 45.4957 16.5281 45.553 15.9699Z" fill="#455157" style="mix-blend-mode:luminosity"/>
<path fill-rule="evenodd" clip-rule="evenodd" d="M51.3226 25.325L49.0164 32.1944L49.5882 32.372L51.5548 26.6454L51.4106 29.0197L53.0924 29.1973L53.409 26.1913L53.8724 30.9277L55.672 30.7525L55.2192 26.1364C55.1881 26.1382 55.1524 26.1411 55.121 26.1411C53.7915 26.1411 52.4997 25.8544 51.3226 25.325Z" fill="#455157" style="mix-blend-mode:luminosity"/>
<path fill-rule="evenodd" clip-rule="evenodd" d="M63.9957 19.4039L70.5716 20.7636L70.9102 19.1251L64.3009 17.7559C64.2722 18.0531 64.2326 18.3528 64.1736 18.6487C64.1261 18.9048 64.0641 19.154 63.9957 19.4039Z" fill="#455157" style="mix-blend-mode:luminosity"/>
<path fill-rule="evenodd" clip-rule="evenodd" d="M65.4811 24.2227L66.3413 22.787L63.3787 21.017C63.1285 21.5191 62.8363 21.9964 62.5017 22.4436L65.4811 24.2227Z" fill="#455157" style="mix-blend-mode:luminosity"/>
<path fill-rule="evenodd" clip-rule="evenodd" d="M46.8389 12.2275L41.0214 10.5756L40.5285 12.3144L44.3913 13.4091L41.8819 13.1681L41.7166 14.8326L45.7227 15.2191C45.7251 15.2055 45.7251 15.1951 45.7266 15.1845C45.9317 14.1235 46.3071 13.1285 46.8389 12.2275Z" fill="#455157" style="mix-blend-mode:luminosity"/>
<path fill-rule="evenodd" clip-rule="evenodd" d="M55.9434 26.8612L57.4324 33.417L57.9779 33.2933L57.0714 29.3067L58.3286 28.9214L57.3813 25.8544C56.8385 25.9922 56.28 26.0827 55.7141 26.1162L55.9434 26.8612Z" fill="#455157" style="mix-blend-mode:luminosity"/>
<path fill-rule="evenodd" clip-rule="evenodd" d="M61.4911 31.4701L63.0009 30.7451L60.0901 24.6768C59.6141 24.9811 59.1189 25.2389 58.6032 25.4517L61.4911 31.4701Z" fill="#455157" style="mix-blend-mode:luminosity"/>
<path fill-rule="evenodd" clip-rule="evenodd" d="M63.6085 20.5122L70.6298 23.5051L70.8482 22.9896L63.8127 19.9923C63.7502 20.168 63.6831 20.3417 63.6085 20.5122Z" fill="#455157" style="mix-blend-mode:luminosity"/>
<path fill-rule="evenodd" clip-rule="evenodd" d="M63.224 12.6417L63.2526 12.6259C63.2526 12.6259 63.2512 12.6241 63.2499 12.6205L63.224 12.6417Z" fill="#455157" style="mix-blend-mode:luminosity"/>
<path fill-rule="evenodd" clip-rule="evenodd" d="M55.1076 12.4477C54.2153 12.4477 53.3516 12.7137 52.6062 13.2193C51.618 13.8894 50.9527 14.9049 50.7292 16.0736C50.5049 17.2479 50.7488 18.4367 51.4157 19.425C52.2527 20.651 53.6375 21.385 55.121 21.385C56.0161 21.385 56.8794 21.113 57.6228 20.6107C58.6098 19.9409 59.2787 18.9261 59.503 17.7545C59.7268 16.585 59.481 15.3941 58.8113 14.4063C57.9791 13.1807 56.5954 12.4477 55.1076 12.4477Z" fill="#455157" style="mix-blend-mode:luminosity"/>
<path fill-rule="evenodd" clip-rule="evenodd" d="M142.862 7.83165V21.4501L132.895 7.89351L132.849 7.83165H129.729V25.9988H132.662V12.3804L142.676 25.9988H145.794V7.83165H142.862Z" fill="#455157" style="mix-blend-mode:luminosity"/>
<path fill-rule="evenodd" clip-rule="evenodd" d="M121.465 7.83165V18.2278C121.465 21.0415 119.177 23.3306 116.365 23.3306C113.553 23.3306 111.264 21.0415 111.264 18.2278V7.83165H108.33V18.2278C108.33 22.6578 111.934 26.2619 116.365 26.2619C120.793 26.2619 124.395 22.6578 124.395 18.2278V7.83165H121.465Z" fill="#455157" style="mix-blend-mode:luminosity"/>
<path fill-rule="evenodd" clip-rule="evenodd" d="M90.336 7.83165V10.7619H96.1122V25.9988H99.0469V10.7619H104.824V7.83165H90.336Z" fill="#455157" style="mix-blend-mode:luminosity"/>
<path fill-rule="evenodd" clip-rule="evenodd" d="M34.3468 13.7629C34.3468 15.4173 33.0029 16.7629 31.3512 16.7629H26.2491V10.7619H31.3512C33.0029 10.7619 34.3468 12.108 34.3468 13.7629ZM31.3512 7.83165H23.3176V25.9988H26.2491V19.6947H31.3512C34.6214 19.6947 37.2822 17.0336 37.2822 13.7629C37.2822 10.4922 34.6214 7.83165 31.3512 7.83165Z" fill="#455157" style="mix-blend-mode:luminosity"/>
<path fill-rule="evenodd" clip-rule="evenodd" d="M85.04 13.7642C85.04 15.4173 83.6937 16.7629 82.039 16.7629H76.9394V10.7619H82.039C83.6937 10.7619 85.04 12.1085 85.04 13.7642ZM84.412 19.2003C86.5808 18.2575 87.9716 16.1443 87.9716 13.7642C87.9716 10.4929 85.3102 7.83165 82.039 7.83165H74.0098V25.9988H76.9394V19.6947H81.3756L86.0376 25.9988H89.4354L84.412 19.2003Z" fill="#455157" style="mix-blend-mode:luminosity"/>
<path fill-rule="evenodd" clip-rule="evenodd" d="M149.237 8.67894C149.353 8.67894 149.428 8.60369 149.428 8.47848C149.428 8.35625 149.353 8.28721 149.237 8.28721H149.049V8.67894H149.237ZM148.826 8.1182H149.281C149.502 8.1182 149.653 8.25901 149.653 8.47848C149.653 8.66013 149.534 8.76653 149.437 8.79151V8.79795C149.437 8.79795 149.45 8.81056 149.478 8.8635L149.703 9.29903H149.459L149.24 8.84174H149.049V9.29903H148.826V8.1182ZM149.209 9.64371C149.713 9.64371 150.101 9.23642 150.101 8.71307C150.101 8.19024 149.713 7.78291 149.209 7.78291C148.711 7.78291 148.325 8.19024 148.325 8.71307C148.325 9.23642 148.711 9.64371 149.209 9.64371ZM149.209 7.56988C149.832 7.56988 150.33 8.0774 150.33 8.71307C150.33 9.34926 149.832 9.85678 149.209 9.85678C148.591 9.85678 148.096 9.34926 148.096 8.71307C148.096 8.0774 148.591 7.56988 149.209 7.56988Z" fill="#455157" style="mix-blend-mode:luminosity"/>
<path fill-rule="evenodd" clip-rule="evenodd" d="M16.0888 16.9154C16.0888 20.4529 13.2117 23.3307 9.67572 23.3307C6.13973 23.3307 3.26267 20.4529 3.26267 16.9154C3.26267 13.3779 6.1395 10.5014 9.67572 10.5014C13.2119 10.5014 16.0888 13.3789 16.0888 16.9154ZM9.67572 7.56988C4.52244 7.56988 0.329956 11.7626 0.329956 16.9154C0.329956 22.0681 4.52244 26.2597 9.67572 26.2597C14.829 26.2597 19.021 22.0679 19.021 16.9154C19.021 11.7628 14.8285 7.56988 9.67572 7.56988Z" fill="#455157" style="mix-blend-mode:luminosity"/>
</svg>
