<svg width="141" height="16" viewBox="0 0 141 16" fill="none" xmlns="http://www.w3.org/2000/svg">
<path fill-rule="evenodd" clip-rule="evenodd" d="M25.2072 0.46807C26.1587 0.46807 26.9285 1.23085 26.9285 2.18171C26.9392 3.11168 26.1694 3.87446 25.2179 3.88491H15.4249V13.9787C15.4356 14.9087 14.6658 15.6714 13.7143 15.6819C12.7735 15.6819 12.0037 14.9191 12.0037 13.9787V3.88491H2.21069C1.26987 3.88491 0.50011 3.12213 0.50011 2.18171C0.489419 1.25175 1.25918 0.488968 2.21069 0.478519L25.2072 0.46807ZM138.608 0.488968C139.559 0.405376 140.393 1.08456 140.489 2.01453C140.489 2.06677 140.5 2.11902 140.5 2.17126V12.4113C140.5 13.3935 140.072 14.3549 139.292 14.94C138.33 15.6819 137.015 15.7864 135.946 15.2012L117.568 4.71038C117.236 4.53275 116.819 4.63724 116.637 4.96116C116.573 5.06565 116.541 5.19104 116.552 5.30598V13.9578C116.552 14.8878 115.782 15.6505 114.831 15.6505C114.777 15.6505 114.724 15.6505 114.67 15.6401C113.772 15.5669 113.12 14.7624 113.12 13.8742V3.63413C113.12 2.65192 113.548 1.69061 114.328 1.10546C115.258 0.384477 116.541 0.269538 117.6 0.802439L117.675 0.844236L136.053 11.3246C136.373 11.5127 136.79 11.4187 136.993 11.0948C137.057 10.9798 137.1 10.8544 137.09 10.729V2.2444C137.079 1.37714 137.72 0.57256 138.608 0.488968ZM70.1098 0.739745C70.8154 0.123251 71.8952 0.185946 72.526 0.896481C73.1568 1.60702 73.0819 2.68327 72.3656 3.31021C70.1098 5.31643 67.5012 6.90468 64.6681 8.00183C67.5012 9.09898 70.1098 10.6872 72.3656 12.6935C73.0819 13.3204 73.1461 14.3966 72.526 15.1072C71.9166 15.7968 70.8475 15.8804 70.1312 15.2848C70.1205 15.2744 70.1098 15.2744 70.1098 15.2639C63.5027 9.4647 56.6711 9.78862 55.1957 9.93491V13.9264C55.2064 14.8564 54.4474 15.6296 53.4959 15.6401H53.4852C52.5443 15.6401 51.7746 14.8773 51.7746 13.9369V2.18171C51.7639 1.25175 52.5337 0.488968 53.4852 0.478519C54.426 0.478519 55.1957 1.2413 55.1957 2.18171V6.06876C55.8479 6.13145 57.5264 6.2255 59.7501 5.83888C63.5241 5.15969 67.0201 3.4565 70.1098 0.739745ZM47.2095 0.478519C48.1503 0.478519 48.9201 1.2413 48.9201 2.18171C48.9308 3.06988 48.2252 3.82221 47.3164 3.88491H36.1549C33.8242 3.90581 31.9533 5.76574 31.9747 8.04363C31.9533 10.2693 33.7387 12.1083 36.0052 12.2023H47.2095C48.1503 12.2023 48.9201 12.9651 48.9201 13.916C48.9308 14.8042 48.2252 15.546 47.3164 15.6087H36.1549C31.9105 15.5774 28.5001 12.1919 28.5428 8.04363C28.5428 3.9267 31.8571 0.57256 35.9732 0.478519H47.2095ZM77.7967 0.46807C78.7375 0.46807 79.5073 1.23085 79.5073 2.17126V13.9055C79.518 14.8355 78.7482 15.5983 77.7967 15.6087C76.8559 15.6087 76.0861 14.846 76.0861 13.9055V2.18171C76.0861 1.2413 76.8452 0.478519 77.7967 0.46807C77.7967 0.475036 77.7967 0.475036 77.7967 0.46807ZM103.07 0.46807C107.069 0.499417 110.298 3.69683 110.266 7.61522V8.46159C110.266 12.4009 107.048 15.6087 103.07 15.6087H89.8777C85.8792 15.5669 82.6719 12.3695 82.7039 8.46159V7.61522C82.7039 3.67593 85.9219 0.46807 89.8883 0.46807H103.07ZM103.07 3.87446H89.8777C87.7822 3.89536 86.1037 5.5672 86.1251 7.61522V8.46159C86.1037 10.5096 87.7822 12.1815 89.8777 12.2023H103.081C105.177 12.1815 106.855 10.5096 106.834 8.46159V7.61522C106.855 5.57765 105.166 3.89536 103.07 3.87446C103.078 3.87446 103.078 3.87446 103.07 3.87446ZM45.7662 6.34043C46.707 6.34043 47.4768 7.10321 47.4768 8.04363C47.4875 8.94225 46.7818 9.68413 45.8624 9.74682H36.1656C35.2141 9.74682 34.4443 8.98404 34.4443 8.04363C34.4443 7.13456 35.1499 6.40313 36.0587 6.35088L45.7662 6.34043Z" fill="#455157" style="mix-blend-mode:luminosity"/>
</svg>
