<svg width="141" height="50" viewBox="0 0 141 50" fill="none" xmlns="http://www.w3.org/2000/svg">
<path d="M52.7485 26.9876C51.5358 26.9876 50.4141 26.9891 49.2925 26.9873C46.5732 26.9829 43.8531 27.0165 41.135 26.9563C39.6109 26.9225 38.627 26.2588 38.1042 24.2761C37.143 20.6309 35.004 17.9197 31.5801 16.2869C30.4447 15.7454 29.2355 15.3909 27.9647 15.309C27.3686 15.2706 26.7723 15.223 26.1754 15.211C24.1555 15.1703 22.2966 15.7829 20.5843 16.7796C18.5303 17.9752 16.937 19.6586 15.9293 21.8241C15.4846 22.7797 15.1667 23.7992 14.8514 24.8085C14.504 25.9207 13.6677 26.8567 12.2714 26.8741C8.33434 26.9232 4.39701 26.9485 0.459811 26.9815C0.430628 26.9818 0.401263 26.9598 0.329956 26.9316C0.363375 20.741 2.28038 15.183 6.17379 10.3656C10.6914 4.77573 16.6129 1.49581 23.7344 0.7685C31.4042 -0.0147865 38.313 2.1328 44.0819 7.34534C49.8539 12.5607 52.6546 19.1533 52.7485 26.9876Z" fill="#455157" style="mix-blend-mode:luminosity"/>
<path d="M50.0268 38.6418C47.7395 43.1375 44.4892 46.6991 40.1243 49.3882C40.0266 49.2529 39.9454 49.1012 39.8289 48.9847C36.1997 45.3533 32.5684 41.724 28.9327 38.0991C28.5441 37.7116 28.1488 37.3245 27.7169 36.988C27.0055 36.4337 26.0935 36.3448 25.3518 37.0107C24.8169 37.4909 24.2619 37.9508 23.7511 38.4554C22.0204 40.1647 20.3012 41.8857 18.5854 43.61C16.7773 45.4272 14.9756 47.2508 13.179 49.0793C12.9841 49.2777 12.8479 49.3164 12.5955 49.1533C10.6408 47.8903 8.85779 46.4222 7.28406 44.7102C5.92871 43.2357 4.73819 41.635 3.77525 39.8743C3.54969 39.4618 3.15106 39 3.20877 38.6176C3.26574 38.2404 3.79469 37.9296 4.12589 37.599C7.3317 34.3984 10.5514 31.2116 13.7373 27.9914C14.4304 27.2908 15.228 26.999 16.1687 26.9985C23.0848 26.9948 30.0008 26.9945 36.9169 26.9971C38.0178 26.9975 38.9533 27.3702 39.6437 28.2645C39.7251 28.3698 39.8313 28.4561 39.9262 28.551C43.2845 31.9061 46.6429 35.2612 50.0268 38.6418Z" fill="#455157" style="mix-blend-mode:luminosity"/>
<path d="M95.3788 13.3611V40.4979C95.2618 40.5143 95.152 40.5431 95.042 40.5434C93.2475 40.5477 91.4525 40.5724 89.6586 40.5393C88.8446 40.5242 88.1889 40.0607 87.6635 39.4846C86.4763 38.1825 85.3284 36.8446 84.169 35.5174C83.1636 34.3664 82.1673 33.2073 81.1616 32.0566C79.7932 30.4909 78.4198 28.9296 77.0483 27.3666C76.2713 26.4813 75.4945 25.5958 74.7159 24.7118C74.4882 24.4532 74.2548 24.1996 73.9492 23.8609C73.9492 24.1209 73.9492 24.2791 73.9492 24.4373C73.9493 29.0145 73.9517 33.5918 73.9446 38.169C73.944 38.5137 73.922 38.8717 73.8284 39.2004C73.6261 39.9111 73.1231 40.3845 72.3969 40.4562C71.4822 40.5466 70.5557 40.5242 69.6341 40.5364C68.815 40.5471 67.9957 40.5386 67.1466 40.5386V13.3285C68.2022 13.3285 69.2395 13.3069 70.2755 13.3347C71.2709 13.3614 72.2653 13.435 73.2596 13.4959C74.1356 13.5496 74.6344 14.1852 75.1523 14.7668C76.2115 15.9563 77.2537 17.1612 78.2998 18.3624C79.4469 19.6795 80.5849 21.0046 81.7374 22.317C82.7679 23.4905 83.8166 24.648 84.8499 25.819C85.9508 27.0666 87.0428 28.3222 88.1396 29.5735C88.2538 29.7037 88.3742 29.8284 88.5629 30.0326C88.5629 29.748 88.5629 29.5704 88.5629 29.3929C88.5625 24.7654 88.5709 20.1379 88.5544 15.5105C88.551 14.5746 88.8572 13.8679 89.7417 13.4836C89.9167 13.4075 90.1215 13.3673 90.3129 13.3663C91.9864 13.3573 93.6601 13.3611 95.3788 13.3611Z" fill="#455157" style="mix-blend-mode:luminosity"/>
<path d="M125.714 41.3556C121.369 41.3044 117.814 39.5934 114.914 36.4397C113.199 34.5756 112.116 32.3604 111.561 29.9168C111.307 28.8011 111.204 27.6178 111.251 26.4741C111.354 23.988 112.083 21.6614 113.406 19.5334C114.86 17.195 116.814 15.3894 119.274 14.1699C121.187 13.2217 123.209 12.6888 125.382 12.6712C127.556 12.6536 129.639 13.0056 131.629 13.8411C132.952 14.3967 134.15 15.1738 135.26 16.1033C136.487 17.1301 137.49 18.327 138.317 19.6799C139.25 21.2058 139.858 22.8626 140.123 24.6268C140.262 25.5582 140.36 26.513 140.321 27.4508C140.205 30.2838 139.359 32.8845 137.7 35.2163C136.568 36.8074 135.177 38.1137 133.526 39.1284C131.926 40.1116 130.209 40.8335 128.321 41.0647C127.453 41.1709 126.583 41.2592 125.714 41.3556ZM125.793 19.5341C121.613 19.3759 118.298 22.9746 118.297 26.9061C118.296 31.1908 121.598 34.3444 125.466 34.5034C129.579 34.6724 133.764 31.5208 133.286 26.0784C133.004 22.8784 130.142 19.4161 125.793 19.5341Z" fill="#455157" style="mix-blend-mode:luminosity"/>
<path d="M107.124 40.5149H100.388C100.376 40.4127 100.35 40.3033 100.35 40.1938C100.35 31.8618 100.348 23.5298 100.359 15.1978C100.36 14.4057 100.767 13.8204 101.496 13.493C101.684 13.4083 101.907 13.3657 102.115 13.3644C103.774 13.3543 105.432 13.3588 107.124 13.3588L107.124 40.5149Z" fill="#455157" style="mix-blend-mode:luminosity"/>
</svg>
