<svg width="182" height="40" viewBox="0 0 182 40" fill="none" xmlns="http://www.w3.org/2000/svg">
<path d="M61.8796 10.5745C64.6139 10.5745 66.8217 11.4296 68.5023 13.1388C70.1828 14.849 71.0231 17.0812 71.0231 19.8353C71.0231 22.5894 70.1828 24.8216 68.5023 26.5308C66.8218 28.2401 64.6139 29.0951 61.8796 29.0951H55.4129V10.5744L61.8796 10.5745ZM61.8796 26.5026C63.5692 26.5026 65.07 25.9423 66.3802 24.8217C67.6903 23.701 68.3453 22.0675 68.3453 19.9202V19.8354C68.3453 18.3342 68.0042 17.062 67.3198 16.0172C66.6365 14.9723 65.8245 14.2359 64.8848 13.8088C63.9442 13.3817 62.9425 13.1672 61.8796 13.1672H58.0906V26.5027L61.8796 26.5026Z" fill="black"/>
<path d="M75.3823 17.6698C76.5784 16.3968 78.1449 15.7607 80.0827 15.7607C81.9621 15.7607 83.4812 16.3968 84.6398 17.6698C85.7984 18.9419 86.3779 20.5663 86.3779 22.5421V23.2831H76.0656C76.1989 24.4412 76.645 25.3729 77.405 26.0747C78.164 26.7783 79.1138 27.1296 80.2533 27.1296C81.9056 27.1296 83.1399 26.541 83.9565 25.3629L85.7511 26.6451C84.4975 28.4501 82.6646 29.3518 80.2533 29.3518C78.278 29.3518 76.6733 28.7103 75.4389 27.4281C74.2045 26.1459 73.5878 24.5179 73.5878 22.5422C73.5878 20.5665 74.1853 18.942 75.3823 17.6698ZM76.0656 21.6012H83.9848C83.8142 20.4614 83.3863 19.5451 82.7029 18.8516C82.0196 18.1589 81.1456 17.8121 80.0827 17.8121C78.9806 17.8121 78.0737 18.1534 77.3621 18.8379C76.6495 19.5214 76.218 20.4432 76.0656 21.6012Z" fill="black"/>
<path d="M87.5164 15.9879H90.1942L93.9548 25.6192L97.7429 15.9879H100.421L95.2075 29.0952H92.673L87.5164 15.9879Z" fill="black"/>
<path d="M111.36 10.5745C112.822 10.5745 114.089 11.1065 115.162 12.1706C116.235 13.2347 116.772 14.6299 116.772 16.3583C116.772 17.8595 116.359 19.1225 115.533 20.1483C114.707 21.1741 113.676 21.811 112.442 22.0574L117.142 29.0952H114.037L109.394 22.1715H105.377V29.0952H102.7V10.5745H111.36ZM105.377 19.5788H110.961C111.853 19.5788 112.603 19.275 113.211 18.6662C113.818 18.0584 114.123 17.2892 114.123 16.3583C114.123 15.4467 113.818 14.6874 113.211 14.0796C112.603 13.4718 111.853 13.167 110.961 13.167H105.377V19.5788Z" fill="black"/>
<path d="M118.566 22.5421C118.566 20.5664 119.159 18.9475 120.346 17.6836C121.533 16.4205 123.057 15.7891 124.919 15.7891C126.874 15.7891 128.375 16.5302 129.419 18.0112V15.9881H131.983V29.0954H129.419V27.0723C128.375 28.5734 126.874 29.3236 124.919 29.3236C123.076 29.3236 121.557 28.6821 120.361 27.3999C119.164 26.1177 118.566 24.4986 118.566 22.5421ZM121.072 22.5421C121.072 23.8152 121.457 24.8601 122.227 25.6759C122.996 26.4926 124.007 26.9015 125.26 26.9015C126.495 26.9015 127.496 26.4926 128.265 25.6759C129.034 24.8601 129.42 23.8152 129.42 22.5421C129.42 21.2691 129.039 20.2297 128.28 19.422C127.52 18.6143 126.514 18.211 125.26 18.211C124.007 18.211 122.996 18.6143 122.227 19.422C121.457 20.2297 121.072 21.2691 121.072 22.5421Z" fill="black"/>
<path d="M135.401 10.5745H137.964V18.0111C139.009 16.5299 140.509 15.789 142.465 15.789C144.326 15.789 145.851 16.4205 147.038 17.6835C148.224 18.9474 148.818 20.5663 148.818 22.542C148.818 24.4986 148.219 26.1175 147.023 27.3996C145.827 28.6817 144.307 29.3233 142.465 29.3233C140.509 29.3233 139.009 28.5732 137.964 27.072V29.0951H135.401V10.5745ZM139.132 25.6759C139.892 26.4926 140.888 26.9014 142.124 26.9014C143.377 26.9014 144.388 26.4926 145.157 25.6759C145.926 24.8601 146.311 23.8151 146.311 22.5421C146.311 21.2691 145.926 20.2296 145.157 19.422C144.388 18.6143 143.377 18.211 142.124 18.211C140.87 18.211 139.863 18.6143 139.104 19.422C138.344 20.2296 137.964 21.2691 137.964 22.5421C137.964 23.8151 138.354 24.8601 139.132 25.6759Z" fill="black"/>
<path d="M151.809 10.5745H154.373V18.0111C155.417 16.5299 156.917 15.789 158.873 15.789C160.735 15.789 162.259 16.4205 163.446 17.6835C164.632 18.9474 165.226 20.5663 165.226 22.542C165.226 24.4986 164.628 26.1175 163.431 27.3996C162.235 28.6817 160.715 29.3233 158.873 29.3233C156.917 29.3233 155.417 28.5732 154.373 27.072V29.0951H151.809V10.5745ZM155.541 25.6759C156.301 26.4926 157.297 26.9014 158.532 26.9014C159.786 26.9014 160.797 26.4926 161.566 25.6759C162.335 24.8601 162.72 23.8151 162.72 22.5421C162.72 21.2691 162.335 20.2296 161.566 19.422C160.797 18.6143 159.786 18.211 158.532 18.211C157.279 18.211 156.271 18.6143 155.512 19.422C154.752 20.2296 154.373 21.2691 154.373 22.5421C154.373 23.8151 154.762 24.8601 155.541 25.6759Z" fill="black"/>
<path d="M168.673 10.9167C168.976 10.6511 169.328 10.5178 169.727 10.5178C170.125 10.5178 170.472 10.6511 170.767 10.9167C171.06 11.1832 171.208 11.5336 171.208 11.9707C171.208 12.4077 171.056 12.7683 170.752 13.053C170.448 13.3387 170.106 13.481 169.727 13.481C169.328 13.481 168.976 13.3387 168.673 13.053C168.369 12.7683 168.217 12.4078 168.217 11.9707C168.217 11.5335 168.369 11.1831 168.673 10.9167ZM168.445 15.9879H171.008V29.0953H168.445V15.9879Z" fill="black"/>
<path d="M173.77 15.9879H175.566V11.9708H178.129V15.9879H181.176V17.9545H178.129V25.3628C178.129 26.4834 178.736 27.0437 179.952 27.0437H181.034V29.0952H178.955C177.854 29.0952 177.014 28.8013 176.434 28.2118C175.855 27.6232 175.566 26.7973 175.566 25.7333V17.9545H173.77V15.9879Z" fill="black"/>
<path fill-rule="evenodd" clip-rule="evenodd" d="M4.58489 5.00183C21.3203 3.58216 35.5134 7.65792 44.2048 16.4017C34.8202 2.89994 17.8674 -0.807331 0 0.139457L4.58489 5.00183ZM44.2465 21.9748C44.3002 25.1442 42.8732 27.7289 40.6368 29.7848C41.9399 32.4815 42.7668 35.8454 43.0246 40C42.1372 36.478 40.8825 33.4406 39.2165 30.947C34.2016 34.6111 26.5326 36.2478 21.4235 36.3027C7.61875 36.4496 3.91792 21.9583 18.2569 20.1317C25.1604 19.2508 34.3706 21.3319 38.5835 26.5255C39.6036 25.231 40.2463 23.6667 40.2441 21.7807C40.2298 11.3319 18.8876 10.6925 11.2152 12.0333L5.30212 5.76109C17.4913 4.81856 44.0173 8.3907 44.2465 21.9748ZM31.3575 31.0564C33.2748 30.4056 35.3117 29.4711 36.9503 28.1546C33.2156 24.3709 27.999 22.542 21.0121 23.0478C10.0152 23.8443 15.347 36.485 31.3575 31.0564Z" fill="#5D1EB4"/>
</svg>
