<svg width="624" height="480" viewBox="0 0 624 480" fill="none" xmlns="http://www.w3.org/2000/svg">
<path d="M448.572 57.4744H216.038C209.411 57.4744 204.038 62.8469 204.038 69.4744V420.417C204.038 427.044 209.411 432.417 216.038 432.417H448.572C455.2 432.417 460.572 427.044 460.572 420.417V69.4744C460.572 62.8469 455.2 57.4744 448.572 57.4744Z" fill="url(#paint0_linear_184_9009)"/>
<path d="M434.512 57.4744H209.43C206.116 57.4744 203.43 60.1607 203.43 63.4744V406.46C203.43 409.774 206.116 412.46 209.43 412.46H434.512C437.825 412.46 440.512 409.774 440.512 406.46V63.4744C440.512 60.1607 437.825 57.4744 434.512 57.4744Z" fill="#D4E4FF"/>
<path opacity="0.45" d="M277.476 146.59H224.798C222.589 146.59 220.798 148.381 220.798 150.59V190.114C220.798 192.323 222.589 194.114 224.798 194.114H277.476C279.685 194.114 281.476 192.323 281.476 190.114V150.59C281.476 148.381 279.685 146.59 277.476 146.59Z" fill="white"/>
<path opacity="0.45" d="M349.569 146.59H296.891C294.681 146.59 292.891 148.381 292.891 150.59V190.114C292.891 192.323 294.681 194.114 296.891 194.114H349.569C351.778 194.114 353.569 192.323 353.569 190.114V150.59C353.569 148.381 351.778 146.59 349.569 146.59Z" fill="white"/>
<path opacity="0.45" d="M423.144 83.9322H225.291V114.795H423.144V83.9322Z" fill="white"/>
<path d="M347.569 204.297H226.798C223.484 204.297 220.798 206.983 220.798 210.297V303.527C220.798 306.841 223.484 309.527 226.798 309.527H347.569C350.883 309.527 353.569 306.841 353.569 303.527V210.297C353.569 206.983 350.883 204.297 347.569 204.297Z" fill="#F6F7F9"/>
<path opacity="0.38" d="M281.476 319.71H220.798V367.234H281.476V319.71Z" fill="#F8F5FF"/>
<path opacity="0.45" d="M349.569 319.71H296.891C294.681 319.71 292.891 321.5 292.891 323.71V363.234C292.891 365.443 294.681 367.234 296.891 367.234H349.569C351.778 367.234 353.569 365.443 353.569 363.234V323.71C353.569 321.5 351.778 319.71 349.569 319.71Z" fill="white"/>
<path opacity="0.45" d="M419.144 146.59H366.465C364.256 146.59 362.465 148.381 362.465 150.59V190.114C362.465 192.323 364.256 194.114 366.465 194.114H419.144C421.353 194.114 423.144 192.323 423.144 190.114V150.59C423.144 148.381 421.353 146.59 419.144 146.59Z" fill="white"/>
<path opacity="0.45" d="M419.144 204.297H366.465C364.256 204.297 362.465 206.088 362.465 208.297V247.821C362.465 250.03 364.256 251.821 366.465 251.821H419.144C421.353 251.821 423.144 250.03 423.144 247.821V208.297C423.144 206.088 421.353 204.297 419.144 204.297Z" fill="white"/>
<path opacity="0.45" d="M419.144 262.003H366.465C364.256 262.003 362.465 263.794 362.465 266.003V305.527C362.465 307.736 364.256 309.527 366.465 309.527H419.144C421.353 309.527 423.144 307.736 423.144 305.527V266.003C423.144 263.794 421.353 262.003 419.144 262.003Z" fill="white"/>
<path opacity="0.45" d="M419.144 319.71H366.465C364.256 319.71 362.465 321.5 362.465 323.71V363.234C362.465 365.443 364.256 367.234 366.465 367.234H419.144C421.353 367.234 423.144 365.443 423.144 363.234V323.71C423.144 321.5 421.353 319.71 419.144 319.71Z" fill="white"/>
<g filter="url(#filter0_d_184_9009)">
<path d="M278.068 320.52H68.7919C65.4782 320.52 62.7919 323.206 62.7919 326.52V459.659C62.7919 462.973 65.4782 465.659 68.7919 465.659H278.068C281.382 465.659 284.068 462.973 284.068 459.659V326.52C284.068 323.206 281.382 320.52 278.068 320.52Z" fill="white"/>
</g>
<g filter="url(#filter1_d_184_9009)">
<path d="M595 125.54H385.724C382.41 125.54 379.724 128.226 379.724 131.54V275.081C379.724 278.394 382.41 281.081 385.724 281.081H595C598.314 281.081 601 278.394 601 275.081V131.54C601 128.226 598.314 125.54 595 125.54Z" fill="white"/>
</g>
<g filter="url(#filter2_d_184_9009)">
<path d="M474.337 14.3411H393.682C390.368 14.3411 387.682 17.0274 387.682 20.3411V80.9107C387.682 84.2244 390.368 86.9107 393.682 86.9107H474.337C477.651 86.9107 480.337 84.2244 480.337 80.9107V20.3411C480.337 17.0274 477.651 14.3411 474.337 14.3411Z" fill="#F9F9F9"/>
</g>
<path d="M461.284 53.1024C461.284 46.9507 456.271 41.9637 450.088 41.9637C449.264 41.9637 448.463 42.0581 447.69 42.226C447.008 35.2576 441.104 29.8109 433.92 29.8109C427.161 29.8109 421.537 34.6337 420.327 41.0083C419.864 40.9244 419.388 40.8741 418.9 40.8741C414.627 40.8741 411.152 44.2344 410.976 48.4424H410.967C410.964 48.4424 410.962 48.4424 410.959 48.4424C406.574 48.4424 403.019 51.979 403.019 56.3418C403.019 60.7045 406.574 64.2412 410.959 64.2412C411.08 64.2412 411.197 64.2285 411.316 64.2232H449.731C449.85 64.2269 449.967 64.2412 450.088 64.2412C450.208 64.2412 450.325 64.227 450.444 64.2232H450.717V64.2094C456.606 63.8828 461.284 59.0429 461.284 53.1024Z" fill="#9151E4"/>
<g opacity="0.51">
<path d="M133.01 396.93L132.898 393.7H75.4166L75.5318 396.93H133.01Z" fill="#E5CFFC"/>
<path d="M121.651 387.209L121.536 383.979H75.4166L75.5318 387.209H121.651Z" fill="#E5CFFC"/>
<path d="M102.716 377.843L102.604 374.611H75.4166L75.5318 377.843H102.716Z" fill="#E5CFFC"/>
<path d="M133.013 368.123L132.898 364.891H75.4166L75.5318 368.123H133.013Z" fill="#E5CFFC"/>
<path d="M121.651 358.402L121.536 355.172H75.4166L75.5318 358.402H121.651Z" fill="#E5CFFC"/>
<path d="M115.09 377.843L114.975 374.611H106.727L106.838 377.843H115.09Z" fill="#E5CFFC"/>
<path d="M102.716 349.034L102.601 345.804H75.4166L75.5318 349.034H102.716Z" fill="#E5CFFC"/>
<path d="M114.701 349.034L114.589 345.804H106.337L106.452 349.034H114.701Z" fill="#E5CFFC"/>
<path d="M102.716 456.138L102.604 452.908H75.4166L75.5318 456.138H102.716Z" fill="#E5CFFC"/>
<path d="M133.013 446.417L132.898 443.187H75.4166L75.5318 446.417H133.013Z" fill="#E5CFFC"/>
<path d="M121.651 436.697L121.536 433.467H75.4166L75.5318 436.697H121.651Z" fill="#E5CFFC"/>
<path d="M115.09 456.138L114.975 452.908H106.727L106.838 456.138H115.09Z" fill="#E5CFFC"/>
<path d="M102.716 427.331L102.601 424.101H75.4166L75.5318 427.331H102.716Z" fill="#E5CFFC"/>
<path d="M133.013 417.61L132.898 414.38H75.4166L75.5318 417.61H133.013Z" fill="#E5CFFC"/>
<path d="M114.701 427.331L114.589 424.101H106.337L106.452 427.331H114.701Z" fill="#E5CFFC"/>
<path d="M190.999 416.018L190.887 412.786H144.764L144.879 416.018H190.999Z" fill="#E5CFFC"/>
<path d="M172.063 406.65L171.951 403.42H144.764L144.879 406.65H172.063Z" fill="#E5CFFC"/>
<path d="M202.36 396.93L202.245 393.7H144.764L144.879 396.93H202.36Z" fill="#E5CFFC"/>
<path d="M190.999 445.095L190.887 441.865H144.764L144.879 445.095H190.999Z" fill="#E5CFFC"/>
<path d="M172.063 435.727L171.951 432.497H144.764L144.879 435.727H172.063Z" fill="#E5CFFC"/>
<path d="M190.999 387.209L190.884 383.979H144.764L144.879 387.209H190.999Z" fill="#E5CFFC"/>
<path d="M184.824 406.65L184.712 403.42H176.46L176.575 406.65H184.824Z" fill="#E5CFFC"/>
<path d="M202.36 455.427L202.245 452.195H144.764L144.879 455.427H202.36Z" fill="#E5CFFC"/>
<path d="M271.707 455.427L271.592 452.195H214.114L214.226 455.427H271.707Z" fill="#E5CFFC"/>
<path d="M172.063 377.843L171.951 374.611H144.764L144.879 377.843H172.063Z" fill="#E5CFFC"/>
<path d="M202.36 368.123L202.245 364.891H144.764L144.879 368.123H202.36Z" fill="#E5CFFC"/>
<path d="M184.437 377.843L184.322 374.611H176.074L176.185 377.843H184.437Z" fill="#E5CFFC"/>
<path d="M172.063 349.034L171.951 345.804H144.764L144.879 349.034H172.063Z" fill="#E5CFFC"/>
<path d="M202.36 339.314L202.248 336.084H144.764L144.879 339.314H202.36Z" fill="#E5CFFC"/>
<path d="M184.051 349.034L183.936 345.804H175.688L175.799 349.034H184.051Z" fill="#E5CFFC"/>
<path d="M271.707 396.93L271.596 393.7H214.114L214.226 396.93H271.707Z" fill="#E5CFFC"/>
<path d="M260.346 387.209L260.234 383.979H214.114L214.226 387.209H260.346Z" fill="#E5CFFC"/>
<path d="M241.413 377.843L241.298 374.611H214.114L214.226 377.843H241.413Z" fill="#E5CFFC"/>
<path d="M271.707 368.123L271.596 364.891H214.114L214.226 368.123H271.707Z" fill="#E5CFFC"/>
<path d="M260.346 358.402L260.234 355.172H214.114L214.226 358.402H260.346Z" fill="#E5CFFC"/>
<path d="M253.784 377.843L253.673 374.611H245.421L245.536 377.843H253.784Z" fill="#E5CFFC"/>
<path d="M241.41 444.495L241.298 441.265H214.114L214.226 444.495H241.41Z" fill="#E5CFFC"/>
<path d="M271.707 434.775L271.596 431.545H214.114L214.226 434.775H271.707Z" fill="#E5CFFC"/>
<path d="M260.346 425.054L260.234 421.824H214.114L214.226 425.054H260.346Z" fill="#E5CFFC"/>
<path d="M254.17 444.495L254.059 441.265H245.811L245.922 444.495H254.17Z" fill="#E5CFFC"/>
<path d="M241.413 415.688L241.298 412.458H214.114L214.226 415.688H241.413Z" fill="#E5CFFC"/>
<path d="M253.784 415.688L253.673 412.458H245.421L245.536 415.688H253.784Z" fill="#E5CFFC"/>
<path d="M241.41 349.034L241.298 345.804H214.114L214.226 349.034H241.41Z" fill="#E5CFFC"/>
<path d="M253.663 349.211H244.896L244.771 345.629H253.537L253.663 349.211Z" fill="#E5CFFC"/>
</g>
<path d="M278.074 270.353L254.074 259.934L254.083 254.181L278.11 243.874L278.102 250.648L261.342 256.997L278.083 263.627L278.074 270.353Z" fill="#7333CC"/>
<path d="M280.291 274.921L289.013 238.897L294.054 238.904L285.237 274.927L280.291 274.921Z" fill="#7333CC"/>
<path d="M296.233 270.402L296.243 263.675L313.024 257.138L296.259 250.625L296.269 243.946L320.292 254.317L320.285 260.022L296.233 270.402Z" fill="#7333CC"/>
<g filter="url(#filter3_d_184_9009)">
<path d="M237.537 85.079H28.2607C24.947 85.079 22.2607 87.7653 22.2607 91.079V175.552C22.2607 178.866 24.947 181.552 28.2607 181.552H237.537C240.85 181.552 243.537 178.866 243.537 175.552V91.079C243.537 87.7653 240.85 85.079 237.537 85.079Z" fill="white"/>
</g>
<path d="M48.3635 137.358C48.909 140.246 50.0522 142.923 51.6534 145.285L47.4839 149.433L53.254 155.138L57.3883 151.025C59.7628 152.618 62.4544 153.756 65.3747 154.298V160.143H73.502V154.298C76.4046 153.756 79.1136 152.618 81.471 151.025L85.6226 155.138L91.375 149.433L87.2235 145.285C88.8241 142.923 89.9503 140.246 90.5129 137.358H96.4063V129.29H90.4956C89.9504 126.402 88.8067 123.707 87.206 121.363L91.3753 117.215L85.6228 111.492L81.4713 115.623C79.1139 114.03 76.4049 112.893 73.5023 112.332V106.487H65.375V112.332C62.4547 112.893 59.7632 114.03 57.4062 115.623L53.2544 111.492L47.4843 117.215L51.6538 121.363C50.0526 123.707 48.9269 126.402 48.3639 129.29H42.4534V137.358H48.3635ZM59.1136 133.332C59.1136 127.667 63.7254 123.044 69.4381 123.044C75.1333 123.044 79.7456 127.667 79.7456 133.332C79.7456 138.981 75.1333 143.586 69.4381 143.586C63.7255 143.586 59.1136 138.981 59.1136 133.332Z" fill="#9151E4"/>
<g opacity="0.38">
<path d="M207.837 155.273L207.599 149.693H112.357L112.595 155.273H207.837Z" fill="#B993EC"/>
</g>
<g opacity="0.38">
<path d="M168.733 139.093L168.502 133.511H112.357L112.595 139.093H168.733Z" fill="#B993EC"/>
</g>
<g opacity="0.38">
<path d="M231.299 122.302L231.061 116.719H112.357L112.595 122.302H231.299Z" fill="#B993EC"/>
</g>
<g opacity="0.38">
<path d="M194.287 139.093L194.049 133.511H177.015L177.246 139.093H194.287Z" fill="#F8F5FF"/>
</g>
<path d="M133.013 339.314L132.898 336.084H75.4166L75.5318 339.314H133.013Z" fill="url(#paint1_linear_184_9009)"/>
<path d="M102.716 406.65L102.601 403.42H75.4166L75.5318 406.65H102.716Z" fill="url(#paint2_linear_184_9009)"/>
<path d="M115.476 406.65L115.364 403.42H107.113L107.228 406.65H115.476Z" fill="url(#paint3_linear_184_9009)"/>
<path d="M190.998 358.402L190.887 355.172H144.764L144.879 358.402H190.998Z" fill="url(#paint4_linear_184_9009)"/>
<path d="M202.36 426.006L202.245 422.776H144.764L144.879 426.006H202.36Z" fill="url(#paint5_linear_184_9009)"/>
<path d="M271.707 339.314L271.592 336.084H214.114L214.226 339.314H271.707Z" fill="url(#paint6_linear_184_9009)"/>
<path d="M241.41 406.65L241.298 403.42H214.114L214.226 406.65H241.41Z" fill="url(#paint7_linear_184_9009)"/>
<path d="M254.17 406.65L254.059 403.42H245.811L245.922 406.65H254.17Z" fill="url(#paint8_linear_184_9009)"/>
<path d="M592.416 162.354V174.26H588.725V166.242H580.461V162.354H592.416Z" fill="#9151E4"/>
<path d="M438.953 247.861H416.203V281.162H438.953V247.861Z" fill="#E4D6F5"/>
<path d="M483.462 226.152H460.713V281.162H483.462V226.152Z" fill="#E4D6F5"/>
<path d="M528.831 203.785H506.081V281.162H528.831V203.785Z" fill="#E4D6F5"/>
<path d="M568.876 186.681H546.126V281.162H568.876V186.681Z" fill="#E4D6F5"/>
<path d="M590.272 167.779L569.776 188.798H547.005L529.741 205.902H506.958L484.362 228.268H461.596L439.891 249.982H417.084L385.742 281.163H379.724L415.322 245.749H438.121L459.828 224.036H482.606L505.204 201.669H527.985L545.247 184.566H567.976L587.219 164.831L590.272 167.779Z" fill="#9151E4"/>
<path d="M527.882 181.545C538.517 181.545 547.139 172.968 547.139 162.387C547.139 151.807 538.517 143.23 527.882 143.23C517.247 143.23 508.625 151.807 508.625 162.387C508.625 172.968 517.247 181.545 527.882 181.545Z" fill="#E4D6F5"/>
<path d="M535.215 166.391C535.215 163.631 533.718 162.043 531.322 161.079L528.82 160.071C527.107 159.392 525.823 158.957 525.823 157.76C525.823 156.643 526.797 156.008 528.327 156.008C529.879 156.008 531.108 156.552 532.401 157.538L534.642 154.756C533.327 153.455 531.604 152.636 529.839 152.334V149.474H525.925V152.547C523.158 153.34 521.335 155.465 521.335 158.017C521.335 160.854 523.263 162.517 525.297 163.34L527.848 164.422C529.563 165.123 530.679 165.518 530.679 166.747C530.679 167.906 529.772 168.632 527.919 168.632C526.304 168.632 524.494 167.8 523.097 166.591L520.549 169.62C522.06 171.025 523.977 171.916 525.925 172.27V175.301H529.839V172.228C533.259 171.539 535.215 169.129 535.215 166.391Z" fill="#7333CC"/>
<path d="M559.08 137.195C560.231 141.474 558.284 145.709 554.731 146.655C558.284 145.709 562.097 148.41 563.248 152.689C562.097 148.41 564.044 144.175 567.597 143.229C564.044 144.175 560.231 141.474 559.08 137.195Z" fill="#F1E9FB"/>
<path d="M555.799 158.718C556.344 160.745 555.422 162.751 553.739 163.199C555.422 162.751 557.228 164.031 557.773 166.057C557.228 164.031 558.151 162.024 559.833 161.576C558.151 162.024 556.344 160.745 555.799 158.718Z" fill="#F1E9FB"/>
<path d="M545.878 134.65C546.574 137.239 545.396 139.803 543.245 140.375C545.396 139.803 547.704 141.438 548.4 144.028C547.704 141.438 548.882 138.874 551.033 138.302C548.882 138.874 546.574 137.239 545.878 134.65Z" fill="#F1E9FB"/>
<defs>
<filter id="filter0_d_184_9009" x="54.7919" y="316.52" width="237.276" height="161.139" filterUnits="userSpaceOnUse" color-interpolation-filters="sRGB">
<feFlood flood-opacity="0" result="BackgroundImageFix"/>
<feColorMatrix in="SourceAlpha" type="matrix" values="0 0 0 0 0 0 0 0 0 0 0 0 0 0 0 0 0 0 127 0" result="hardAlpha"/>
<feOffset dy="4"/>
<feGaussianBlur stdDeviation="4"/>
<feComposite in2="hardAlpha" operator="out"/>
<feColorMatrix type="matrix" values="0 0 0 0 0 0 0 0 0 0 0 0 0 0 0 0 0 0 0.04 0"/>
<feBlend mode="normal" in2="BackgroundImageFix" result="effect1_dropShadow_184_9009"/>
<feBlend mode="normal" in="SourceGraphic" in2="effect1_dropShadow_184_9009" result="shape"/>
</filter>
<filter id="filter1_d_184_9009" x="371.724" y="121.54" width="237.276" height="171.541" filterUnits="userSpaceOnUse" color-interpolation-filters="sRGB">
<feFlood flood-opacity="0" result="BackgroundImageFix"/>
<feColorMatrix in="SourceAlpha" type="matrix" values="0 0 0 0 0 0 0 0 0 0 0 0 0 0 0 0 0 0 127 0" result="hardAlpha"/>
<feOffset dy="4"/>
<feGaussianBlur stdDeviation="4"/>
<feComposite in2="hardAlpha" operator="out"/>
<feColorMatrix type="matrix" values="0 0 0 0 0 0 0 0 0 0 0 0 0 0 0 0 0 0 0.04 0"/>
<feBlend mode="normal" in2="BackgroundImageFix" result="effect1_dropShadow_184_9009"/>
<feBlend mode="normal" in="SourceGraphic" in2="effect1_dropShadow_184_9009" result="shape"/>
</filter>
<filter id="filter2_d_184_9009" x="379.682" y="10.3411" width="108.656" height="88.5695" filterUnits="userSpaceOnUse" color-interpolation-filters="sRGB">
<feFlood flood-opacity="0" result="BackgroundImageFix"/>
<feColorMatrix in="SourceAlpha" type="matrix" values="0 0 0 0 0 0 0 0 0 0 0 0 0 0 0 0 0 0 127 0" result="hardAlpha"/>
<feOffset dy="4"/>
<feGaussianBlur stdDeviation="4"/>
<feComposite in2="hardAlpha" operator="out"/>
<feColorMatrix type="matrix" values="0 0 0 0 0 0 0 0 0 0 0 0 0 0 0 0 0 0 0.04 0"/>
<feBlend mode="normal" in2="BackgroundImageFix" result="effect1_dropShadow_184_9009"/>
<feBlend mode="normal" in="SourceGraphic" in2="effect1_dropShadow_184_9009" result="shape"/>
</filter>
<filter id="filter3_d_184_9009" x="14.2607" y="81.079" width="237.276" height="112.473" filterUnits="userSpaceOnUse" color-interpolation-filters="sRGB">
<feFlood flood-opacity="0" result="BackgroundImageFix"/>
<feColorMatrix in="SourceAlpha" type="matrix" values="0 0 0 0 0 0 0 0 0 0 0 0 0 0 0 0 0 0 127 0" result="hardAlpha"/>
<feOffset dy="4"/>
<feGaussianBlur stdDeviation="4"/>
<feComposite in2="hardAlpha" operator="out"/>
<feColorMatrix type="matrix" values="0 0 0 0 0 0 0 0 0 0 0 0 0 0 0 0 0 0 0.04 0"/>
<feBlend mode="normal" in2="BackgroundImageFix" result="effect1_dropShadow_184_9009"/>
<feBlend mode="normal" in="SourceGraphic" in2="effect1_dropShadow_184_9009" result="shape"/>
</filter>
<linearGradient id="paint0_linear_184_9009" x1="204.038" y1="244.946" x2="460.572" y2="244.946" gradientUnits="userSpaceOnUse">
<stop stop-color="#CCA0F9"/>
<stop offset="1" stop-color="#736CEC"/>
</linearGradient>
<linearGradient id="paint1_linear_184_9009" x1="75.4166" y1="337.699" x2="133.013" y2="337.699" gradientUnits="userSpaceOnUse">
<stop stop-color="#CCA0F9"/>
<stop offset="1" stop-color="#736CEC"/>
</linearGradient>
<linearGradient id="paint2_linear_184_9009" x1="75.4166" y1="405.035" x2="102.716" y2="405.035" gradientUnits="userSpaceOnUse">
<stop stop-color="#CCA0F9"/>
<stop offset="1" stop-color="#736CEC"/>
</linearGradient>
<linearGradient id="paint3_linear_184_9009" x1="107.113" y1="405.035" x2="115.476" y2="405.035" gradientUnits="userSpaceOnUse">
<stop stop-color="#CCA0F9"/>
<stop offset="1" stop-color="#736CEC"/>
</linearGradient>
<linearGradient id="paint4_linear_184_9009" x1="144.764" y1="356.787" x2="190.998" y2="356.787" gradientUnits="userSpaceOnUse">
<stop stop-color="#CCA0F9"/>
<stop offset="1" stop-color="#736CEC"/>
</linearGradient>
<linearGradient id="paint5_linear_184_9009" x1="144.764" y1="424.391" x2="202.36" y2="424.391" gradientUnits="userSpaceOnUse">
<stop stop-color="#CCA0F9"/>
<stop offset="1" stop-color="#736CEC"/>
</linearGradient>
<linearGradient id="paint6_linear_184_9009" x1="214.114" y1="337.699" x2="271.707" y2="337.699" gradientUnits="userSpaceOnUse">
<stop stop-color="#CCA0F9"/>
<stop offset="1" stop-color="#736CEC"/>
</linearGradient>
<linearGradient id="paint7_linear_184_9009" x1="214.114" y1="405.035" x2="241.41" y2="405.035" gradientUnits="userSpaceOnUse">
<stop stop-color="#CCA0F9"/>
<stop offset="1" stop-color="#736CEC"/>
</linearGradient>
<linearGradient id="paint8_linear_184_9009" x1="245.811" y1="405.035" x2="254.17" y2="405.035" gradientUnits="userSpaceOnUse">
<stop stop-color="#CCA0F9"/>
<stop offset="1" stop-color="#736CEC"/>
</linearGradient>
</defs>
</svg>
